<?xml version="1.0" encoding="utf-8"?>
<!-- Generator: Adobe Illustrator 16.0.0, SVG Export Plug-In . SVG Version: 6.00 Build 0)  -->
<!DOCTYPE svg PUBLIC "-//W3C//DTD SVG 1.1//EN" "http://www.w3.org/Graphics/SVG/1.1/DTD/svg11.dtd">
<svg version="1.1" id="Layer_1" xmlns="http://www.w3.org/2000/svg" xmlns:xlink="http://www.w3.org/1999/xlink" x="0px" y="0px"
	 width="27px" height="23px" viewBox="0 0 53 46" enable-background="new 0 0 53.425 46.575" xml:space="preserve">
<g>
	<path fill="#FFF" d="M14.481,22.03c-1.749,0-3.155,1.325-3.201,3.075c-0.022,0.855,0.291,1.574,0.881,2.195
		c0.59,0.62,1.387,0.809,2.243,0.809h0.083c1.751,0,3.157-1.194,3.201-2.944c0.023-0.856-0.288-1.492-0.877-2.113
		S15.426,22.054,14.481,22.03z"/>
	<path fill="#FFF" d="M40.288,22.736c-1.754,0-3.161,1.366-3.205,3.117c-0.022,0.854,0.291,1.658,0.882,2.279
		s1.386,0.977,2.238,0.977h0.083c1.728,0,3.17-1.382,3.215-3.104C43.547,24.239,42.143,22.784,40.288,22.736z"/>
	<path fill="#FFF" d="M49.37,9.457c-1.665-1.912-4.054-2.918-7.077-2.989L42.047,6.46c-8.049-0.272-11.381-0.386-21.382-3.308
		c-0.072-0.021-0.146-0.038-0.22-0.051C14.626,2.098,10.08,3.06,6.929,5.965c-4.967,4.579-4.343,12.189-4.32,12.414l0.516,12.567
		c0.087,7.479,3.122,12.248,8.118,12.755c2.677,0.277,7.472,0.766,9.563-4.509l12.021,0.31c1.403,4.639,5.449,5.003,8.375,5.003
		c0.286,0,0.562-0.004,0.823-0.007c2.188-0.027,4.192-0.945,5.797-2.655c2.007-2.14,3.24-5.437,3.205-8.51l0.646-15.996
		C51.735,16.65,51.991,12.466,49.37,9.457z M47.689,16.973c-0.005,0.049-0.009,0.098-0.011,0.146l-0.625,15.496
		c-0.031,0.156-0.043,0.319-0.034,0.486c0.003,0.062,0.005,0.124,0.007,0.186l-0.027,0.681c-0.002,0.053-0.003,0.103-0.001,0.155
		c-0.16,1.83-0.956,3.768-2.093,4.979c-0.854,0.911-1.84,1.376-2.93,1.39c-4.232,0.046-5.169-0.496-5.548-3.235
		c-0.135-0.97-0.951-1.712-1.93-1.735l-15.09-0.412c-0.018,0-0.035,0-0.053,0c-0.917,0-1.72,0.648-1.94,1.543
		c-0.713,2.886-1.792,3.481-5.767,3.069c-3.265-0.331-4.478-4.774-4.526-8.881L6.599,18.117c-0.006-0.059-0.436-6.005,3.042-9.211
		c2.172-2.003,5.541-2.635,10.014-1.882c10.399,3.031,14.127,3.157,22.258,3.433l0.267,0.009c1.891,0.045,3.252,0.569,4.162,1.603
		C47.985,13.938,47.691,16.952,47.689,16.973z"/>
</g>
</svg>
