<?xml version="1.0" encoding="UTF-8" standalone="no"?>
<!-- Credit: FontAwesome <http://fortawesome.github.io/Font-Awesome/> -->
<svg version="1.1" xmlns:svg="http://www.w3.org/2000/svg" xmlns="http://www.w3.org/2000/svg" viewBox="0 0 20 20">
  <path d="M 0,7.2098369 V 16.071426 Q 0,16.80804 0.52455282,17.332589 1.0491058,17.85714 1.7857118,17.85714 l 16.4285492,0 q 0.736605,0 1.261158,-0.524596 0.524551,-0.524596 0.524551,-1.261164 V 7.2097911 q -0.491068,0.546851 -1.127231,0.9709789 -4.040174,2.745529 -5.546868,3.850442 -0.636155,0.468729 -1.032364,0.731027 -0.396203,0.262298 -1.054686,0.535677 -0.658483,0.273473 -1.227677,0.273473 H 9.9999707 9.988797 q -0.5691978,0 -1.2276767,-0.273473 Q 8.1026395,13.024445 7.7064351,12.762239 7.3102304,12.499941 6.6740704,12.031212 4.7767791,10.658488 1.1160699,8.180816 0.47991004,7.7455513 0,7.2098369 z M 0,3.9285838 q 0,0.881684 0.54687425,1.685274 0.54687425,0.8035625 1.36160525,1.3727601 4.1964228,2.9129461 5.223207,3.6272321 0.1116067,0.07785 0.4743299,0.340419 0.3627232,0.262298 0.6026782,0.424128 0.2399551,0.16183 0.5803564,0.362766 0.3404013,0.200937 0.6417408,0.301314 0.3013405,0.100468 0.5580336,0.100468 h 0.011174 0.011174 q 0.256693,0 0.558033,-0.100468 0.301341,-0.100468 0.641742,-0.301314 0.340402,-0.200936 0.580353,-0.362766 0.239952,-0.16183 0.602681,-0.424128 0.36272,-0.262297 0.474334,-0.340419 Q 13.88394,9.899582 15.792419,8.577019 17.700898,7.2544752 18.080362,6.9866179 18.772329,6.5178884 19.386164,5.6975568 20,4.8772345 20,4.1741218 20,3.3036112 19.53683,2.723231 19.073659,2.14286 18.214287,2.14286 l -16.4285485,0 q -0.7254455,0 -1.25557872,0.5245045 Q 0,3.1919788 0,3.9285838 z" />
</svg>
