<?xml version="1.0" encoding="UTF-8" standalone="no"?>
<!-- Credit: FontAwesome <http://fortawesome.github.io/Font-Awesome/> -->
<svg xmlns:svg="http://www.w3.org/2000/svg" xmlns="http://www.w3.org/2000/svg" version="1.1" viewBox="0 0 20 20">
  <path d="M 16.666667,10.416667 V 4.1666665 q 0,-0.3385417 -0.247396,-0.5859375 Q 16.171875,3.3333331 15.833333,3.3333331 H 9.5833333 q -0.546875,0 -0.7682291,0.5078125 Q 8.59375,4.3749998 8.9973958,4.752604 l 1.8750002,1.875 -6.9531252,6.953125 q -0.2473958,0.247396 -0.2473958,0.585938 0,0.338541 0.2473958,0.585937 l 1.328125,1.328125 q 0.2473959,0.247396 0.5859375,0.247396 0.3385417,0 0.5859375,-0.247396 l 6.9531252,-6.9531249 1.875,1.8749999 Q 15.481771,11.25 15.833333,11.25 q 0.15625,0 0.325521,-0.0651 0.507813,-0.221354 0.507813,-0.768229 z M 20,3.7499998 V 16.25 q 0,1.549479 -1.10026,2.64974 Q 17.799479,20 16.25,20 H 3.75 Q 2.2005208,20 1.1002604,18.89974 0,17.799479 0,16.25 V 3.7499998 Q 0,2.2005206 1.1002604,1.1002602 2.2005208,-1.953125e-7 3.75,-1.953125e-7 h 12.5 q 1.549479,0 2.64974,1.1002603953125 Q 20,2.2005206 20,3.7499998 z" />
</svg>
