<?xml version="1.0" encoding="UTF-8" standalone="no"?>
<!-- Credit: FontAwesome <http://fortawesome.github.io/Font-Awesome/> -->
<svg xmlns:svg="http://www.w3.org/2000/svg" xmlns="http://www.w3.org/2000/svg" version="1.1" viewBox="0 0 20 20">
  <path d="m 20,10.000001 q 0,3.268229 -1.907552,5.878906 -1.907552,2.610677 -4.928385,3.613281 -0.351563,0.0651 -0.514323,-0.09115 -0.162761,-0.15625 -0.162761,-0.390625 v -2.747396 q 0,-1.263021 -0.677083,-1.848958 0.742187,-0.07813 1.334635,-0.234375 0.592448,-0.15625 1.223959,-0.507812 0.63151,-0.351563 1.054687,-0.865886 0.423177,-0.514323 0.690104,-1.367187 0.266927,-0.852865 0.266927,-1.9596361 0,-1.5755208 -1.028645,-2.6822916 Q 15.833333,5.6119752 15.247396,4.140621 14.882813,4.0234335 14.192708,4.2838502 13.502604,4.5442668 12.994792,4.8567668 L 12.5,5.1692708 Q 11.289063,4.8307292 10,4.8307292 q -1.2890625,0 -2.5,0.3385416 Q 7.2916667,5.0260417 6.9466146,4.8177083 6.6015625,4.609375 5.859375,4.3164062 5.1171875,4.0234375 4.7395833,4.140625 4.1666667,5.6119792 4.6484375,6.7968753 3.6197917,7.9036461 3.6197917,9.4791669 q 0,1.1067711 0.2669271,1.9531251 0.266927,0.846354 0.6835937,1.367188 0.4166667,0.520833 1.0481771,0.872396 0.6315104,0.351562 1.2239583,0.507812 0.5924479,0.15625 1.3346354,0.234375 -0.5208333,0.46875 -0.6380208,1.341146 -0.2734375,0.130208 -0.5859375,0.195312 -0.3125,0.0651 -0.7421875,0.0651 -0.4296875,0 -0.8528646,-0.279947 Q 4.9348958,15.45573 4.6354167,14.921875 4.3880208,14.505209 4.0039062,14.244792 3.6197917,13.984376 3.359375,13.932292 l -0.2604167,-0.03906 q -0.2734375,0 -0.3776041,0.05859 -0.1041667,0.05859 -0.065104,0.14974 0.039063,0.09115 0.1171875,0.182292 0.078125,0.09114 0.1692708,0.15625 l 0.091146,0.0651 q 0.2864583,0.130208 0.5664062,0.494791 0.2799479,0.364584 0.4101563,0.664063 l 0.1302083,0.299479 q 0.1692708,0.494792 0.5729167,0.800781 0.4036458,0.30599 0.8723958,0.390625 0.46875,0.08464 0.9049479,0.09115 0.4361979,0.0065 0.7226563,-0.04557 l 0.2994791,-0.05208 q 0,0.494792 0.00651,1.158854 0.00651,0.664063 0.00651,0.703125 0,0.234375 -0.1692709,0.390625 Q 7.1875,19.557292 6.8359375,19.492188 3.8151042,18.489584 1.9075521,15.878907 0,13.26823 0,10.000001 0,7.2786461 1.3411458,4.9804687 2.6822917,2.6822917 4.9804687,1.3411458 7.2786458,0 10,0 12.721354,0 15.019531,1.3411458 17.317708,2.6822917 18.658854,4.9804687 20,7.2786461 20,10.000001 z" />
</svg>
