<?xml version="1.0" encoding="UTF-8" standalone="no"?>
<!-- Credit: FontAwesome <http://fortawesome.github.io/Font-Awesome/> -->
<svg xmlns:svg="http://www.w3.org/2000/svg" xmlns="http://www.w3.org/2000/svg" version="1.1" viewBox="0 0 20 20">
  <path d="m 20,3.8071066 q -0.850254,1.2436548 -2.055838,2.1192893 0.01269,0.177665 0.01269,0.532995 0,1.6497461 -0.482234,3.2931475 -0.482233,1.6434006 -1.465736,3.1535526 -0.983502,1.510152 -2.34137,2.67132 -1.357868,1.161167 -3.274112,1.852792 -1.9162426,0.691624 -4.0989838,0.691624 -3.4390863,0 -6.2944162,-1.840102 0.44416244,0.05076 0.98984772,0.05076 2.85532998,0 5.08883248,-1.751269 -1.3324873,-0.02538 -2.3857868,-0.818528 -1.0532995,-0.793147 -1.4467005,-2.024112 0.4187817,0.06345 0.7741117,0.06345 0.5456852,0 1.0786802,-0.139594 Q 2.677665,11.370558 1.7449239,10.247462 0.81218274,9.1243654 0.81218274,7.6395939 V 7.5888325 Q 1.6751269,8.071066 2.6649746,8.109137 1.8274112,7.5507614 1.3324873,6.6497462 0.83756345,5.748731 0.83756345,4.6954315 q 0,-1.1167513 0.55837565,-2.068528 1.535533,1.890863 3.7373096,3.0266498 2.2017767,1.1357868 4.714467,1.2626903 -0.1015228,-0.4822335 -0.1015228,-0.9390863 0,-1.7005076 1.1992381,-2.8997461 1.199239,-1.1992386 2.899747,-1.1992386 1.776649,0 2.994924,1.2944162 Q 18.22335,2.9060914 19.441624,2.1827411 18.972081,3.642132 17.639594,4.4416244 18.819797,4.3147208 20,3.8071066 z" />
</svg>
