<?xml version="1.0" standalone="no"?>
<!DOCTYPE svg PUBLIC "-//W3C//DTD SVG 1.1//EN" "http://www.w3.org/Graphics/SVG/1.1/DTD/svg11.dtd" >
<svg xmlns="http://www.w3.org/2000/svg">
<metadata>
This is a custom SVG webfont generated by Font Squirrel.
Copyright   :  Fleisch  Apostrophic Laboratories All rights reserved Loosely based on 1916 lettering by Elizabeth Colwell  apostrofemailcom
Designer    : Fleisch  Apostrophe
Foundry URL : httpmembershomecomapostrophe
</metadata>
<defs>
<font id="ColwellRegular" horiz-adv-x="1820" >
<font-face units-per-em="2048" ascent="1638" descent="-410" />
<missing-glyph horiz-adv-x="614" />
<glyph unicode=" "  horiz-adv-x="614" />
<glyph unicode="&#x09;" horiz-adv-x="614" />
<glyph unicode="&#xa0;" horiz-adv-x="614" />
<glyph unicode="!" horiz-adv-x="444" d="M100 70q-8 29 6.5 48t36.5 34q33 20 72 20q29 0 52.5 -10t37.5 -28.5t14 -45.5q0 -25 -20 -55q-10 -29 -34.5 -37t-51.5 -8q-47 0 -75 17.5t-38 64.5zM135 1378h2l2 -2q4 4 15.5 25.5t17.5 30.5q33 41 74 45t80 -31q8 -16 18 -31.5t21 -30.5q-16 -117 -36 -234.5 t-40 -234.5q-10 -55 -17.5 -111t-7.5 -112v-250q0 -25 -2 -54.5t-7 -56t-13.5 -44t-20.5 -17.5t-17 24.5t-5 55.5t1 60.5t1 40.5q12 217 -8.5 424.5t-47.5 424.5q-2 16 -3 39t-7 39z" />
<glyph unicode="&#x22;" horiz-adv-x="587" d="M39 1546q-8 49 24.5 80t75.5 34t80 -23.5t37 -92.5q0 -10 -9 -22l-16 -21q-27 -33 -36 -64.5t-19 -72.5q0 -8 -7 -31.5t-13 -40.5q-8 -20 -12.5 -11t-4.5 17q-6 18 -11 37t-9 37l-25 98q-6 29 -31 39q-22 8 -24 37zM307 1559q0 43 32 69.5t71 31.5t74.5 -13.5t43.5 -67.5 q0 -4 1 -6t1 -6q2 -10 -5 -25.5t-13 -25.5q-8 -10 -14 -21.5t-15 -24.5q-4 -6 -13 -36.5t-19.5 -67.5t-19.5 -69.5t-13 -45.5q-2 0 -4 8.5t-3 18.5t-2 19l-1 10q-6 16 -10.5 34.5t-8.5 34.5q-6 23 -11 47.5t-13 46.5q-4 14 -14.5 25.5t-19.5 21t-16.5 19t-7.5 23.5z" />
<glyph unicode="#" horiz-adv-x="1083" d="M72 471q12 18 16 39.5t5 44.5t5 44.5t17 39.5q23 -4 56.5 -7t76.5 -7q25 59 47 118.5t43 112.5q-47 -4 -84 -9t-55 -5q12 18 16 39.5t5 44t5 44t17 40.5q23 -4 62.5 -7.5t86.5 -7.5q14 35 23.5 59.5t13.5 35.5q8 27 14.5 62.5t12.5 74.5t12 76.5t16 68.5q4 -37 21.5 -49 t39 -16t42.5 -4q23 0 37 -13q-4 -12 -16.5 -40.5t-30 -68.5t-39 -90.5t-43.5 -103.5q8 0 18 -1t37 -1q29 0 79 1t142 3q16 47 29.5 79t17.5 46q8 27 14.5 62.5t12.5 74.5t12 77t16 69q4 -37 21.5 -49.5t39 -16.5t42.5 -4q23 0 37 -12q-4 -12 -15.5 -41t-29 -71t-40 -92 t-46.5 -105q39 4 72.5 8t58.5 6q-12 -16 -16.5 -36.5t-4.5 -43.5q0 -20 -1 -40.5t-9 -39.5q-29 0 -70 2t-90 6q-29 -68 -55.5 -130t-46.5 -109q47 8 91 13t75 7q-12 -16 -16.5 -36.5t-4.5 -43.5q0 -20 -1 -40.5t-9 -39.5q-31 0 -80 3.5t-104 7.5q-10 -37 -22 -85l-22 -97 q-11 -48 -21.5 -88t-16.5 -58q-12 39 -32.5 54.5t-78.5 23.5q8 16 36 86t67 168q-10 2 -25 2h-31h-78q-41 0 -84 -3t-75 -7q-10 -35 -22.5 -85.5t-25 -102.5t-23.5 -96t-17 -65q-12 39 -33 54.5t-78 23.5q8 16 37 88t68 170q-41 -4 -73 -8t-48 -4zM342 614l283 2 q27 66 52 132.5t48 125.5h-47q-37 0 -83 -1t-89 -2t-64 -3q-29 -70 -53 -136.5t-47 -117.5z" />
<glyph unicode="$" horiz-adv-x="884" d="M70 143q14 94 131 86q66 -6 78 -69q6 -25 -3 -39q-8 -20 -6 -39q0 -41 49 -49q14 -6 46 -2q10 100 2.5 195.5t-2.5 205.5q-27 8 -58 15.5t-69 15.5q-154 47 -150 176q0 117 88 192q16 14 54 49t108 70v13l-12 22q-8 35 -12.5 79t-8.5 73q18 -31 37.5 -35t38 3t37 17.5 t37.5 5.5v-22q0 -23 2 -59.5t2 -65.5q29 8 51 1t45 -3q74 8 127 -57q55 -61 55 -140q0 -37 -34.5 -69.5t-77.5 -28.5q-66 6 -101 96l43 92q-47 12 -86 19h-24q-4 -70 -6 -151t-7 -158q37 -6 86.5 -23.5t114.5 -34.5q170 -68 174 -219q0 -100 -45 -151q-61 -68 -140 -105 t-177 -49q2 -20 9 -49t15 -58.5t14.5 -52t6.5 -30.5q-14 14 -25.5 23t-26 12t-34 1t-49.5 -10v23v41q0 23 -1 48t-1 48h-48q-10 0 -22 1t-25 3l-26 2q-76 6 -94 14q-39 14 -61.5 50t-18.5 77zM238 717q0 -33 12 -47q31 -43 115 -70q-2 29 -3 51v45v72q0 61 -8 109 q-16 -8 -32.5 -19.5t-32.5 -28.5q-51 -51 -51 -112zM437 312q-1 -40 1 -54q4 -61 19 -143q33 -8 20 -60q109 37 170 144q16 29 17 53q-4 106 -152 145q-35 4 -72 15q-2 -60 -3 -100z" />
<glyph unicode="%" horiz-adv-x="1243" d="M33 1229q0 143 106 241q92 80 209 80q86 0 161 -42t112 -119q35 -76 22.5 -161t-55.5 -155q-84 -133 -236 -133q-82 0 -147.5 22.5t-116.5 88.5q-55 76 -55 178zM119 12q6 12 43 76t91 161t122.5 219t139.5 248t139.5 248.5t124 222t91 166t43.5 81.5q12 27 23.5 61.5 t22 71.5t21.5 72.5t24 66.5q0 -37 15 -51.5t36.5 -20.5t43 -9t34.5 -17q-6 -12 -42 -73.5t-89.5 -155t-121 -208t-137 -233.5t-136 -233.5t-120 -206.5t-88 -153.5t-41.5 -76.5q-14 -29 -34.5 -79t-40 -103t-38 -99t-28.5 -67q-8 41 -24.5 58.5t-73.5 33.5zM137 1272 q0 -96 45 -174q27 -45 75 -69.5t97 -24.5q88 0 142 65q25 31 34 68t7 75.5t-11.5 76.5t-23.5 73q-18 43 -55 80t-85 43q-12 2 -24 3t-23 1q-35 0 -68.5 -10.5t-56.5 -40.5q-29 -35 -41 -78t-12 -88zM582 365q0 143 106 241q92 80 209 80q86 0 161 -42t111 -120 q35 -76 23 -160.5t-55 -154.5q-84 -133 -236 -133q-82 0 -147.5 22.5t-116.5 87.5q-55 77 -55 179zM686 408q0 -96 45 -175q27 -45 75 -69.5t97 -24.5q88 0 141 66q25 31 34 67.5t7 75.5t-11 77t-23 73q-18 43 -55.5 79.5t-84.5 43.5q-12 2 -24.5 3t-22.5 1 q-35 0 -68.5 -10.5t-56.5 -41.5q-29 -35 -41 -77.5t-12 -87.5z" />
<glyph unicode="&#x26;" horiz-adv-x="1667" d="M43 582q0 98 27.5 181t79 151.5t122 123t154.5 97.5q-92 111 -164 236.5t-137 254.5h846q4 -25 11 -55.5t17 -52.5q10 -25 30 -43.5t46 -24.5l8 -20q-98 -12 -169.5 24.5t-131.5 114.5q-37 -10 -78.5 -11.5t-87 1t-89.5 5.5t-87 3q-57 0 -100 -15q53 -111 131 -212 t147 -205q-55 -6 -112 -29t-107.5 -58.5t-89.5 -82.5t-57 -103q-41 -123 -47 -255t47 -255q74 115 159 225.5t184 209t211 180.5t238 137q59 27 122 42t128 15q90 0 150.5 -30.5t96.5 -84t50.5 -124t14.5 -150.5q0 -143 -42 -272t-134 -242q-119 -147 -269.5 -225 t-343.5 -78q-225 0 -416 94q-168 82 -263 211t-95 322zM426 315q0 -23 2 -58.5t12 -57.5q27 -53 77 -84t104 -47q98 -31 202 -31q111 0 208 39t186 98q86 59 145 137t88 183q16 55 26.5 117.5t8.5 124t-18.5 120.5t-53.5 109q-47 61 -112.5 85.5t-136 20.5t-140.5 -29.5 t-125 -62.5q-84 -55 -169 -125t-152.5 -153t-109.5 -179t-42 -207z" />
<glyph unicode="'" horiz-adv-x="321" d="M39 1475q-8 49 24.5 79.5t75.5 33.5t80 -23.5t37 -91.5q0 -10 -9 -23l-16 -20q-27 -33 -36 -65t-19 -73q0 -8 -7 -31.5t-13 -39.5q-8 -20 -12.5 -11t-4.5 17q-6 18 -11 36.5t-9 36.5l-25 99q-6 29 -31 39q-22 8 -24 37z" />
<glyph unicode="(" horiz-adv-x="710" d="M139 786q0 180 30 337t98.5 287t184 232.5t287.5 174.5l21 -35q-133 -43 -219 -147.5t-137.5 -241t-72 -292t-20.5 -300.5q0 -156 16.5 -308.5t64.5 -286.5t137 -240.5t235 -172.5l-21 -33q-170 74 -285.5 175.5t-186 230.5t-101.5 283.5t-31 336.5z" />
<glyph unicode=")" horiz-adv-x="608" d="M-70 -207q145 66 234.5 172.5t137.5 240.5t64.5 286.5t16.5 308.5q0 145 -20.5 300.5t-71.5 292t-138 241t-219 147.5l21 35q172 -72 287.5 -174.5t184.5 -232.5t98.5 -286.5t29.5 -337.5q0 -182 -30.5 -336.5t-101.5 -283.5t-186.5 -230.5t-285.5 -175.5z" />
<glyph unicode="*" horiz-adv-x="743" d="M41 1436q20 2 36.5 14t32.5 27l30 28q15 14 34 21q27 -29 68 -60.5t88 -74.5q-2 86 -3 150.5t-1 82.5q16 -12 32.5 -7t32 14t31.5 15.5t35 -1.5q0 -4 -1 -30t-2 -61.5t-2 -78.5t-1 -82q41 33 89 64.5t76 64.5q2 -20 14.5 -38t28 -33t29.5 -30.5t21 -34.5q-18 -16 -48 -26 t-64 -21.5t-69.5 -28t-66.5 -46.5q33 -31 70.5 -58.5t71.5 -51.5t61.5 -42t42.5 -33q-23 -4 -40.5 -16t-35 -27.5t-34.5 -28t-38 -16.5q-23 23 -52.5 62t-62.5 73q-20 25 -32.5 42.5t-21.5 21.5t-21.5 -7.5t-32.5 -43.5q-55 -53 -104.5 -92t-71.5 -62q-4 20 -16.5 38.5 t-28 36t-27.5 36t-16 39.5q16 12 42.5 22t59.5 24.5t69 34t70 50.5q-31 27 -68.5 49t-75.5 42.5t-71.5 39.5t-56.5 39z" />
<glyph unicode="+" horiz-adv-x="995" d="M84 647q12 18 16 40t5 44.5t5.5 44t16.5 39.5q20 -2 54 -6t75 -7t88 -7t94 -7q-2 39 -8 91.5t-14 103.5t-14.5 97t-8.5 77q16 -12 37 -16t41 -4q23 0 43.5 -1t38.5 -10q0 -25 -1 -64.5t-3 -86.5t-4 -97.5t-4 -93.5q37 2 86 8.5t99 12.5t95 12t76 8q-12 -16 -16 -36.5 t-4 -43.5q0 -20 -1.5 -40.5t-9.5 -38.5q-25 0 -62.5 2t-81.5 5t-91 6t-90 3q2 -47 8 -103.5t12 -110.5t11.5 -98t5.5 -65q-18 12 -40 16.5t-44.5 5.5t-44 5t-39.5 16q2 20 5 58t6 83.5t7 95.5t8 97q-47 -2 -101 -8t-103.5 -12.5t-89.5 -10.5t-58 -4z" />
<glyph unicode="," horiz-adv-x="292" d="M31 104q-10 39 9 62.5t50 35t65.5 8.5t55.5 -17q45 -33 50 -84.5t-12.5 -106.5t-51 -107.5t-67.5 -88t-59.5 -47t-27.5 15.5l20 20q53 59 73 99t21 66t-6.5 39t-7.5 19q-47 0 -74.5 19.5t-37.5 66.5z" />
<glyph unicode="-" horiz-adv-x="634" d="M61 561q12 18 16.5 40t5.5 44.5t5 44t16 39.5q53 -4 121 -23.5t135 -19.5q57 0 102.5 14.5t110.5 18.5q-12 -16 -16 -36.5t-4 -43.5q0 -20 -1 -40.5t-9 -39.5q-59 2 -125 14.5t-125 12.5q-63 0 -124 -11.5t-108 -13.5z" />
<glyph unicode="." horiz-adv-x="292" d="M6 92q0 37 23.5 55.5t54.5 30.5q8 4 24.5 10.5t24.5 6.5q18 0 33.5 -11.5t28.5 -23.5q10 -10 22 -26.5t12 -33.5q0 -4 -3 -13t-7 -18.5t-8 -17.5t-6 -10q-10 -29 -42 -40t-67 -5t-62.5 29.5t-27.5 66.5z" />
<glyph unicode="/" horiz-adv-x="796" d="M-4 -47q6 12 33.5 79.5t69.5 171t94.5 233.5t105.5 264.5t105.5 264.5t94.5 235.5t69.5 176t33.5 86.5q8 27 14.5 63t12.5 74.5t12 76.5t16 69q4 -37 21.5 -49t39 -16.5t42.5 -4.5q23 0 37 -12q-4 -14 -31 -79.5t-68 -164t-93 -220.5t-105.5 -249t-105.5 -248.5t-94 -220 t-68.5 -165t-30.5 -80.5q-10 -31 -23.5 -82.5t-28 -106.5t-25.5 -103t-18 -71q-12 39 -32.5 54.5t-77.5 23.5z" />
<glyph unicode="0" horiz-adv-x="1124" d="M70 457q0 238 172 391q147 129 336 129q139 0 258.5 -68.5t181.5 -193.5q29 -61 37 -127t0 -132.5t-32 -130t-58 -118.5q-133 -215 -381 -215q-129 0 -235.5 37t-188.5 143q-47 63 -68.5 135t-21.5 150zM240 526q0 -74 18 -146.5t53 -131.5q41 -72 120 -113t159 -41 q139 0 225 107q39 49 54.5 108.5t12.5 122t-18.5 124.5t-38.5 118q-29 70 -88 128t-137 70q-18 2 -37.5 3.5t-38.5 1.5q-57 0 -110.5 -16.5t-89.5 -63.5q-43 -55 -63.5 -126t-20.5 -145z" />
<glyph unicode="1" horiz-adv-x="555" d="M45 27q29 6 68 21t59 38q8 10 13 29.5t8.5 41t4.5 42t1 32.5q0 59 -2 121t-2 121v334q-8 8 -29 8q-14 0 -29.5 -1t-32.5 -1q-16 0 -30 6v39q23 12 48 22.5t50 20.5q45 16 88 33.5t86 34.5v-809q12 -29 26.5 -65t51.5 -40q8 0 21.5 -1t26.5 -5t22.5 -11t11.5 -17.5 t-9.5 -16.5t-26.5 -10t-29.5 -6t-20.5 -2q-10 0 -21 2l-20 4q-20 2 -40 3t-40 1q-59 0 -120.5 -5t-121.5 -5q-10 10 -11 19.5t-1 21.5z" />
<glyph unicode="2" horiz-adv-x="849" d="M56 17.5q1 11.5 9.5 21.5t19.5 20.5t17 16.5l132 132q75 75 141.5 160t113 175t46.5 176q0 23 -4.5 58.5t-12.5 53.5q-6 14 -22.5 31t-37 30t-42 22.5t-35.5 11.5q-4 0 -20.5 -2t-20.5 -2q-45 -8 -84 -29t-55 -66l12 -180q-10 -23 -26.5 -11.5t-26.5 21.5q-35 41 -35 97 q0 12 3 30.5t7 39t9.5 38t11.5 27.5q2 4 15 18.5t17 18.5q45 45 99.5 70.5t120.5 25.5h12q94 0 159.5 -30.5t100.5 -123.5q23 -61 19.5 -121.5t-29.5 -119.5q-2 -4 -16.5 -37t-27 -60.5t-14.5 -31.5q-29 -35 -52 -56.5t-54 -56.5l-211 -223l10 -12q37 10 76 8t78 -2 q45 0 92 2t89 14t78 38t60 73h17q-6 -72 -29 -146t-49 -139l-82 20q-35 -4 -72 -6t-71 -2q-104 0 -212 2t-212 -14q-13 8 -12 19.5z" />
<glyph unicode="3" horiz-adv-x="874" d="M-36 -417q5 9 16.5 18.5t23.5 15.5t19 8q12 4 24 5t25 5l57 17q29 8 57 18q217 82 359 260q14 18 27.5 37t23.5 39q8 14 14 35.5t9.5 44.5t5.5 45.5t2 38.5q0 53 -13.5 97t-46.5 85q-8 12 -26.5 22.5t-41 19.5t-44 15.5t-33.5 8.5q-16 2 -40 -5t-49.5 -18.5t-48 -24 t-34.5 -18.5q-16 27 -8 48.5t24 43.5q10 16 21 31l20 29l244 323q-61 -14 -129 -3.5t-131 10.5q-47 0 -90 -15.5t-72 -56.5q-6 -10 -9 -20.5t-9 -18.5q-4 -6 -16.5 -15.5t-22.5 -0.5q0 35 7 67.5t16 64t17.5 64.5t8.5 68l24 16q160 -10 321 -3t320 11 q-86 -123 -165.5 -240.5t-174.5 -234.5q88 8 157 -13.5t132 -84.5q55 -55 67.5 -126t-4 -143.5t-53 -140t-77.5 -118.5q-59 -78 -132 -139.5t-165 -100.5q-43 -18 -94.5 -36.5t-104.5 -32t-106.5 -19.5t-100.5 0q-6 8 -1 17z" />
<glyph unicode="4" horiz-adv-x="1378" d="M35 342q109 109 212 224.5t205 232.5l202 233q101 117 208 230h19l-13 -809l17 -13q53 -10 110.5 -9t109.5 16.5t97 46t76 79.5q6 20 25 35q10 0 18 -5t14 -11q-16 -68 -45.5 -130.5t-68.5 -119.5q-172 0 -340 6q0 -6 1 -12t1 -12v2q-4 -16 -4 -21v-18q-4 -20 -5.5 -40 t-3.5 -40q-2 -4 -2 -23v-20q0 -41 20.5 -76t65.5 -41q6 -2 17 -2h16q16 0 31 -14q0 -27 -17 -37q-215 18 -428 0q-6 4 -8 13t-2 18q12 10 41 21t45 15q8 2 20.5 8.5t25 14.5t21.5 18.5t9 20.5v219h-690zM238 436l475 13q0 119 2 247.5t-15 247.5q-55 -49 -102 -106.5 t-93 -114.5t-95.5 -112.5t-106.5 -100.5q-8 -18 -35.5 -36t-29.5 -38z" />
<glyph unicode="5" horiz-adv-x="933" d="M-49 -344q0 14 3 25.5t21 11.5q14 0 29.5 -2t30.5 -6q35 -6 64.5 -12.5t64.5 -6.5q88 0 182 34t162 89q92 76 137 188.5t45 229.5v37q0 8 -1 17t-3 20q-2 16 -7 30.5t-9 30.5q-27 74 -73 131t-124 80q-41 12 -80 12q-41 0 -77.5 -12t-72.5 -31.5t-71 -42t-68 -41.5 q-12 14 -12 35q0 29 10.5 60.5t6.5 60.5q-4 45 2 95t14 100.5t16.5 99.5t8.5 96l24 -10l455 -10q20 0 41.5 12t41 28.5t37 36t29.5 31.5l25 -4q-14 -66 -31 -129l-33 -127h-516l-20 -195q61 23 133 35.5t143.5 7t136 -30t111.5 -77.5q68 -76 99.5 -165t31.5 -189 q0 -135 -59.5 -243t-157.5 -194q-98 -88 -211 -137t-248 -49q-63 0 -124.5 16.5t-106.5 63.5z" />
<glyph unicode="6" horiz-adv-x="962" d="M68 506q0 193 57 355.5t168 316.5q70 98 153.5 188t200.5 137l12 -16q-2 -18 -13 -32.5t-26.5 -27t-31 -23.5t-27.5 -24q-162 -180 -260 -392t-98 -453q0 -66 7 -130.5t26 -125.5q16 -57 53 -93t90 -59q57 -25 125 -25q82 0 152.5 41t105.5 117q25 57 20.5 120.5t-34 117 t-81 87t-118.5 33.5q-10 0 -28.5 -1t-28.5 -5q-4 -2 -13.5 -8t-13.5 -8q-37 -27 -61.5 -62.5t-41.5 -76.5q-2 0 -10 3t-10 3q-4 31 2 63.5t14.5 65.5t17.5 65.5t11 65.5q31 29 69 40t79 11t80.5 -10t76.5 -25q51 -20 89 -57t62.5 -84t36 -100.5t11.5 -106.5q0 -98 -39 -177 t-107 -144q-37 -35 -82 -54.5t-93 -27.5t-98 -5t-97 11q-86 16 -158 71.5t-100 141.5q-49 143 -49 299z" />
<glyph unicode="7" horiz-adv-x="886" d="M80 692q0 41 6 79t16 79q10 39 21.5 79t15.5 81l17 28h532q12 0 24.5 12.5t27 28t30.5 28.5t39 13v-41l-444 -1081q-31 -78 -60 -159t-33 -167q14 -12 33 -17t36 -12.5t29.5 -19.5t12.5 -37l-47 -28l-242 10q4 20 7 40.5t10 41.5q4 18 19 46t24 46q27 55 51 110.5 t51 112.5q80 180 155.5 357.5t149.5 363.5q0 23 7 44.5t15.5 42t15.5 39.5t7 40q-49 6 -99 10t-99 4q-16 0 -43 -2t-56.5 -5t-55.5 -7t-40 -10q-35 -20 -54.5 -66.5t-31.5 -83.5h-47z" />
<glyph unicode="8" horiz-adv-x="915" d="M76 324q0 61 21.5 109t62.5 93q35 41 80 75t86 67q-66 59 -105 131.5t-39 165.5q0 131 77 194.5t200 75.5q61 6 117.5 -5t99.5 -41t69.5 -78t26.5 -116q0 -25 -9 -54.5t-23.5 -60t-30 -59t-27.5 -49.5l-74 -57q39 -20 82 -49t78 -66t59.5 -79t28.5 -91q20 -209 -84 -331 t-315 -122q-59 0 -115.5 10.5t-110.5 35.5q-47 20 -76.5 51.5t-47 71.5t-24.5 85.5t-7 92.5zM229.5 359.5q-10.5 -72.5 12 -136t77 -105.5t138.5 -42q88 0 147.5 34.5t88 88t26.5 117t-37 121t-101.5 100.5t-166.5 55q-37 -20 -71 -42t-58 -56q-45 -62 -55.5 -134.5z M315 950q0 -37 18.5 -65.5t45.5 -50.5q23 -23 52.5 -40.5t55.5 -33.5q72 31 118 83t46 134q0 76 -52 118t-124 42q-96 0 -128 -50.5t-32 -136.5z" />
<glyph unicode="9" horiz-adv-x="964" d="M70 559q0 47 10 94t35 88q66 111 165 173.5t230 62.5q23 0 50.5 -3t49.5 -11q18 -6 37 -16.5t35 -20.5q63 -37 106 -81t78 -110q14 -29 22.5 -54.5t12.5 -55.5q4 -25 7 -64t3 -61q0 -29 -10 -86q-20 -109 -69.5 -223.5t-123 -213t-169 -171t-205.5 -95.5q29 35 62.5 58.5 t68.5 50.5q68 49 121 118.5t90 149.5t56.5 166t19.5 168q0 94 -26 187t-91 165q-31 35 -79 64.5t-95 29.5q-61 0 -128 -31.5t-104 -82.5q-16 -23 -25 -62t-9 -67q0 -61 14 -103.5t61 -83.5q23 -18 57.5 -43.5t63.5 -29.5q68 -8 133.5 5t122.5 54q14 -8 15.5 -21.5t1.5 -25.5 q-47 -37 -84 -84t-78 -88q-53 0 -109.5 7t-110 25.5t-97.5 51.5t-70 84q-45 82 -45 186z" />
<glyph unicode=":" horiz-adv-x="423" d="M137 78q-8 49 31 76q16 10 42 21t42 18q14 6 33.5 -2.5t36 -23.5t27.5 -33.5t11 -33.5q0 -8 -10 -30.5t-14 -28.5q-10 -25 -40 -37t-63.5 -9t-61.5 23.5t-34 59.5zM143 811q-4 25 5.5 44t27 32.5t40 23t42.5 15.5q20 4 37.5 -6.5t32.5 -22.5q16 -12 27.5 -29.5 t11.5 -38.5q0 -18 -10.5 -36.5t-27 -34t-36 -24.5t-37.5 -9q-45 0 -75 19.5t-38 66.5z" />
<glyph unicode=";" horiz-adv-x="372" d="M92 811q-4 25 5 44t26.5 32.5t40 23t43.5 15.5q20 4 37.5 -6.5t31.5 -22.5q16 -12 27.5 -29.5t11.5 -38.5q0 -18 -10 -36.5t-26.5 -34t-36 -24.5t-37.5 -9q-45 0 -75 19.5t-38 66.5zM94 92q-10 39 9.5 62.5t50 35t65.5 8.5t55 -18q16 -12 30.5 -28.5t12.5 -38.5 q-8 -113 -32.5 -178.5t-56 -100.5t-64.5 -49t-58 -23l21 21q53 59 72.5 99t20.5 65.5t-6 39t-7 19.5q-47 0 -75 19.5t-38 66.5z" />
<glyph unicode="&#x3c;" horiz-adv-x="858" d="M74 614q18 16 69.5 64.5t117 112t139 136t136 137t107.5 115t55 70.5l121 -170q-8 -14 -56 -52t-116.5 -88t-146.5 -104.5t-146.5 -101.5t-118 -79.5t-59.5 -39.5q14 -8 65.5 -41.5t119 -82t143.5 -102.5t142.5 -103t113.5 -87t57 -53l-117 -145l-2 2q-12 20 -56 66.5 t-105.5 105.5t-132 126t-136 128t-117.5 110t-77 76z" />
<glyph unicode="=" horiz-adv-x="1024" d="M119 352q12 18 16 40t5 44.5t5.5 44t16.5 39.5q20 -2 54 -6t75 -7t88 -7t94 -6l102 -5q37 2 86.5 8.5t99.5 12.5t95 12t76 8q-12 -16 -16.5 -36.5t-4.5 -42.5q0 -20 -1 -41t-9 -39q-25 0 -62.5 2t-81.5 5t-91.5 6t-90.5 3q-18 2 -30 2h-17h-8q2 0 10 -1l9 -1h-15h-53 q-47 -2 -101.5 -8t-103.5 -12.5t-89 -10.5t-58 -4zM139 743q12 18 16.5 40t5.5 44.5t5 44t16 39.5q20 -2 54 -6t75 -7t88 -7t95 -6l102 -4q37 2 86 8t99 12t95.5 12.5t75.5 8.5q-12 -16 -16 -37t-4 -43q0 -20 -1 -41t-9 -39q-25 0 -63 2t-82 5t-91 6t-90 3q-16 2 -29 2h-18 h-8q2 0 10 -1l8 -1h-14h-53q-47 -2 -101.5 -8t-103.5 -12t-89.5 -10.5t-58.5 -4.5z" />
<glyph unicode="&#x3e;" horiz-adv-x="858" d="M74 1079l121 170q10 -20 55 -70.5t107.5 -115t136 -137t139 -136t117 -111.5t69.5 -65q-25 -27 -77 -76t-117.5 -110t-136 -128t-132 -126t-105.5 -105t-56 -67l-2 -2l-117 145q8 14 55 52.5t113.5 88.5t143.5 104t145.5 101.5t118.5 81t65 41.5q-10 6 -59.5 39t-118 80 t-146.5 101.5t-146.5 104.5t-116.5 88t-56 52z" />
<glyph unicode="?" horiz-adv-x="991" d="M51 1036q0 76 33 147.5t87 130t124 99.5t145 57q98 18 195.5 -3t175.5 -83q129 -102 129 -260q0 -102 -50 -166.5t-130 -119.5l-264 -185q-59 -41 -98.5 -97t-39.5 -132q0 -10 9 -10q20 0 41.5 14t56.5 6q18 -12 35.5 -29.5t17.5 -42.5q0 -31 -27.5 -52t-56.5 -21 q-59 0 -105 39t-46 102q0 59 35.5 115.5t72.5 97.5q16 27 31 35l215 178q16 14 42 38t49.5 50.5t40.5 54t17 52.5q0 115 -57 186.5t-141 100t-180.5 11t-174.5 -80.5q-53 -43 -83.5 -97.5t-30.5 -123.5q6 2 18.5 10t26.5 16t26.5 15.5t18.5 7.5q45 0 59.5 -34t14.5 -69 q0 -25 -12.5 -39t-30 -21t-39 -10t-39.5 -3q-8 0 -16.5 9t-16.5 20.5t-15.5 21.5t-13.5 14q-2 4 -10 11l-16 15q-8 7 -15.5 14t-7.5 11zM293 96q0 35 25.5 53.5t54.5 28.5q8 4 24.5 10.5t24.5 6.5q14 0 31.5 -9.5t32 -24t23.5 -30.5t9 -31q0 -16 -8 -30l-16 -29 q-16 -29 -36 -37t-50 -8q-47 0 -81 23.5t-34 76.5z" />
<glyph unicode="@" horiz-adv-x="1714" d="M57 764q-2 109 20.5 219.5t71 212.5t120 191.5t169 155t220 103t272.5 35.5q193 0 333 -64.5t230 -167.5t133 -233.5t43 -261.5q-8 -141 -55 -257.5t-123 -201.5t-176.5 -136.5t-214.5 -61.5q-55 -4 -82 34t-39 83q-92 -63 -191.5 -92t-199.5 -25q-16 0 -33.5 11 t-35 26.5t-33 32t-23.5 26.5q-12 41 -4 88t29.5 95.5t53 92.5t66.5 76q104 92 221 132.5t240 40.5q31 37 39 81q6 31 3 72t-17 68q-12 25 -45 34t-74 9q-39 0 -78 -7.5t-66 -17.5q-10 -4 -22 -12t-14 -21q2 -10 6 -17t8 -15q4 -6 10 -17.5t2 -19.5q-4 -18 -17 -29.5 t-30.5 -18t-37 -10.5t-34.5 -8q-4 6 -9 17.5t-11 24.5t-10 25.5t-4 20.5q2 14 16 29q10 10 26 20l27 19q143 94 293 94q55 0 103.5 -15.5t83.5 -54.5q20 -61 19 -134.5t-13.5 -150.5t-29.5 -153t-30 -143l-8 -37q-6 -31 -11 -73t-1 -56q2 -23 22.5 -30t38.5 -7 q70 0 137.5 46t122 124t88 181.5t33.5 217.5q0 102 -31.5 216t-108.5 209.5t-206 157.5t-321 62q-170 0 -312.5 -64.5t-246 -178t-162 -266t-58.5 -326.5q0 -178 59.5 -306t168.5 -229q104 -98 245.5 -167.5t315.5 -69.5q438 0 671 309l41 -6q-29 -49 -57.5 -84t-59 -62.5 t-66.5 -52t-79 -53.5q-203 -100 -452 -100q-195 0 -354.5 56t-274.5 161.5t-177.5 258t-62.5 345.5zM624.5 566q-6.5 -38 1 -71.5t28 -61t53.5 -40.5q2 -2 14 -2h16q47 0 93.5 13.5t89.5 48.5q68 59 98.5 137t34.5 155q2 37 -18.5 59.5t-51.5 33t-68.5 11.5t-68.5 -3 q-25 -14 -53.5 -40t-55 -55.5t-49 -59t-37.5 -54.5q-20 -33 -26.5 -71z" />
<glyph unicode="A" horiz-adv-x="1900" d="M-2 12q10 12 35.5 27.5t54.5 30t37 16.5q49 88 91 182t85 187q76 160 151.5 317.5t157.5 317.5q53 104 119 217.5t139 201.5q25 29 54.5 58.5t63.5 50t73 28.5q13 2 26 2q27 0 56 -10l16 -67q-16 18 -50 21t-54 -7q-16 -10 -30.5 -34.5t-10.5 -45.5q4 -31 10 -63.5 t14 -63.5q2 -8 13.5 -33.5t24.5 -56.5t26.5 -58.5t19.5 -39.5q100 -231 209 -455q78 -160 165 -314.5t187 -301.5q12 -10 31 -22.5t38 -23t39.5 -17.5t39.5 -7v-53h-483l-7 22q2 16 27 23.5t52.5 13.5t50 15.5t22.5 31.5q0 16 -12.5 41t-28.5 50.5t-32.5 48t-26.5 34.5 q-47 66 -123 66h-64h-33q-20 0 -30 2q-61 2 -122 3t-120 1h-242q-78 0 -152.5 -5t-152.5 -11q-35 -61 -67.5 -117.5t-32.5 -128.5q14 -18 37.5 -20.5t47 -3.5t41 -11t17.5 -43q0 -10 -24.5 -12t-44.5 -2h-19q-16 2 -35 2h-36h-74q-37 0 -74 1t-72 3q-21 0 -21 7q0 2 3 5z M393 416q229 -9 459 -9l459 9q0 8 -16.5 48t-41 94t-54.5 116.5t-56.5 118t-45 94.5t-22.5 49q-23 49 -44 108.5t-43.5 119t-48.5 114.5t-56 96q-150 -229 -267 -466.5t-223 -491.5z" />
<glyph unicode="B" horiz-adv-x="1423" d="M-2 2v51q59 0 117.5 12.5t91.5 69.5q10 141 12 277.5t2 277.5q0 156 -3 310.5t-11 310.5q0 14 -1 48t-3 69.5t-4 66.5t-4 41q-6 31 -33 37t-55.5 9t-50 11.5t-19.5 38.5q63 -9 135 -9h14q80 1 163 6t165 11.5t154 6.5q125 0 248.5 -30t224.5 -110q10 -8 32.5 -28.5 t28.5 -30.5q12 -18 21.5 -44t15.5 -53.5t9 -54t3 -47.5q0 -57 -25.5 -104t-63.5 -86t-84 -72t-87 -61q94 -27 186.5 -73t143.5 -134q18 -35 25.5 -73t7.5 -77q0 -98 -43 -183t-101 -157q-10 -12 -22 -26.5t-25 -26.5q-16 -16 -36.5 -29.5t-39.5 -23.5 q-129 -76 -279.5 -101.5t-297.5 -25.5q-104 0 -203.5 2t-204.5 6q-27 2 -52 1t-52 -3zM379 156l63 -76q91 -25 177 -26q73 0 143 19q152 40 287 150q45 39 74.5 94.5t39.5 114.5q6 37 7 76q0 23 -3 46q-6 62 -30 118q-68 145 -230 176q-18 4 -36.5 5t-36.5 3q-20 2 -38 4 t-38 2h-76q-45 0 -76 8q-4 4 -4 13q0 16 4 35.5t15 27.5h22q92 0 186.5 21.5t163.5 87.5q8 6 22.5 21.5t18.5 23.5q12 27 20.5 78t8.5 84q0 55 -14.5 107t-49.5 95q-4 4 -13 15.5t-13 13.5l-35 17l-47 24l-47 24q-23 11 -33 15q-10 2 -39 5t-62.5 6t-65.5 5t-46 2 q-63 0 -120.5 -20.5t-98.5 -71.5v-1343z" />
<glyph unicode="C" horiz-adv-x="1638" d="M0 778q0 160 57.5 298t161.5 261q274 317 696 318q53 0 105.5 -6.5t105.5 -16.5q61 -10 132 -37.5t130.5 -69.5t101.5 -99.5t48 -129.5v-12q0 -54 -33 -92q-37 -43 -100 -43q-61 0 -95 28q-37 30 -38 72q0 33 22 65q25 36 80 52q-35 66 -85 108t-111.5 66.5t-129 33.5 t-135.5 9q-104 0 -201.5 -21.5t-183.5 -78.5q-170 -113 -242.5 -280t-72.5 -365q0 -129 29.5 -250t109.5 -226q117 -143 269.5 -205.5t332.5 -62.5q111 0 213.5 30t188.5 101q51 41 92 91.5t70 109.5q14 16 35.5 13t33.5 -19q-49 -117 -131 -201t-183.5 -137t-216.5 -76 q-91 -18 -183 -18q-25 0 -51 2q-118 6 -232.5 42t-212.5 99q-168 109 -272.5 275.5t-104.5 371.5z" />
<glyph unicode="D" horiz-adv-x="1773" d="M0 2q0 6 8 14q25 10 55.5 20.5t58.5 25t48 36t25 54.5q2 12 1 26.5t-1 26.5q0 41 1 80t1 80q2 29 2 55v55v109q0 53 1 108.5t3 110.5q2 10 2 20v21v43v84l-4 461q0 82 -74 129q-10 6 -23 6q-16 0 -38.5 -11.5t-32.5 -11.5q-12 0 -17.5 10.5t-7.5 20.5l21 53q23 -2 45 -2 h47h94h563q104 0 202.5 -10t197.5 -39q72 -20 158.5 -52t146.5 -77q123 -92 171 -223t48 -281q0 -106 -21 -196q-31 -164 -121 -291t-215.5 -219.5t-276 -150.5t-302.5 -85q-104 -16 -203 -16q-30 0 -59 2q-127 6 -262 6q-53 0 -106.5 -4t-106.5 -13q-4 8 -12.5 14.5 t-16.5 10.5zM369 180q0 -27 2 -28q10 -29 25.5 -43.5t41.5 -24.5q45 -16 102.5 -20.5t104.5 -4.5q117 0 226.5 29t209.5 88q96 57 178 134t142.5 171t94.5 200.5t34 221.5q0 141 -55.5 252t-146.5 191.5t-210 132t-246 75.5q-66 12 -132 15.5t-132 3.5q-59 0 -116.5 -17.5 t-98.5 -64.5q-18 -242 -21 -476.5t-3 -475.5v-359z" />
<glyph unicode="E" horiz-adv-x="1667" d="M10 90q12 2 26.5 -6t31 -17.5t33 -13.5t34.5 6l51 60q18 358 26 703q3 142 3 287q0 207 -6 419q-10 20 -29.5 35.5t-42 21.5t-46 2t-40.5 -20q-23 10 -18.5 36.5t12.5 43.5l1108 -21q14 -35 35.5 -67.5t43 -64.5t40 -65.5t28.5 -70.5q-25 8 -55.5 38.5t-62 64.5t-62 61.5 t-57.5 29.5q-25 2 -73 6.5t-106.5 8.5t-124 8t-124.5 5q-30 1 -57 1t-52 -1q-49 -1 -75 -7q-29 -6 -49.5 -34t-24.5 -56.5t-2 -60t0 -60.5q0 -57 -1 -114.5t-1 -117.5q0 -45 1 -89t3 -89q98 -37 202 -40q44 -1 88 -1q58 0 115 2q37 2 91 5q14 1 26 0q37 0 64 -5 q20 10 32.5 38t12.5 57q0 12 -4 28v27q0 25 7 46t31 21q20 0 29 -8v-479q-2 -2 -8 -2h-8q-39 0 -51.5 29.5t16.5 54.5q-8 31 -23.5 66.5t-44.5 52.5q-2 0 -7 3t-7 3h-545q-34 -80 -34 -170v-5q0 -19 1 -37q0 -73 -4 -142q-2 -49 -3 -97.5t-1 -95.5t3 -94t7 -96l37 -33 q214 -15 428.5 -15t429.5 15q45 29 84 73t76 89t76 84t88 59l14 -14q-78 -72 -117.5 -173.5t-60.5 -201.5q-61 4 -125 4q-32 0 -64 -1q-97 -3 -190 -3q-47 0 -94 2t-94 2h-162h-80h-41q-18 0 -39 -2q-129 -2 -256 -5q-42 -1 -84 -1q-85 0 -172 4q-18 16 -17 38q-1 24 11 56z " />
<glyph unicode="F" horiz-adv-x="1517" d="M0 954q4 20 4 25v27q0 12 5 22t22 16h8q49 0 78.5 30t48 73t33 89t34.5 79q51 82 125 148.5t162 112.5t184.5 71.5t192.5 25.5q55 0 119.5 -12t128 -35.5t119 -56.5t92.5 -76q55 -63 80 -144q9 -30 9 -61q0 -50 -26 -100q-10 -20 -26.5 -37.5t-40.5 -17.5q-18 0 -40 3 t-38 9q-23 10 -41.5 39.5t-18.5 54.5q0 27 27 46.5t51.5 38.5t31.5 44q1 4 1 8q0 22 -33 54q-43 41 -90 74.5t-102 56.5q-72 29 -152 36q-32 3 -64 4q-48 0 -94 -8q-79 -12 -153 -46t-131 -89q-106 -104 -160 -236q-32 -80 -32 -166q0 -56 14 -114l37 -29h481q25 10 26.5 39 t1.5 58t8.5 47t45.5 8v-430h-51v61v35q0 12 -1 17l-2 4q0 29 -9 56.5t-31 45.5q-23 8 -50.5 5t-60.5 -3q-94 0 -198.5 -5t-190.5 -5l-27 -37q-4 -88 -6 -175t-2 -175q0 -86 2 -167t12 -167q14 -29 44 -39t63 -17.5t60.5 -20.5t37.5 -48q-25 -1 -50 -1l-126 4q-88 5 -176 5 q-29 0 -57.5 -1t-57.5 -7q-4 18 -7 37.5t13 36.5q12 -4 23 -4q20 0 39.5 11t19.5 28v788q-4 2 -6 4t-6 4q-27 16 -41 19.5t-43 3.5q-31 -1 -43 26z" />
<glyph unicode="G" horiz-adv-x="1806" d="M53 848v25q0 108 32 207q36 112 102.5 207t157.5 170t200 124q92 41 190.5 57.5t196.5 16.5q111 0 217 -26.5t192 -98.5h21q23 18 18.5 48t-18.5 52q10 10 24 10h31q25 -231 88 -444q-35 -14 -55 10.5t-35 50.5q-12 29 -23.5 53.5t-29.5 49.5q-16 20 -29.5 38.5 t-29.5 37.5q-74 78 -167.5 113.5t-199.5 35.5q-135 0 -255 -37t-218 -129q-125 -113 -191 -266q-4 -10 -10 -24.5t-8 -26.5q-10 -53 -18.5 -105.5t-18.5 -105.5l25 -12q94 2 186 2h186h373q373 0 748 -13q4 -16 12 -30.5t16 -26.5q-25 -4 -54.5 -8t-47.5 -23 q-20 -20 -33.5 -51t-15.5 -57q-2 -23 1 -45.5t3 -44.5v-129q0 -27 2 -33q2 -12 5 -40t7 -38q8 -33 26.5 -75t35.5 -70q-16 -6 -37 -7.5t-41 -1.5h-37q-16 0 -29 -6q-10 -6 -22.5 -17t-22.5 -18q-20 -16 -39.5 -28.5t-42.5 -24.5q-104 -57 -217.5 -81.5t-230.5 -24.5 q-125 0 -248 23.5t-240 74.5q-121 53 -201.5 132t-132 177.5t-74 213t-24.5 239.5zM242 791q-7 -44 -7 -86q0 -61 14 -119q24 -98 81 -191q104 -166 268 -255t363 -89q86 0 165.5 14.5t157.5 49.5q55 25 92 62.5t58.5 83.5t31 99.5t9.5 110.5q0 33 -1 65.5t-4 65.5 q-2 6 -2 23v22v47q0 8 1 18.5t-1 18.5q-4 18 -14 29.5t-24.5 18.5t-30 14.5t-27.5 17.5l-493 -6q-49 -1 -98 -1l-242 7q-25 2 -50.5 4t-50.5 6q-10 2 -23.5 4t-25.5 2h-41q-29 0 -57.5 -6.5t-48.5 -29.5z" />
<glyph unicode="H" horiz-adv-x="1726" d="M8 1634q70 17 143 17h16q81 -2 161 -4v-488q68 74 144.5 136.5t161.5 108.5t178 71.5t196 25.5q55 0 120.5 -10t114.5 -35q18 -10 35 -22l33 -25q94 -78 130 -190.5t38 -231.5l8 -864q0 -12 12 -22.5t29.5 -17.5t34 -12t24.5 -8q27 -6 49.5 -19t18.5 -48l-484 4v43 q16 2 38 3t42.5 6t37 14.5t22.5 27.5q0 131 -1 261t-1 261q0 119 -7.5 237t-23.5 234q-2 16 -4 35t-6 35q-8 25 -27.5 57.5t-46.5 63.5t-55.5 54.5t-55.5 31.5q-29 10 -77 13t-78 3q-207 0 -345.5 -108.5t-211.5 -286.5q-12 -31 -23.5 -72t-21 -84t-16.5 -85t-9 -74 q-2 -29 -2 -57.5t2 -57.5q4 -57 8 -113q4 -86 10 -170q3 -36 3 -72q0 -48 -5 -98q8 -20 35 -23t54.5 -7t49 -17.5t19.5 -54.5h-461l6 57q29 0 64 3t57 20l27 53l-6 1389q-23 35 -65 53q-20 9 -39 9q-22 0 -44 -11z" />
<glyph unicode="I" horiz-adv-x="634" d="M51 1630h529q2 0 12 -3t12 -3q4 -10 -3 -28.5t-11 -28.5q-16 -8 -51 -8h-41q-29 0 -58.5 -11.5t-42.5 -40.5v-32q0 -23 -1 -48.5t-1 -50.5v-43q2 0 4 -4t1 -27.5t-4 -73.5t-9 -145v-20q0 -10 2 -40t5 -86t9 -155q0 -47 2.5 -93t2.5 -93t-1 -95t-1 -95q0 -12 4 -31 q1 -6 1 -17q0 -22 -5 -63q-4 -18 -7.5 -31.5t-5.5 -28t-3 -33t-1 -46.5q2 4 7 -4.5t5 -28.5q12 -29 42 -40t59 -11h41q35 0 51 -9q4 -10 11 -28q5 -12 5 -20q0 -5 -2 -9q-2 0 -12 -3t-12 -3h-529q0 20 3 47t28 31q4 0 7 -2t7 -2q10 -2 18.5 -3t14.5 -1q33 0 63.5 17t36.5 52 q10 29 15 21v33q0 186 -1 364t-5 365v59q0 23 1 40t1 34v28v39v54q0 31 -2 75q-2 18 -3 51t-3.5 69t-3.5 69t-3 51q-6 35 -36.5 52.5t-63.5 17.5q-6 0 -14.5 -1t-18.5 -4q-4 0 -7 -2t-7 -2q-25 4 -28 31t-3 47z" />
<glyph unicode="J" horiz-adv-x="1576" d="M0 477q0 18 3 53t9 52q6 18 20.5 39.5t33 40t40 31t41.5 12.5q49 0 67.5 -31t18.5 -76q0 -72 -73 -80q-16 -2 -31.5 3t-30.5 3q-23 -4 -30 -21.5t-7 -37.5v-27q0 -61 22.5 -111.5t59.5 -91t84 -73.5t97 -58q45 -23 101 -28.5t105 -5.5q293 0 502 221q66 70 107 163 t49 191q2 27 4 75t5 107.5t5 127t2 137.5t-1 134t-5 118.5t-10 92.5t-17 56q-10 49 -37.5 65.5t-66.5 16.5h-27h-14q-6 0 -14 -2q-4 4 -7.5 18.5t1.5 20.5q2 27 26 26h490q14 -29 14 -71q-10 -4 -27.5 -5t-38.5 -1q-18 0 -39.5 -1t-35.5 -8q-41 -16 -43 -55 q-10 -127 -15.5 -237.5t-7.5 -219.5q-1 -43 -1 -87q0 -66 2 -134q3 -113 9 -244q4 -37 25.5 -40t44.5 -3t36 -9t1 -54q-70 -29 -133.5 -78t-116.5 -100q-72 -70 -139.5 -124t-139 -91t-154.5 -56.5t-188 -19.5q-106 0 -209.5 29.5t-184.5 90t-131 149.5t-50 208z" />
<glyph unicode="K" horiz-adv-x="1830" d="M1 19q5 19 7 28l-4 12q12 8 29.5 10.5t37 3.5t38 4t32.5 13l31 66l21 1364q0 41 -33 48t-64 7q-2 -2 -18 -2q-14 0 -30.5 5t-16.5 24q0 25 14 38h473q-4 -10 -5 -32.5t-1 -34.5h-41q-33 0 -67.5 -9.5t-38.5 -43.5q-4 -25 -6.5 -60t-2.5 -71v-134q0 -59 2 -120.5 t13 -120.5q14 -12 28 -13q12 0 47 20.5t81 51.5t97.5 68t96.5 69.5t77.5 57t43.5 30.5q86 61 169 129t154 146l-94 16q0 4 1 14.5t3 19.5t6 16.5t13 7.5l419 -7q4 -10 5.5 -36.5t1.5 -36.5q-45 12 -88 12q-35 0 -67 -8q-73 -18 -142 -64q-49 -33 -95.5 -71.5t-91.5 -75.5 q-111 -92 -239.5 -174t-245.5 -162q-27 -23 -58.5 -63.5t-31.5 -79.5q104 -27 192 -81.5t167 -125t153 -149.5t149 -154q66 -72 133.5 -138.5t143.5 -126.5q10 -6 18 -14t19 -12q10 -6 36.5 -16.5t57.5 -17.5t57.5 -11t38.5 2q-8 27 -8 63q0 23 12 49.5t39 30.5q18 4 45 -5 t37 -25q0 -25 5 -49q3 -13 3 -26q0 -11 -2 -22q-25 -35 -65.5 -46t-81.5 -11q-115 0 -216.5 38t-193.5 101.5t-176 144t-163 166.5t-154.5 170t-151.5 154q-35 33 -89 47q-24 6 -46 6q-29 0 -55 -10l-25 -31q0 -86 -5 -171t-7 -169q-1 -34 -1 -67q0 -50 2 -101 q3 -84 19 -168q20 -20 50 -25t58.5 -11.5t54.5 -18.5t38 -49q-16 -6 -53 -6t-52 6q-88 -3 -174 -3h-43q-106 1 -217 1q-11 0 -10 11q0 3 1 8z" />
<glyph unicode="L" horiz-adv-x="1468" d="M4 57q37 8 56.5 14.5t30.5 17.5t20.5 30.5t25.5 54.5q2 132 3 263q0 218 -7 430q-10 341 -20 694q-18 16 -46 25t-30 40q0 6 1 11t3 12q4 2 33 2q35 0 79 -3t62 -3q27 -2 58.5 -4.5t64.5 -2.5q68 0 121 17q10 -10 9 -31.5t-1 -34.5q-16 -8 -45 -8h-45q-23 0 -44.5 -4 t-37.5 -23q-17 -244 -17 -493q0 -104 3 -208q10 -355 30 -701q43 -27 91 -33q32 -4 66 -4q16 0 33 1q50 3 101 8q28 3 57 3l46 -2q98 -8 197 -17.5t200 -9.5q16 0 48 1t65.5 4t64.5 8.5t43 11.5q23 10 32 37.5t-7 48.5q-8 8 -19 8q-16 0 -31.5 -9t-27.5 -9q-10 0 -10 22 q0 14 16 25.5t37.5 15.5t45 -2t38.5 -27v-11q0 -59 -37 -110q-41 -56 -103 -75q-104 -31 -207 -39q-46 -4 -93 -4q-58 0 -115 6l-420 37q-23 2 -46.5 3t-45.5 1q-154 0 -318 -53q-13 9 -12 26q0 8 4 43z" />
<glyph unicode="M" horiz-adv-x="2516" d="M10 1610q20 12 52 14q21 1 44 1h23q35 -1 68.5 -5t58.5 -4q31 0 66 6q4 -10 4 -29q0 -18 -2 -40.5t-5.5 -48t-3.5 -48.5q0 -31 13 -55q106 111 235 171t283 60q27 0 61.5 -3t70.5 -10t69.5 -18.5t56.5 -25.5q35 -27 69.5 -61.5t47.5 -77.5q23 14 47 27.5t49 27.5 q51 29 101 56.5t102.5 50t106.5 36t114 13.5q111 0 205 -38t163 -126q12 -14 25.5 -32.5t22.5 -35.5q4 -12 7 -26.5t7 -28.5q27 -117 35 -236.5t8 -238.5v-62v-28q0 -20 -2 -31q-4 -106 -6 -212t-2 -212q0 -57 -1 -117v-11q0 -54 9 -106q23 -29 60.5 -36t72.5 -7h47 q7 -7 7 -25q0 -8 -0.5 -22t-0.5 -16q-13 -16 -31 -16q-7 0 -15 3q-28 9 -48 9h-199h-24q-16 0 -27 -2q-10 0 -24.5 -2t-20.5 -2h-20q-20 0 -47 1t-33 5q-4 0 -5 20.5t-1 32.5v12q31 0 65 -1h4q32 0 60 16l22 65l-31 1114q0 37 -14 74t-37.5 71t-51.5 62.5t-54 48.5 q-20 12 -31.5 21.5t-40.5 13.5q-27 6 -59.5 8t-48.5 2q-129 0 -238 -49t-201 -135q12 -70 16.5 -141.5t4.5 -140.5v-977q20 -18 43.5 -32.5t52.5 -19.5q35 8 56.5 1t21.5 -50l-31 -16q-110 3 -219 3t-217 -3q-14 10 -12 31.5t6 35.5q15 -2 28 -2q22 0 39 7q27 10 62 32 l20 47q-6 137 -6 273q0 209 -1 412.5t-24 408.5l-12 14q-113 -102 -211 -204.5t-186 -211t-168 -226t-154 -248.5q-16 -29 -30.5 -70t-18.5 -83q-1 -12 -1 -24q0 -29 7 -57q10 -39 43 -61q10 -2 20.5 -3t20.5 -1q29 0 51.5 -8.5t22.5 -53.5h-428q-18 14 -10 31.5t18 34.5 q10 -2 17.5 -3t11.5 -1q31 0 58.5 18t27.5 53l-6 1336q0 31 -15.5 66.5t-52.5 35.5q-16 0 -31.5 -7t-31.5 -7t-17.5 19.5t-1.5 29.5zM313 408q168 242 352.5 471t395.5 434q-4 20 -15.5 45.5t-25.5 52.5t-29.5 50.5t-29.5 39.5q-35 37 -93.5 54.5t-105.5 17.5 q-66 0 -125 -21.5t-110.5 -58.5t-91.5 -87t-64 -108q-33 -76 -43.5 -148.5t-10.5 -164.5t5.5 -194.5t5.5 -182.5q0 -49 -2.5 -101t-12.5 -99z" />
<glyph unicode="N" horiz-adv-x="1599" d="M0 1581l6 66q25 0 58.5 -3.5t70.5 -6.5t75 -5t71 -2q53 0 79 8v-245q100 129 235.5 185t297.5 56q39 0 98.5 -4t95.5 -14q14 -4 28.5 -12.5t27.5 -16.5q68 -41 111.5 -103.5t68.5 -135.5q29 -86 36 -188.5t7 -194.5l-6 -813q10 -23 22.5 -51.5t40.5 -37.5q2 2 9 3h8 q33 0 46 -5.5t17 -14.5t7 -22.5t18 -27.5q-57 7 -114 6h-28q-70 -2 -141 -2h-190q-4 10 -5 35.5t-1 36.5q12 2 34.5 5t44 9t39 17.5t19.5 27.5q4 20 2 52t-2 55q0 61 2 122.5t6 122.5q6 100 11 233q2 55 2 110q0 78 -4 156q-7 134 -30.5 258t-74.5 210q-25 37 -57.5 61.5 t-70.5 38t-80 18.5t-85 5q-35 0 -86 -8.5t-84 -22.5q-23 -10 -46.5 -26.5t-43.5 -32.5q-66 -55 -107 -127t-64.5 -153t-32.5 -166t-9 -165q0 -43 2 -86l4 -86q8 -147 9 -291.5t5 -291.5q10 -25 37 -31t54.5 -8t49 -10.5t21.5 -34.5v-15q0 -10 -2 -12q-227 0 -455 -6 q-4 4 -8 13.5t-7 19.5t-4 20t3 17v8q10 6 29.5 7t41 3t38 9t20.5 28q2 10 3 31.5t1 46.5t1 48t1 36q4 98 5 196.5t3 196.5q1 137 2 270q0 67 -1 133q-1 199 -5 404q-8 10 -11 23.5t-7 25.5t-11.5 22.5t-21.5 16.5q-14 8 -47 -1t-57 -9q-15 0 -25 16z" />
<glyph unicode="O" d="M0 797q0 135 35 258t115 233q143 199 340.5 290t439.5 91q197 0 360.5 -90t274 -235.5t155.5 -327.5q24 -95 24 -192q0 -87 -20 -175q-8 -37 -17 -75.5t-26 -73.5q-55 -119 -146 -212t-203.5 -156.5t-239.5 -97.5t-254 -34h-37q-123 0 -232.5 36t-210.5 101 q-358 230 -358 660zM167 757q13 -157 87 -302.5t205 -257.5q86 -72 191.5 -94.5t209.5 -22.5q78 0 140.5 7t116.5 27.5t104.5 56.5t105.5 93q123 123 193.5 269.5t70.5 326.5q0 154 -51 289t-143 236.5t-222.5 160t-287.5 58.5q-162 0 -294 -58.5t-237 -187.5 q-109 -133 -155 -289q-37 -121 -37 -243q0 -34 3 -69z" />
<glyph unicode="P" horiz-adv-x="1312" d="M0 1634l18 6q68 -6 135 -9q29 -1 57 -1q38 0 77 2q78 2 170 8.5t190 6.5t187.5 -12.5t160.5 -43.5q137 -61 209 -194q6 -14 13.5 -27.5t11.5 -28.5q8 -29 10 -61.5t2 -60.5q0 -92 -26.5 -172t-88.5 -146q-80 -84 -168 -138t-183 -88t-198.5 -53.5t-211.5 -33.5 q-10 -43 -13.5 -106.5t-3.5 -131.5t1 -129t1 -98q12 -29 42 -40t59 -11h41q35 0 51 -9q4 -10 11 -28.5t3 -28.5q-2 0 -12 -3t-13 -3h-528q0 20 3 47t28 31q4 0 7 -2t7 -2q10 -2 18.5 -3t14.5 -1q33 0 63.5 17t36.5 52t7 73t6 75l8 94q4 47 4 94q0 186 -1 369.5t-5 369.5 q-2 10 -2 23v23v45v45v24q0 12 -2 23q0 16 2 40.5t-2 41t-10.5 30t-12.5 25.5q-14 25 -30.5 36t-45.5 7q-2 0 -15 -2t-29.5 -4t-31 -3t-16.5 1q-4 14 -5 31.5t-1 33.5zM362 1075q0 -47 2.5 -93t2.5 -93t-1 -95.5t-1 -95.5q0 -18 17 -27t34 -12q6 -1 13 -1t14 1q15 2 30 5 q86 10 170 34.5t160 69.5q121 72 194.5 172t73.5 246q0 86 -29.5 160.5t-80.5 140.5l-162 90q-4 2 -19 2q-14 0 -18 2q-41 4 -88 9q-39 4 -79 5l-15 -1q-47 -1 -91.5 -13t-78.5 -43q-31 -117 -39.5 -230.5t-8.5 -232.5z" />
<glyph unicode="Q" horiz-adv-x="1816" d="M0 770q0 199 77 360.5t224 292.5q135 119 294 170.5t339 51.5q59 0 117.5 -4.5t115.5 -18.5q74 -18 152 -58t147.5 -95.5t125 -122t85.5 -138.5q61 -147 81 -294q8 -59 8 -116q0 -85 -17 -166q-29 -136 -107.5 -257t-214.5 -217q-98 -72 -214.5 -114t-239.5 -42 q-25 0 -57.5 -1t-57.5 3q-23 4 -35 10t-24.5 7.5t-30.5 -7t-51 -32.5q-35 -23 -77 -51.5t-82 -57.5t-72.5 -52.5t-49.5 -35.5q-57 -41 -114.5 -80t-116.5 -78q129 35 252 64.5t258 29.5q92 0 164.5 -7t140 -20t138.5 -30.5t157 -38.5q72 -16 143.5 -29.5t143.5 -23.5 q17 -3 32 -3q25 0 44 8q32 13 61 50q8 -16 1 -32.5t-20 -26.5l19 10q-29 -23 -61.5 -37t-67.5 -14q-47 0 -92 1t-93 7q-111 16 -218 34.5t-218 35.5q-121 16 -247 27q-73 7 -145 7q-53 0 -105 -4q-125 -8 -243 -42.5t-222 -112.5q-6 16 -1 24l15 25l9 12q9 12 11 15 q47 45 101.5 85t107.5 80q106 78 214 151t218 144q-231 33 -415 168q-147 111 -217 255.5t-70 330.5zM164 809q0 -39 2 -82t9 -87t20.5 -86t33.5 -75q29 -47 73 -79.5t96.5 -53t107.5 -30t108 -9.5q16 0 41 1t51.5 3t50 5t40.5 6q51 6 95 14t86 19.5t84 25.5t89 33 q29 10 55.5 18t57.5 10q-29 -47 -85.5 -97t-121 -99t-129 -96.5t-109.5 -86.5q29 -6 54.5 -8t54.5 -2q180 0 318 72t233 227q66 111 96.5 232t30.5 250q0 156 -46.5 292t-133.5 236t-215 158.5t-289 58.5q-170 0 -310.5 -57.5t-240 -158.5t-153.5 -243.5t-54 -310.5z M332 322q61 -61 106 -99.5t91 -63t100.5 -43t136.5 -42.5l405 303q-135 -47 -297.5 -76t-304.5 -29q-59 0 -118.5 23t-118.5 27z" />
<glyph unicode="R" horiz-adv-x="1544" d="M19 1573q-7 6 -7 15q0 12 11 30q39 -4 77.5 -7t77.5 -3q80 0 170 6t189 6q100 0 193 -11.5t167 -45.5q78 -39 136.5 -110t76.5 -157q8 -34 8 -68q0 -20 -3 -41q-7 -56 -26.5 -110.5t-51 -103.5t-68.5 -86q-20 -20 -50 -40t-63 -36t-66.5 -29.5t-60.5 -21.5 q-66 -20 -134.5 -33.5t-135.5 -26.5q111 -37 203 -98t172 -147q41 -41 78.5 -85t76.5 -87q6 -6 29.5 -33t50.5 -57.5t49.5 -55t26.5 -26.5q41 -29 86 -58.5t96 -40.5q4 18 -1 36t-5 36q0 33 25.5 51.5t54.5 18.5q31 0 56.5 -20.5t25.5 -70.5q0 -18 -2 -20 q-25 -41 -81.5 -57.5t-101.5 -16.5q-43 0 -90 12.5t-92 32t-86 44t-74 51.5q-76 59 -141 130.5t-127.5 145.5t-128 144.5t-143.5 127.5q-25 6 -47.5 11.5t-46.5 -4.5q-19 -114 -20 -229q0 -21 1 -42q4 -135 10 -270q23 -45 71 -54q33 -6 64 -7q14 0 27 1q-4 -6 -12 -31.5 t-8 -35.5h-385q-4 57 55 80q33 12 34 30.5t1 47.5v909q0 59 -1 118.5t-3 118.5q0 16 -1 47t-2 63t-3.5 61.5t-4.5 44.5q-4 20 -30 26l-54 12q-27 7 -42 19zM313 815l31 -47q16 -2 31.5 -3t32.5 -1q125 0 232.5 41t193.5 133l34 35q18 18 29 39q16 29 25.5 78t9.5 81 q0 102 -47 203q0 2 -6.5 16.5t-8.5 16.5q-27 29 -53 58.5t-55 58.5q-63 20 -139 25t-142 5q-41 0 -86 -9t-73 -44z" />
<glyph unicode="S" horiz-adv-x="1294" d="M55 1139q-1 7 -1 17q0 18 4 45q7 42 19.5 87t27 84t26.5 55q14 18 36.5 36t41.5 32q209 160 481 160q61 0 125 -8.5t122 -30t107.5 -59t79.5 -95.5q12 -25 13 -49q0 -16 -6.5 -48t-14.5 -46q-8 -16 -24.5 -28.5t-36 -21.5t-40 -13.5t-36.5 -4.5q-6 0 -14.5 1t-18.5 3 q-33 8 -49 22.5t-18 49.5q-1 7 -1 13q0 36 19 68q23 38 70 42q-12 29 -38 52.5t-58.5 41t-66.5 29.5t-63 20q-14 4 -32.5 3t-34.5 -1q-68 0 -132.5 -10t-123 -34.5t-107.5 -65.5t-84 -103q-23 -41 -28 -89q-2 -16 -2 -31q0 -31 8 -62q55 -61 124.5 -101t149.5 -59 q74 -18 159 -33.5t169 -36t160.5 -50t136 -78.5t94.5 -121t35 -174q0 -76 -25 -137q-37 -94 -113.5 -174t-162.5 -132q-188 -109 -406 -114q-15 -1 -30 -1q-45 0 -92 5q-62 6 -119.5 25.5t-106.5 54.5t-82 90q-4 38 -4 69q0 15 1 28q3 40 21.5 65.5t55.5 37t98 11.5 q18 0 38 -16.5t36 -40t26.5 -48t10.5 -41.5q0 -23 -16.5 -37t-32.5 -24q-8 -6 -19.5 -14.5t-18.5 -17.5t-9 -20.5t8 -23.5q29 -35 84 -51t98 -16q90 0 183.5 28.5t173 81.5t139 128t84.5 167q7 30 7 65q0 26 -4 55q-9 67 -48 109q-12 12 -39 29q-78 53 -168 88t-183 58 l-159 40q-80 20 -158 46q-25 8 -48.5 16t-47.5 16q-53 16 -81 49t-50 84l-11 26q-6 16 -8 28z" />
<glyph unicode="T" horiz-adv-x="1976" d="M0 1321q0 68 36 108.5t89 75.5q94 61 210 95t243 47q95 9 194 9q33 0 67 -1q134 -4 265 -19.5t253 -38t226 -45.5q31 10 60.5 24.5t48.5 43.5q5 -26 5 -50q0 -30 -8 -57q-15 -47 -44 -96q-8 -14 -21.5 -37.5t-29 -48t-30 -46t-26.5 -34.5q-8 -8 -29.5 6.5t-33.5 14.5 q18 27 18 53q0 12 -4 25q-12 39 -44 72.5t-73 58t-72 37.5q-78 28 -152 27q-14 0 -28 -1q-88 -6 -168 -41t-147.5 -95t-118.5 -136q-129 -195 -129 -428q0 -201 71.5 -366t250.5 -271q170 -102 370 -103q121 0 214 13.5t167 53.5t134.5 110.5t115.5 185.5l51 -6 q-4 -68 -46 -128.5t-83 -111.5q-16 -18 -36.5 -35.5t-41.5 -33.5q-111 -86 -232.5 -125t-256.5 -39q-45 0 -90 6l-90 12q-109 14 -209.5 56t-184 109t-147 155t-96.5 192q-39 123 -39 273t42 275.5t140 242.5q16 20 30.5 40.5t31.5 41.5q41 47 92 81.5t104 63.5l51 29 q-8 10 -51 13t-96 3q-51 0 -97 -3t-59 -5q-70 -6 -137 -19q-49 -10 -97 -21t-95 -30q-39 -16 -77 -38.5t-61 -61.5q-10 -20 -7 -38.5t3 -39.5q0 -25 -15 -49.5t-34 -24.5q-18 0 -32.5 25t-14.5 45z" />
<glyph unicode="U" horiz-adv-x="1652" d="M55 1581q-4 4 -3 11q0 18 22 59q8 3 19 3h5q14 -1 25 -1q27 0 64.5 -5.5t77.5 -8.5q30 -2 58 -2h18q36 1 58 14l17 -23q-14 -168 -20.5 -321.5t-6.5 -321.5v-463q0 -43 9.5 -105.5t31 -121.5t53 -108.5t78.5 -67.5q53 -23 111.5 -32t115.5 -9q74 0 138.5 31.5t117.5 78.5 q74 68 118 145t67.5 159.5t32 172t10.5 183.5q6 209 6 420q0 43 -1 85t-3 85q-2 35 -14.5 65.5t-45.5 50.5h-77q-35 0 -35 37q0 14 2 17q-10 14 8 23t29 14l327 -17q0 -258 -7 -502.5t-7 -502.5q0 -113 2 -225.5t8 -225.5v-35q0 -12 4 -33q6 -25 28 -29.5t46.5 -6.5t45 -8.5 t22.5 -32.5q0 -4 -1 -10.5t-3 -16.5l-318 -12l-20 20q0 33 2 75t2 85q0 45 -3 86t-12 72h-12q-45 -70 -99 -131.5t-118.5 -106.5t-140.5 -71.5t-164 -26.5h-21q-49 0 -101 7t-101 24.5t-92 44t-76 67.5q-31 35 -44.5 73t-19.5 77q-25 119 -34 238.5t-9 242.5v162q0 41 1 82 t3 82q4 117 9 231q1 19 0 38q0 95 -17 189q-17 29 -51 29h-4q-37 -2 -68 -5t-43 9z" />
<glyph unicode="V" horiz-adv-x="1812" d="M1 1616q5 23 26 39q152 -10 303 -10l303 10q4 -10 5 -37t1 -37q-33 -4 -70 -6t-73.5 -7t-70.5 -16.5t-58 -31.5q-90 -78 -124 -189.5t-34 -224.5q0 -39 2 -78t10 -76q23 -98 77 -175t134 -136q27 -18 54.5 -33.5t56.5 -32.5q53 -31 106 -60.5t107 -57.5 q86 -45 167 -103.5t138 -134.5q-32 183 -32 361v31q3 194 69 386q29 80 68.5 154t86.5 144.5t97.5 138t99.5 137.5q-4 6 -16.5 10t-27.5 7t-29.5 5t-20.5 2q-8 16 -8 33q0 18 14 33h414q18 -12 18 -37l-18 -35q-35 6 -64 19q-55 0 -107.5 -29t-98.5 -71t-85 -90t-67 -89 q-98 -141 -161 -304t-85 -333q-12 -89 -12 -178q0 -81 10 -164q20 -172 86 -332v-22q-14 -8 -31 -8q-16 0 -26.5 12t-18.5 23q-41 55 -103.5 102t-119.5 82q-63 39 -123.5 79t-124.5 79q-104 63 -216 139t-205 169t-152.5 205.5t-59.5 251.5q0 53 10.5 107.5t24.5 105.5 q6 27 21.5 52.5t32 50t28.5 47.5t12 41v12q0 16 -4 28.5t-16 12.5l-111 -16q-11 17 -10 33q0 6 1 12z" />
<glyph unicode="W" horiz-adv-x="2756" d="M39 1669q121 9 241 9q77 0 153 -4q196 -9 394 -13q229 -4 457.5 -6t458.5 -2q31 0 59.5 7t59.5 9q-29 -25 -59.5 -41t-65.5 -31q-41 -16 -59.5 -31.5t-39.5 -54.5l-208 -393q49 -109 92 -219l86 -221q43 -111 88 -219.5t98 -214.5q184 305 330.5 628.5t290.5 649.5 q8 16 -1.5 40.5t-25.5 34.5q-51 0 -100 -6q-4 6 -6.5 20.5t-1.5 30t7.5 24.5t18.5 3h399v-49q0 -16 -10 -23.5t-25.5 -9.5t-32 0t-26.5 2q-23 0 -35 -4t-28 -18q-70 -63 -111 -152l-338 -731q-82 -180 -167 -351t-183 -337q-117 223 -217 448.5t-195 460.5 q-12 -31 -27.5 -60.5t-29.5 -58.5q-29 -53 -56.5 -106t-56.5 -107q-78 -147 -155.5 -292.5t-155.5 -292.5q-86 141 -152.5 294.5t-125.5 307.5l-166 438q-18 47 -38 95t-38 98q-20 53 -37.5 108t-38.5 109q-23 57 -54.5 102t-84.5 74q-29 -6 -44.5 -11.5t-22.5 -2t-10 18.5 t-5 50zM427 1511v-14q0 -13 1 -22q0 -4 6 -21.5t13.5 -39t14.5 -41t9 -25.5q100 -285 212 -555.5t230 -548.5q104 186 197.5 370.5t185.5 376.5q-35 100 -74.5 195.5t-86.5 193.5q-10 23 -24.5 53.5t-29.5 51.5q-6 10 -12 15t-14 13q-55 51 -119 72t-137 25q-27 2 -51.5 3 t-51.5 1h-211q-20 -4 -32.5 -20.5t-18.5 -38t-7 -44.5zM1272 1538q0 -8 18.5 -55t41 -102.5t43.5 -105.5l28 -65q43 78 87 163t66 173q-6 31 -23 44.5t-39 16.5q-11 2 -22.5 1.5t-24.5 -1.5q-26 -3 -46 -5q-23 -2 -45.5 1t-41 -0.5t-30.5 -16.5t-12 -48z" />
<glyph unicode="X" horiz-adv-x="1841" d="M0 37q20 20 51 32.5t60.5 20.5t53 13.5t30.5 11.5q174 150 321.5 323.5t278.5 360.5q-16 10 -46 20t-63 20.5t-64.5 18.5t-50.5 14q-53 14 -111.5 36t-103.5 55q-43 33 -80.5 85t-44.5 107q-2 12 -1 25q0 39 14 83q18 58 47 99l92 123l20 24q10 12 21 27q10 16 6 35.5 t-27 21.5l-73 -20v65q59 2 124.5 6.5t131.5 4.5t130 -9.5t120 -31.5l14 -21q-43 -4 -85 -8t-85 -8h-39q-8 0 -17.5 -1t-19.5 -3q-14 -4 -29.5 -10.5t-29.5 -14.5q-74 -39 -106.5 -101.5t-32.5 -144.5q0 -84 49 -141q35 -41 76.5 -67.5t88 -45t96.5 -32t99 -25.5l129 -33 l535 604q-18 20 -50 15.5t-51 -4.5q-12 0 -12 16q0 14 6 26.5t4 28.5q35 2 71 3l118 -7q94 -10 188 -10q-8 -20 -26.5 -31.5t-40 -15.5t-44 -6t-40.5 -4q-160 -147 -301.5 -308t-284.5 -321q90 -33 183 -66.5t176 -81t149.5 -114t105.5 -164.5q14 -29 15 -78 q0 -39 -15.5 -78t-38 -75.5t-48 -71.5t-48.5 -66q0 -14 3 -35.5t18 -29.5q18 27 39.5 22.5t46.5 -12.5q10 -4 18 -6t18 -6q4 -16 10.5 -38t-3.5 -38q-63 4 -126 7t-128 3q-63 0 -126 -3t-126 -7q-6 10 -11.5 24.5t-3.5 26.5q18 6 58.5 17.5t84.5 24.5t84 30.5t56 36.5 q27 35 49.5 90t22.5 102q0 41 -9 60q-59 182 -237 245q-86 31 -170 57.5t-170 57.5q-23 -10 -41 -28.5t-33 -38.5q-10 -16 -21.5 -31t-23.5 -29l-16 -16l-418 -490q0 -23 20.5 -34t36.5 -17q25 8 52 6q6 -16 4 -35.5t2 -27.5q-18 -4 -38 -3t-38 1q-86 0 -182 2h-20 q-86 0 -163 -17z" />
<glyph unicode="Y" horiz-adv-x="1581" d="M3 1612q-5 6 -5 15q0 17 16 44q39 -12 85 -14q31 -1 63 -2q16 0 32 1q48 1 96 5t89 4q14 0 31.5 1t29.5 -3q20 -16 12 -42t-32.5 -30t-55 -5t-45.5 -36l-2 -659q0 -55 10.5 -118.5t47.5 -108.5q41 -47 102.5 -62.5t120.5 -15.5q68 0 135.5 16t129 44t114.5 66t92 81 q74 88 99.5 189t25.5 237v344q-6 12 -23.5 24t-31.5 2q-6 -2 -22.5 -5t-22.5 1q-10 -4 -22.5 9.5t-4.5 23.5v39q23 2 46.5 4t45.5 2q31 2 60.5 0t60.5 -2q29 0 73 -3t79 -3h24q14 0 21 2q4 -16 17 -25.5t13 -23.5q0 -8 -14 -17q-10 0 -28.5 -2t-37 -7t-33 -15.5t-14.5 -24.5 v-291q0 -115 -3 -237.5t-10 -240.5t-20.5 -224.5t-33.5 -188.5q-33 -123 -111 -200.5t-188 -126.5q-49 -23 -114.5 -28t-119.5 -5q-55 0 -116.5 9t-110.5 38q-68 39 -68 119q0 39 32 62.5t70 26.5h10q32 0 59 -16q32 -19 32 -65q0 -23 -24.5 -50.5t-38.5 -41.5 q8 -16 28.5 -26.5t45 -16.5t48 -9t39.5 -3q23 0 45.5 6t45.5 10q94 23 166.5 71t105.5 146q25 72 31 147.5t6 151.5q0 78 -1 155v17q0 68 7 133q-70 -84 -135.5 -152.5t-139 -119.5t-162.5 -79t-206 -28q-55 0 -110.5 8.5t-103.5 29t-87 57t-62 92.5q-8 23 -16 50.5t-8 49.5 l-21 778q-10 20 -39.5 26.5t-57.5 13t-41 22.5z" />
<glyph unicode="Z" horiz-adv-x="1503" d="M-21 1457q0 16 11 30q10 14 25.5 26.5t29.5 22.5q94 72 208 95.5t230 23.5q2 -2 16.5 -3t33 -2t34 -2t19.5 -1q51 -4 102 -5.5t103 -5.5q23 -2 46 -1t46 -3q14 -2 27.5 -6t27.5 -8q33 -6 65.5 -8t67.5 -2q49 0 98.5 5t96.5 19q10 8 22 12.5t23 8.5l-8 -64 q-70 -78 -129.5 -165t-112.5 -175l-215 -348q-117 -186 -231.5 -368.5t-233.5 -368.5l29 -23q53 8 104 12.5t104 4.5q106 0 210 -11.5t204 -33.5l62 -13q31 -6 61 -14q14 -4 31.5 -10t32.5 -6q18 -2 38.5 -1t38.5 1q37 0 56 20q-10 12 -18.5 24.5t-18.5 26.5l2 17 q8 6 23.5 16t34 19.5t35.5 14.5t30 -1q12 -8 22.5 -28.5t12.5 -35.5q-16 -16 -26.5 -31.5t-20 -27.5t-23.5 -23.5t-41 -19.5q-76 -29 -163 -38t-167 -9q-94 0 -187 11t-185 28q-45 6 -103.5 15t-120 15.5t-120.5 9.5q-19 1 -37 1q-36 0 -66 -4q-37 -6 -86 -28t-72 -54 q-20 0 -37 8q283 369 536 743.5t495 769.5q-68 -2 -134 -2t-130 2q-128 4 -259 17q-98 10 -197.5 17t-197.5 11l-45 -20q4 -14 15.5 -41t11.5 -33q0 -10 -5.5 -16t-11.5 -12q-25 -27 -44 -30t-54 9q-21 22 -21 46z" />
<glyph unicode="[" horiz-adv-x="413" d="M49 -102v206v252q0 131 1 254t1 209q0 88 -1 209t-1 250v250v209l27 26q12 12 27.5 23.5t38 22t59.5 18.5q78 18 161.5 19t163.5 5q8 -10 2 -17t-4 -36q-4 -16 -36.5 -8t-79.5 8q-45 0 -96.5 -23.5t-90.5 -103.5q-4 -16 -5 -70.5t-2 -133t-1 -175.5v-196v-267 q0 -131 1 -273t1 -267q0 -123 2 -212t6 -112q39 -80 89 -102.5t95.5 -20.5t79 11.5t37.5 -5.5q-2 -29 5.5 -42t-3.5 -23q-80 4 -163.5 5t-161.5 19q-37 8 -59.5 18.5t-38 22t-27.5 23.5z" />
<glyph unicode="\" horiz-adv-x="802" d="M2 1665q14 12 35 12q23 0 44 4.5t38.5 16.5t21.5 49q8 -31 14.5 -69t12.5 -76.5t12 -74.5t17 -63q6 -16 33.5 -86.5t69.5 -176t94 -235.5t105.5 -264.5t105.5 -264.5t94 -233.5t70 -171t34 -79.5q-57 -8 -77.5 -23.5t-33.5 -54.5q-6 23 -17 71t-25.5 103t-28 106.5 t-23.5 82.5q-4 14 -30.5 80.5t-68.5 165t-94.5 220t-105.5 248.5t-105.5 249t-93.5 220.5t-67.5 164t-30.5 79.5z" />
<glyph unicode="]" horiz-adv-x="413" d="M-115 1843q0 4 4 8q80 -4 164 -5t162 -19q37 -8 59.5 -18.5t38 -21.5t26.5 -23.5t28 -26.5v-209v-250q0 -129 -1 -250t-1 -209q0 -86 1 -209t1 -254v-252v-206q-16 -14 -27.5 -26.5t-27 -24t-38 -21.5t-59.5 -19q-78 -18 -162 -19t-164 -5q-10 10 -2.5 26.5t4.5 45.5 q2 14 35 4.5t79 -12.5t97.5 18.5t90.5 99.5q4 23 6 112t2 212q0 125 1 267t1 273v267v196q0 96 -1 175t-3 133.5t-4 70.5q-27 53 -59 80t-64.5 38t-64.5 10t-56.5 -5t-40.5 -5t-19 9q0 23 -3 31t-3 14z" />
<glyph unicode="^" horiz-adv-x="776" d="M45 1042q29 0 79 44t103.5 101.5t101.5 114t74 82.5q39 -37 80 -95t81 -112.5t80 -94.5t79 -40l-133 -184q-23 12 -50.5 67.5t-53 121t-47 125t-33.5 79.5q-10 -16 -45 -74.5t-76 -125t-81 -125t-61 -72.5z" />
<glyph unicode="_" horiz-adv-x="1261" d="M-35 -279q12 18 16.5 40t5.5 44.5t5 44t16 39.5q18 -2 74.5 -5t132.5 -7t162 -9t162.5 -8t136 -5t82.5 -2q29 0 102.5 5t156.5 12t158.5 13t108.5 8q-12 -16 -16 -36.5t-4 -40.5q0 -23 -1 -43.5t-10 -38.5q-20 0 -79.5 1t-138.5 2t-169 3t-170 3t-139 2t-80 1 q-31 0 -106.5 -3t-157.5 -8t-152.5 -8.5t-95.5 -3.5z" />
<glyph unicode="`" horiz-adv-x="468" d="M59 1542l64 84q66 -66 139.5 -120t165.5 -113v-2l-47 -31q-47 23 -87 43t-78 41.5t-76 45t-81 52.5z" />
<glyph unicode="a" horiz-adv-x="1038" d="M71 176q0 44 11 88q12 47 35.5 91t52.5 77q86 92 197.5 132t234.5 40q23 35 23 82q0 31 -10.5 72t-28.5 67q-16 25 -51 34t-76 9q-39 0 -77 -7t-60 -17q-10 -4 -21.5 -12.5t-11.5 -20.5q4 -10 9 -17.5t11 -15.5q4 -6 12.5 -17t8.5 -20q0 -18 -12.5 -29.5t-29 -18.5 t-34.5 -10t-33 -7q-4 6 -12 17.5t-16.5 24.5t-14.5 25.5t-6 20.5q0 6 3 15t7 14q8 10 21.5 20t23.5 18q125 94 277 95q55 0 106.5 -15.5t91.5 -54.5q33 -61 44.5 -134t13.5 -151q1 -26 0 -51q0 -51 -2 -102q-4 -76 -4 -144v-36q0 -31 3 -73t7 -56q6 -23 28.5 -30t41.5 -7 q33 0 53 17t33.5 41t23.5 44.5t23 26.5q18 -16 18 -35q0 -27 -18.5 -52.5t-28.5 -54.5q-35 -37 -89 -54t-104 -21q-5 0 -10 -1q-48 0 -79 34q-34 38 -54 83q-78 -63 -173 -92q-83 -25 -171 -25q-12 0 -25 1q-16 0 -35.5 11t-40 26.5t-39 32t-28.5 26.5q-19 43 -19 96z M234 181q13 -34 39 -61.5t61 -39.5q2 -2 14 -2h17q47 0 91 13t79 48q57 59 73 137q10 48 10 96q0 30 -4 60q-4 37 -27.5 59.5t-57 33t-70.5 11.5h-15q-29 0 -53 -4q-23 -14 -46 -39.5t-44.5 -55t-39 -59.5t-28.5 -54q-13 -31 -13 -66q0 -40 14 -77z" />
<glyph unicode="b" horiz-adv-x="1024" d="M0 29q14 2 35.5 7t40 13t32 22.5t13.5 34.5l2 66l8 182q4 123 7 246t3 246q0 150 -2 298t-12 298q-2 6 -2 16v19q0 10 -1 18t-3 16q-4 8 -11.5 19.5t-17.5 11.5t-32.5 -18.5t-39.5 -20.5q-20 35 -13 51.5t28.5 25.5t49.5 16.5t46 25.5h121v-788q76 29 155.5 59.5 t165.5 30.5q59 0 115.5 -18.5t108.5 -51.5q53 -35 87 -75t60 -99q14 -29 21.5 -55.5t7.5 -61.5q0 -20 -8.5 -58t-18.5 -80t-21.5 -78t-19.5 -52q-6 -14 -18.5 -30.5t-22.5 -26.5q-74 -86 -176 -143.5t-207 -96.5q-43 1 -86 1q-75 0 -150 -4q-118 -7 -237 -13q-9 4 -9 18 q0 6 0.5 16.5t0.5 12.5zM272 383q0 -86 13.5 -165t46.5 -140q18 -8 43.5 -11.5t52.5 -3.5t52.5 4.5t43.5 10.5q16 6 39 23.5t45.5 38t42 41t31.5 34.5q27 35 59.5 87t40.5 93q2 6 2 51q0 27 -1 63t-3 69.5t-3 58.5t-3 31t-9 23.5t-11 23.5q-27 55 -69 97t-105 52 q-6 2 -19.5 3t-19.5 1q-12 -2 -33 -7t-43.5 -12t-43 -15.5t-30.5 -14.5q-37 -23 -60.5 -50.5t-29.5 -70.5q-10 -68 -19.5 -148.5t-9.5 -166.5z" />
<glyph unicode="c" horiz-adv-x="845" d="M6 426q0 86 22.5 173t65.5 162t106.5 134t145.5 90q59 12 106 12q10 0 19 -1q53 -3 94 -20.5t74 -47t66 -68.5q14 -18 27 -42.5t13 -49.5q0 -43 -18 -73.5t-65 -30.5q-49 0 -75 20.5t-29 49t14.5 58t52.5 46.5q-61 63 -150 63q-72 0 -132 -43t-102 -107.5t-64 -139.5 q-18 -63 -18 -117q0 -10 1 -21q4 -76 20.5 -146.5t52 -126t94 -88t148.5 -32.5q150 0 225 119q6 12 16.5 28.5t23 34t25.5 31.5t26 22q2 -10 3 -18t1 -12q0 -20 -7.5 -45t-19.5 -49.5t-25.5 -46t-25.5 -38.5q-37 -53 -102.5 -76.5t-127.5 -33.5q-37 -5 -70 -5q-31 0 -60 4 q-60 9 -124 42q-117 61 -172 159.5t-55 229.5z" />
<glyph unicode="d" horiz-adv-x="1150" d="M86 303q0 193 98.5 331t257.5 234q37 23 82 40.5t93 25.5q28 5 55 5q20 0 40 -3q46 -6 85 -31l20 31q-2 23 -3 45.5t-1 44.5v45v25q0 12 2 22q2 41 4 85q1 15 1 30q0 29 -3 58q-4 44 -15 85t-36 78q-27 -27 -55 -36q-5 -2 -10 -1q-22 0 -35 37l243 152h29v-1416 q0 -20 18.5 -31.5t34.5 -11.5q12 0 24.5 10.5t26 17.5t27.5 3t31 -31l-271 -176q-14 10 -18 28.5t-6 40t-5 40t-14 29.5q-80 -61 -170 -95t-194 -34q-23 0 -61.5 3t-73.5 13q-31 10 -47.5 21.5t-36.5 31.5q-55 51 -86 113.5t-31 140.5zM240 373q0 -74 29.5 -140.5 t90.5 -111.5q33 -23 71 -33t79 -10q88 0 146.5 32.5t93 86t49 124t14.5 146.5q0 63 -7 126.5t-18 127.5q-4 16 -5 32.5t-5 30.5q-12 39 -51 59.5t-76 20.5q-59 0 -121.5 -32.5t-109.5 -61.5q-4 -2 -19.5 -12t-17.5 -13q-10 -10 -21.5 -27.5t-19.5 -29.5 q-47 -72 -74.5 -150.5t-27.5 -164.5z" />
<glyph unicode="e" horiz-adv-x="886" d="M0 406q0 111 42 207t118 175q72 74 155.5 114t188.5 40q63 0 125.5 -20.5t107.5 -58.5t65 -95q9 -28 9 -60q0 -34 -10 -71q-57 -53 -138 -93t-153 -69q-31 -12 -74 -28.5t-87 -35t-84 -39t-64 -40.5q0 -61 22.5 -109.5t62.5 -80t91 -48t110 -16.5q47 0 98.5 14t92.5 37 q27 14 40 43t25.5 55.5t31 43t56.5 3.5q-14 -66 -50 -118t-87 -88.5t-112.5 -57t-124.5 -20.5q-27 0 -62 4t-70.5 11t-68.5 18.5t-55 25.5q-16 10 -29.5 23.5t-28.5 25.5q-66 63 -104.5 139.5t-38.5 168.5zM168 540q-1 -18 -1 -37q0 -37 3 -77h23q35 20 82 33.5t96 27t96 31 t84 45.5q80 57 80 164q0 41 -10.5 67.5t-45.5 51.5q-25 16 -55.5 23.5t-58.5 7.5q-47 0 -85 -12.5t-75 -43.5q-49 -41 -76.5 -85t-41 -93t-15.5 -103z" />
<glyph unicode="f" horiz-adv-x="886" d="M-6 936q16 16 48 16q8 0 16 -1q44 -5 92 -7h10q41 0 77 13q40 15 52 75q14 150 73.5 304.5t159 277.5t239.5 196q126 66 281 67q17 0 35 -1q25 -2 53.5 -7t58.5 -12.5t56.5 -18.5t44.5 -26q2 -2 11.5 -21t11.5 -24q4 -4 12 -22.5t8 -24.5q0 -18 -12 -33.5t-30.5 -26.5 t-39 -17.5t-34.5 -6.5q-37 0 -54.5 19.5t-19.5 46.5t9 55.5t34 46.5q2 8 -8.5 12.5t-25.5 6.5t-34.5 3t-34.5 1h-26q-86 -4 -179.5 -32t-158.5 -87q-59 -53 -113.5 -142t-97.5 -192.5t-68.5 -206t-25.5 -182.5q55 -23 110.5 -35t114.5 -12q23 0 47.5 -1t46.5 -1 q8 6 13.5 21.5t11.5 31t15 28.5t26 15q9 -54 9 -104q0 -57 -9 -125q-8 -10 -20.5 -9t-22.5 1q-10 66 -48 81q-30 12 -68 12q-10 0 -20 -1q-50 -4 -104 -13q-16 -3 -32 -2q-34 0 -62 13q-16 -29 -21.5 -68t-5.5 -74q0 -53 -2 -104t-6 -104q-2 -35 -4 -98q-1 -42 -1 -85v-45 q1 -68 8 -127t24 -86q10 -16 36.5 -22t56.5 -9.5t57.5 -6.5t39.5 -13v-49q-135 4 -270 5t-271 1q-10 10 -11 34.5t-1 37.5q25 0 60 -1h8q30 0 57 6q31 7 52.5 25.5t21.5 55.5v710q-6 14 -31.5 18.5t-56.5 2.5t-59.5 -7t-43.5 -8q-31 -4 -46 14.5t-19 47.5z" />
<glyph unicode="g" horiz-adv-x="1021" d="M0 375q0 166 92 301q43 63 106.5 107t135.5 79t141.5 69t126.5 77t92 100t35 143v60q0 20 -2 26h27q41 0 72 -16q24 -12 24 -44q0 -10 -2 -22q-14 -66 -44 -108.5t-83 -83.5q-47 -35 -96.5 -68.5t-96.5 -68.5q47 -12 91.5 -24.5t91.5 -24.5q102 -29 157 -109 q43 -59 63.5 -128t20.5 -142v-41q0 -10 -1 -19.5t-3 -19.5q-12 -86 -67.5 -160t-116.5 -131q-127 -121 -295 -172q-8 -8 -26.5 -29.5t-38 -45t-34 -45t-14.5 -30.5q45 -37 99 -36q39 0 79.5 11t82.5 23.5t83 23.5t78 11q39 0 76 -6q43 -8 79 -28.5t44 -67.5q4 -21 4 -41 q0 -56 -30 -106q-40 -67 -106.5 -118t-144 -85.5t-139.5 -51.5q-42 -12 -86 -11h-18q-53 3 -107 5q-55 2 -101 12.5t-79 35t-51.5 65.5t-18.5 102q0 43 18.5 78t47.5 64q25 25 57.5 61.5t65.5 77.5t60.5 81t41.5 70q-74 20 -144.5 53t-125.5 81.5t-88 114t-33 151.5z M123 530q-7 -37 -7 -74q0 -43 9 -85q16 -80 62 -145.5t120 -106.5t174 -41q43 0 76 4t60.5 15.5t53 33t54.5 55.5q51 61 74 135q20 64 20 130q0 9 -1 18q-3 76 -31.5 147.5t-79.5 131.5q-35 41 -85.5 61t-105.5 24q-11 1 -22 0q-44 0 -87 -10q-54 -12 -100 -35 q-80 -41 -125 -109.5t-59 -148.5zM248 -436q0 -51 17.5 -85t47 -54.5t68.5 -29.5t84 -9q51 0 110.5 7t102.5 36q29 16 54.5 40.5t49.5 53.5q14 16 32 45q16 26 16 46q0 5 -5 48q-2 20 -4 43q-12 12 -37.5 14t-42.5 2q-12 0 -31.5 -8t-29.5 -12q-37 -16 -85 -30.5t-98 -20.5 q-25 -3 -49.5 -3t-48.5 3q-47 6 -80 35q-27 -23 -49 -53.5t-22 -67.5z" />
<glyph unicode="h" horiz-adv-x="1161" d="M-1 32q0 14 15 25q35 0 66 3t49 40q10 160 16.5 313.5t6.5 313.5v260v129v66q0 33 -2 65l-3 154q0 16 2.5 35.5t-2.5 36.5q-4 25 -16 28.5t-27.5 -2.5t-31 -17.5t-23.5 -17.5q-4 10 -10 21.5t-6 21.5q0 23 24.5 38.5t55.5 28.5l61 27q31 13 43 31h88q-25 -211 -25.5 -432 t-0.5 -432l20 25q45 37 98.5 66.5t110.5 47t117 19.5h10l108 -19q72 -25 126.5 -68.5t84.5 -115.5q27 -59 33 -137t6 -144q0 -72 1 -144.5t5 -143.5q0 -4 2.5 -18.5t4.5 -30t5 -27.5t7 -12h2q16 -4 24 -5q25 0 49.5 -4t24.5 -24v-45h2v-2l-2 2l-360 4q-12 6 -20.5 18.5 t-2.5 26.5q2 2 10 2q25 4 61 19.5t50 41.5q0 111 -2 221.5t-6 221.5q-4 59 -17.5 117.5t-48.5 109.5q-37 53 -87 65.5t-115 12.5q-86 0 -143.5 -38t-91.5 -98.5t-47 -134t-13 -145.5q0 -35 -1 -66.5t-3 -66.5q-2 -12 -2 -27v-26v-56q0 -59 12 -104q12 -12 34.5 -15t44 -6.5 t38 -9.5t16.5 -26q0 -10 -1 -19.5t-7 -17.5h-402q-15 24 -15 40z" />
<glyph unicode="i" horiz-adv-x="516" d="M0 6v33q16 10 35 10h35q2 -2 12 -2h14q10 0 20.5 2t16.5 12q8 16 11 77t3 130q0 72 -2 134.5t-2 82.5q-2 18 -2 37v37v74v74v36q0 18 -2 37q-10 16 -22.5 13.5t-26.5 -12t-27.5 -18.5t-23.5 -5q-7 17 -7 31q0 22 15 37q25 26 64 43.5t80.5 33t62.5 39.5l45 -22 q-14 -106 -20.5 -213t-6.5 -218q0 -217 25 -428q10 -16 36.5 -21t43.5 1q47 0 57 -6t10 -53q-25 2 -54.5 5t-60 6t-60 4t-52.5 -1q-51 -4 -109 -5h-7q-55 0 -101 15zM86 1432q0 14 8 25t19 22q23 23 38 27.5t46 4.5q25 0 49 -9t28 -38q2 -13 2 -24q0 -40 -22 -62 q-29 -29 -66 -31q-5 0 -9 -1q-32 0 -60 19q-33 22 -33 67z" />
<glyph unicode="j" horiz-adv-x="591" d="M-610 -455q0 47 25.5 68.5t70.5 21.5q55 0 74.5 -25.5t19.5 -78.5l-12 -8q35 -23 70 -23q12 0 37.5 6.5t52 15.5t52 18t38.5 14q109 41 181.5 104t116.5 141t65.5 168t28.5 187q6 75 5 152v44q-2 100 -4 197q-2 57 -3 112.5t-1 112.5q-4 6 -8 13.5t-13 7.5 q-4 -4 -12 -9.5t-17.5 -10.5t-17.5 -8t-14 -1l-35 -35q-23 6 -29 30.5t0 43.5q33 14 70 34.5t76 44t75.5 47t67.5 42.5l12 -830q0 -27 17.5 -42t40.5 -21q18 -4 40.5 -5t42 -7.5t31.5 -20.5q8 -11 8 -29q0 -7 -1 -14q-55 -2 -119 -31.5t-105 -68.5l-192 -205 q-41 -41 -95.5 -86t-107.5 -70l-172 -65q-76 -35 -164 -35q-90 0 -161 39q-35 22 -35 65zM178 1432q0 23 24 44q28 24 61 30q10 2 20 2q22 0 43 -11q29 -16 28 -67q0 -47 -34.5 -61.5t-73.5 -16.5h-6q-30 0 -43 20q-19 30 -19 60z" />
<glyph unicode="k" horiz-adv-x="1302" d="M86 2q-3 12 -3 22q0 14 7 20q12 11 33.5 15t44 7.5t35.5 17.5q-1 48 -2 95q0 23 1 46q1 70 1 142q2 29 2 55v55v111v555q0 86 -4 168t-13 168l-9 9q-5 5 -11 5q-4 -4 -13.5 -11t-19.5 -13.5t-19.5 -10.5t-13.5 0l-16 31l143 96q41 29 81 42t89 13q-10 -23 -21 -45 t-22 -45q-4 -12 -8 -54t-7 -91t-4 -94t-1 -64q0 -147 2 -292.5t2 -292.5q14 -14 41 -15q18 0 37.5 8.5t36.5 18.5q51 29 101 55.5t103 50.5q29 14 67 35t56 49l-100 29l12 31h383q2 -10 3 -16.5t1 -8.5q-2 -45 -53 -45h-84q-25 0 -33 -4t-26 -14q-49 -25 -113.5 -55.5 t-131.5 -65.5t-128 -72t-104 -74q45 -31 99 -44t103 -36q53 -25 97.5 -59.5t83 -75.5t74.5 -85t73 -87q10 -12 20.5 -26.5t22.5 -24.5q63 -59 124 -79q43 -14 98 -13q23 0 48 2q0 -37 -28 -47q-10 -4 -36 -9t-36 -5q-66 0 -126 19t-114 54q-10 6 -21 13.5t-22 17.5l-233 233 q-55 55 -122 102.5t-144 69.5l-29 -30q0 -35 -2 -88.5t-2 -108.5t7 -105.5t26 -80.5q18 -29 49 -25t58.5 10.5t43.5 -3.5q11 -6 11 -32q0 -13 -3 -32q-29 7 -58 6h-14q-36 -2 -73 -2h-258q-10 0 -19.5 1t-19.5 3z" />
<glyph unicode="l" horiz-adv-x="466" d="M1 1476q0 18 3 31l277 154q-10 -193 -14.5 -382t-6.5 -382q-2 -104 -3 -204.5t-1 -200.5q0 -199 6 -404q8 -16 24.5 -23.5t36 -9.5t39 -1t33.5 1q10 -16 10 -29q0 -6 -2 -12q-6 -18 -36 -18h-351q-16 25 -10 40t0 27q9 -1 18 -1q23 0 50 8q37 10 45 47q2 10 0 25.5 t-2 25.5v133q2 297 4 584v44q0 265 -23 539l-71 -26q-26 0 -26 34z" />
<glyph unicode="m" horiz-adv-x="1728" d="M-10 768q41 29 104.5 65.5t149.5 81.5v-110q31 23 77 53.5t107 67.5q74 31 141 30q8 0 43 -18q16 -8 29.5 -13t22.5 -7q47 -10 67 -23q16 -14 34.5 -27.5t35.5 -27.5q10 -8 17 -30t20 -32q18 10 42.5 26.5t55.5 39.5q84 78 164 121q14 8 74 8q30 0 73 -2q29 -2 45.5 -4 t22.5 -4t18.5 -9.5t30.5 -17.5q135 -88 174 -291q8 -47 12 -95t4 -97v-66v-33q0 -14 -2 -30q-1 -31 -1 -64t1 -67v-11q0 -8 2 -14l2 -41q4 -53 7 -66q6 -12 59 -18q27 -2 33 -6q18 -6 22 -23l-8 -30h-338q-10 10 -8 24v27q20 -6 39 -6q61 0 59 80l-18 356q-4 53 -8 98t-9 80 q-18 104 -92 182q-53 53 -141 54q-63 0 -135 -54q-61 -43 -100 -112q-35 -66 -37 -299q-1 -33 -1 -66q0 -49 2 -96q3 -80 9 -160q4 -43 67 -51q63 -6 64 -27q0 -2 -1 -9t-3 -19h-369q-2 6 -4 14t-6 18q-6 12 -6 17q0 16 63.5 30.5t63.5 32.5v72q0 74 -2 151.5t-6 159.5 q-10 188 -35 236q-88 162 -160 162q-133 0 -231 -111q-78 -90 -78 -330q0 -49 1 -96t3 -94q1 -25 1 -47.5t-1 -42.5q-2 -41 -8 -74q12 -27 108 -33q25 -2 37 -14q8 -12 -27 -53q-16 -2 -32 -2h-33h-64q-57 0 -114.5 2t-114.5 6q-2 4 14 53l80 16q14 20 15 267v139v59 q0 29 -2 51q-2 41 -5.5 83t-17.5 75l-78 -26z" />
<glyph unicode="n" horiz-adv-x="1153" d="M0 0q4 8 5 15.5t5 15.5q2 8 18.5 10t35 6t33 13.5t14.5 31.5q0 55 -1 110q0 18 -1 36q0 36 2 73q4 113 5 230v12q0 110 -18 217l-12 4q-10 -2 -21.5 -9t-21.5 -11t-18.5 -2t-14.5 18v21q66 33 131.5 64.5t130.5 59.5q-8 -20 -17 -48.5t-5 -51.5q33 2 68.5 28.5t71.5 58.5 t72 57.5t70 25.5h39h39q25 -2 56.5 -16.5t63.5 -34t59.5 -42t46.5 -40.5q45 -47 68.5 -106.5t33.5 -125t11 -132t1 -128.5q0 -37 -3 -73.5t-3 -73.5q0 -59 23.5 -105.5t93.5 -46.5q42 0 42 -36q0 -6 -1 -13q0 -12 -8 -12q-98 0 -193.5 -1t-193.5 -3q-10 10 -9.5 25.5 t0.5 29.5q10 6 25.5 5t30.5 -1q14 0 26.5 7.5t18.5 29.5q-7 43 -7 84q0 10 1 21q2 51 6 104q4 55 6 115q1 20 1 39q0 40 -3 80q-4 59 -17.5 116.5t-40.5 108.5q-39 70 -97 98q-48 24 -99 24q-11 0 -22 -1q-62 -6 -120.5 -44t-97.5 -102q-74 -120 -74 -261q0 -11 1 -21 q4 -92 7 -181v-28q0 -75 -14 -152q10 -18 33 -24.5t45.5 -9.5t40 -8t17.5 -19q0 -20 -15 -35z" />
<glyph unicode="o" horiz-adv-x="1021" d="M0 434q0 117 39 210t109.5 158.5t166 101.5t209.5 36q96 0 163 -19.5t138 -82.5q33 -29 60.5 -59.5t44.5 -71.5q23 -55 32 -117t9 -121q0 -111 -40 -198t-108.5 -147.5t-161 -93t-196.5 -34.5h-24q-114 0 -197 35q-92 39 -166 149q-37 57 -57.5 121.5t-20.5 132.5z M139 432q12 -96 61.5 -182t135.5 -141q35 -23 74 -40.5t79 -21.5q11 -1 22 -1q73 0 130 37q66 42 109 109.5t64.5 148.5t21.5 155q0 133 -60 252q-43 80 -114.5 111.5t-159.5 31.5q-72 0 -138.5 -19.5t-115.5 -74.5q-68 -76 -94 -172q-18 -66 -19 -132q0 -31 4 -61z" />
<glyph unicode="p" horiz-adv-x="1056" d="M0 758q0 31 17.5 49t41 30.5t50 21.5t45.5 24q10 27 40.5 40t55.5 21l20 -82q150 88 328 88q98 0 182 -29.5t146 -105.5q10 -14 20 -27.5t19 -29.5q10 -20 17 -49t12 -60t8.5 -60.5t3.5 -51.5q0 -127 -44 -225.5t-121 -168t-181.5 -109.5t-225.5 -48q-5 0 -11 -1l-58 10 q-35 11 -70 11q-12 0 -24.5 -5t-20.5 -15q4 -22 4 -45.5t-4 -49.5q-8 -51 -8 -96q0 -47 19.5 -78.5t82.5 -35.5v-23q-33 -25 -69.5 -42t-73.5 -36.5t-71 -42t-58 -55.5q-47 8 -48 27.5t17 43t40.5 49t22.5 48.5q0 2 -1 4t-1 4l4 451q-2 4 -4 53t-4 120.5t-3 153.5t-1 152v96 v61l-13 14q-9 9 -18 9q-16 -16 -29.5 -21t-33.5 11zM250 250q0 -39 1 -73t5 -44q8 -23 33.5 -33t46.5 -16q23 -6 49.5 -11t48.5 -7q8 -1 17 -2l41 8q78 10 140 49t111 100q47 59 66.5 133t19.5 150q0 53 -10 118.5t-33 114.5q-35 76 -102.5 117t-148.5 41q-66 0 -123 -33 q-90 -53 -125 -144t-35 -192v-151q0 -14 -1 -50t-1 -75z" />
<glyph unicode="q" horiz-adv-x="1083" d="M0 311q0 143 56.5 262t160.5 218q45 43 100.5 71.5t115 45t121.5 22.5t124 6q55 0 111.5 -6t111.5 -6q10 0 22.5 10t25 19.5t26.5 10.5h1l28 -18l-64 -104q-10 -137 -16 -273.5t-6 -273.5v-547q14 -14 34.5 -9t40 9t33.5 -1t16 -38l-340 -176q-33 0 -32 37q0 14 12 24 q10 6 19.5 11.5t19.5 13.5q41 35 56.5 87t15.5 106q0 31 -5.5 70.5t-9.5 80.5t-6 79q-1 9 0 18q0 26 4 46q-10 6 -22 7q-16 0 -37 -12.5t-42.5 -28t-43 -29.5t-41.5 -18q-68 -16 -135 -25l-70 -8q-35 -4 -70 -4q-227 0 -305 213q-8 20 -9 53.5t-1 56.5zM172 371q0 -27 2 -61 t12 -58q31 -74 95 -125q35 -29 75 -48q29 -14 61 -14q13 0 27 3q8 2 29 6t42.5 8t40.5 9t30 9q12 4 30.5 13.5t37 20.5t33.5 23.5t24 22.5q4 6 8 15.5t8 19.5q29 72 38 149.5t9 155.5q-4 59 -5 117.5t-5 118.5q-4 27 -23 47q-16 18 -40.5 39.5t-47.5 29.5q-10 4 -42.5 6.5 t-57.5 2.5h-27q-10 0 -27.5 -7.5t-35 -18.5t-33.5 -21.5t-24 -16.5q-23 -16 -57 -41.5t-50 -48.5q-55 -78 -91 -168t-36 -188z" />
<glyph unicode="r" horiz-adv-x="954" d="M0 29q6 18 0 28q10 2 21.5 3t21.5 1q31 0 67.5 15.5t45.5 52.5q2 14 3 26.5t1 26.5v58q4 53 6 107t2 108q0 74 -5 159.5t-28 157.5l-92 -22q-2 2 -2 22q0 33 26.5 52.5t61.5 34.5t69.5 29.5t51.5 37.5q29 -6 42 -21.5t17 -36t1 -44t-5 -44.5q-3 -28 -3 -56v-14 q1 -36 1 -71l10 -74q35 53 78 113.5t93.5 114t107.5 92.5t123 51q24 5 46 5q55 0 94 -31q49 -38 49 -116q0 -9 -1 -18q-6 -96 -106 -108q-8 -1 -17 -1l-53 10q-35 13 -49 50q-2 4 -5 14.5t-1 16.5l4 33q2 16 6 32q-55 0 -104.5 -29.5t-91.5 -72.5t-74.5 -93t-57.5 -93 q-27 -47 -36 -101.5t-9 -111.5t5 -113.5t5 -108.5q6 -2 23.5 -10t38 -15t38 -10.5t21.5 7.5l4 -6q2 -18 6.5 -39t0.5 -39h-441q-12 16 -12 30q0 6 2 11z" />
<glyph unicode="s" horiz-adv-x="788" d="M2 147q13 87 113 87q9 0 18 -1q66 -6 78 -69q6 -25 -2 -39q-8 -20 -6 -39q0 -41 49 -49q14 -3 30 -3q21 0 46 5q86 12 147.5 51t104.5 113q16 29 16 53q-4 106 -152 145q-47 6 -114.5 25.5t-159.5 40.5q-154 47 -150 176q0 117 89 193q37 35 190 106q31 16 60.5 25.5 t58.5 17.5q22 -6 40 -6q15 0 29 4q8 1 17 1q64 0 110 -58q55 -61 56 -140q0 -37 -35 -69q-31 -29 -68 -29h-10q-66 6 -100 96l43 93q-47 12 -86 18q-14 1 -27 1q-111 0 -166 -62q-51 -51 -51 -113q0 -33 12 -47q41 -59 185 -86q37 -4 89 -22.5t122 -37.5q170 -68 174 -219 q0 -100 -45 -151q-88 -98 -213 -133q-88 -25 -198 -25q-45 0 -93 4l-27 2q-76 6 -94 14q-39 14 -62 51q-19 30 -19 64q0 6 1 12z" />
<glyph unicode="t" horiz-adv-x="862" d="M-9 899q-1 9 -1 18t1 18q1 17 5 28l2 22q18 4 37.5 -1t40 -12t40 -13.5t38.5 -6.5q29 0 51 8.5t37 32.5q2 4 5 11.5t3 11.5v442q20 18 42 25q16 5 32 4h11q22 -2 44 -9.5t47 -13.5l-74 -80l8 -399q55 0 110.5 5t111.5 9q37 3 73 3q18 0 36 -1q54 -2 108 -16q3 -15 3 -37 v-11q-1 -30 -5 -62.5t-11.5 -60.5t-17.5 -42q-12 66 -60.5 89.5t-109.5 24.5h-12q-55 0 -113 -8q-63 -9 -106 -10q-12 -86 -18 -181q-4 -68 -3 -138v-55q2 -98 8 -193.5t17 -181.5q25 -53 75 -61q13 -2 27 -1q38 0 77 15q52 20 91 63t39 92q0 12 -4 23.5t-6 22t0 20.5t16 20 h43q12 -32 12 -62q0 -7 -1 -13q-3 -37 -17 -71t-37.5 -64.5t-50.5 -57.5q-41 -41 -100.5 -54.5t-114.5 -13.5q-53 0 -108.5 17.5t-86.5 64.5l-26 787q-12 20 -36 27.5t-50.5 4t-53 -12.5t-43.5 -19q-12 6 -18 20.5t-7 32.5z" />
<glyph unicode="u" horiz-adv-x="1136" d="M0 817q33 8 67.5 37t69.5 58.5t71 52.5q33 21 65 20h6q0 -23 2 -59.5t2 -69.5v-37q0 -66 -4 -163q-3 -65 -3 -132v-67q2 -102 14.5 -194.5t45.5 -145.5q37 -59 103 -71q24 -4 47 -4q42 0 81 13q139 51 211 174q8 10 13.5 20.5t9.5 20.5q2 10 3 19.5t1 19.5v21q0 14 2 20 q4 49 6 98.5t2 98.5q0 59 -4 119.5t-18 119.5q-16 0 -32 -6t-31 -9t-28.5 -2t-25.5 17v43q39 6 74.5 28t69.5 46.5t68 48t68 33.5q-4 -74 -9 -165t-5 -165q0 -129 1 -259t9 -259q18 -39 40 -33.5t42.5 17.5t33.5 15t17 -42q-63 -31 -127.5 -57.5t-130.5 -50.5 q-16 10 -19 28.5t-2 39t3 39t-4 30.5q-100 -86 -222 -115q-100 -24 -206 -23q-23 0 -45 1q-74 33 -115 88t-60.5 123.5t-22.5 145.5t-3 155q0 80 -2 153.5t-18 134.5q-16 -10 -37 -19t-39 -9q-16 0 -28 12q-8 9 -8 30q0 8 1 17z" />
<glyph unicode="v" horiz-adv-x="1036" d="M-12 881q4 14 11 32.5t16.5 34t21.5 26.5t26 11h3h4h6l28 -59l91 -13q27 -4 54 -3l60 4q57 9 117 10q12 -6 12 -25v-27q-8 -8 -28 -8q-27 0 -62 5t-57 -1q-14 -4 -21.5 -22.5t-10.5 -42t-4 -46t-1 -32.5q0 -80 30.5 -151.5t79 -135t105.5 -121t111 -108.5l22 20 q-1 29 -1 59q0 304 157 564q-31 16 -40 27.5t5 46.5q16 2 34 12l35 20q17 10 33.5 15.5t30.5 -2.5l92 -43h10q6 0 12.5 -1t10.5 -1q5 -22 5 -36q0 -13 -4 -21q-9 -15 -50 -19q-4 0 -16.5 -1t-25.5 -3t-24.5 -4t-13.5 -4q-16 -16 -31.5 -37t-27.5 -41q-43 -66 -71 -140.5 t-44 -153.5t-22.5 -160t-6.5 -156q0 -43 1 -86.5t3 -86.5q-6 -4 -23 -16q-10 -7 -19 -7q-5 0 -9 3q-20 78 -77.5 149.5t-118.5 124.5q-27 25 -62 56.5t-70.5 65.5t-67.5 68t-52 62q-57 86 -67 167q-2 20 -2 41q0 64 21 138q-6 20 -18 26.5t-25.5 5.5t-28 -5t-24.5 -4 q-12 0 -22 29z" />
<glyph unicode="w" horiz-adv-x="1589" d="M-27 836l252 149h23l-17 -745v-11q0 -44 16 -73q17 -33 48 -52.5t72 -27.5t84 -8q78 0 128 47t83 112q20 41 26 120t6 167t-5 170t-7 131q-16 6 -40 -10.5t-38 -22.5q-10 0 -15 8.5t-9 14.5v31q31 10 64.5 27.5t68.5 36t67.5 33.5t61.5 21q4 -33 3 -72q0 -26 -1 -54 q-4 -71 -9.5 -148.5t-10.5 -157.5q-3 -44 -3 -86q0 -34 2 -66q4 -73 18.5 -136.5t47.5 -108.5q25 -35 62.5 -45t76.5 -10q33 0 62.5 13t56.5 32q57 39 90 96q25 49 31 108q5 51 5 104v17q-1 61 -7 122t-6 114q0 25 1 50.5t7 49.5q-23 23 -45 23l-45 -23q-10 16 -11 43 q0 31 31 48.5t73 29.5t83 23.5t61 31.5q2 -31 3 -60.5t1 -60.5q0 -113 -7 -225t-7 -225q0 -53 3 -108.5t7 -108.5q16 -16 40 -8t45.5 19t36.5 13t15 -26q0 -10 -1 -18.5t-3 -18.5q-68 -25 -132 -58.5t-126 -72.5q-12 6 -15 27.5t-5 47t-5 50t-14 37.5q-53 -68 -119.5 -114 t-158.5 -46q-47 0 -104.5 7t-96.5 36l-72 117q-76 -80 -166 -123t-200 -43q-18 0 -43 1t-49.5 7t-45 16.5t-32.5 28.5q-49 80 -68.5 150.5t-23.5 135.5q-1 22 -2 42q0 42 6 83q8 60 12 120q2 35 2 70q0 26 -1 53q-3 62 -28 130q-10 -2 -20 -10t-19.5 -14t-19.5 -7t-20 9 q-6 4 -7.5 15.5t-1.5 15.5z" />
<glyph unicode="x" horiz-adv-x="1116" d="M0 23v34q32 -7 62 -7q55 0 100 25q70 38 119 109q41 57 79.5 116.5t73.5 119.5q-16 6 -39.5 13t-50.5 16.5t-50.5 19.5t-35.5 18q-51 33 -71.5 67t-23.5 68q-1 8 -1 16q0 25 7 50q9 33 19.5 64.5t14.5 60.5t-10 55l-82 -22q-12 -4 -19.5 8t-9.5 27.5t2 30t16 14.5h334 q16 -6 19.5 -24.5t3.5 -33.5q-18 -23 -43 -15.5t-47 7.5q-18 0 -29.5 -15.5t-17 -37t-6.5 -44t-1 -34.5q0 -106 62.5 -155.5t161.5 -61.5q31 37 64.5 76t66 81t59.5 86t43 91q-20 6 -39.5 11t-42.5 7q-2 10 -4 24.5t-6 22.5q12 12 55 13q47 0 110.5 -5.5t108.5 -5.5 q16 0 27.5 1t19.5 4q10 -6 12.5 -22.5t2.5 -27.5q-12 -6 -31.5 -7t-40.5 -1q-18 0 -34.5 -3t-22.5 -11l-299 -346q33 -23 69.5 -36t73.5 -25.5t74 -26t67 -33.5q45 -29 62.5 -51.5t40.5 -67.5q8 -14 11 -24.5t3 -26.5q0 -20 -10 -50t-15.5 -57.5t1 -47t38.5 -19.5q37 0 64 8 q4 -9 4 -17q0 -12 -9 -21q-15 -15 -38 -15h-363q-4 10 -10 18t-10 19q0 12 12 16q25 0 53.5 5t53.5 9q27 4 54.5 14.5t27.5 43.5q0 57 -35 102t-85 77t-108.5 53.5t-105.5 33.5q-47 -61 -95.5 -121.5t-95.5 -120.5q-10 -14 -17 -30.5t-13 -32.5q8 -12 23.5 -16.5t32.5 -5.5 t34.5 0t30.5 1v-65h-398q-8 8 -8 33zM406 55v2q2 0 4 -2h-4z" />
<glyph unicode="y" horiz-adv-x="1013" d="M-12 903q0 16 5 32.5t9 27.5q35 -14 71 -18q22 -2 43 -2l28 1q36 2 72 6t71 4q16 0 31.5 -1t31.5 -3q16 -16 13 -33.5t-13 -35.5l-102 -13q10 -54 10 -110q0 -14 -1 -29q-3 -72 -7 -139q-1 -13 -1 -26q0 -25 3 -50q4 -37 4 -74q0 -63 11.5 -125.5t39.5 -119.5 q29 -59 75 -97.5t116 -38.5q47 0 92 18.5t86 45.5q2 4 13 11t13 9q16 23 33 47l33 50q23 31 27 80t4 86q0 98 -2 194t-15 195q0 29 -6 51t-26 22q-12 2 -27.5 0t-30 -1t-24 7.5t-9.5 24.5q0 4 1.5 16.5t1.5 26.5t1 26.5t1 16.5q5 4 9 4l7 -2q8 -4 16.5 -12t16.5 -15.5 t18 -7.5q27 0 57 -4l62 -8q31 -4 59.5 -5t53.5 7l-39 -229q-16 -98 -18 -200v-40q0 -81 3 -160q3 -90 3 -179q0 -45 -1 -89q-2 -133 -51 -262q-20 -51 -55 -103.5t-81 -95.5t-101.5 -69.5t-114.5 -26.5q-20 0 -43 2t-43.5 9t-36.5 21.5t-23 37.5q-4 23 5.5 41t26 31.5 t37 20.5t40.5 7q14 0 28.5 -11.5t26 -27.5t20.5 -33.5t15 -27.5q47 23 89 59.5t73 81.5t48 97t17 106v90q0 23 -2 46t-10 46q-14 -4 -33.5 -14.5t-31.5 -16.5q-35 -18 -61.5 -32.5t-53.5 -23.5t-57.5 -14.5t-69.5 -5.5h-9q-71 0 -148 30q-81 32 -134 85q-35 35 -53.5 74 t-24.5 80q-5 35 -5 72v13q1 44 3 91q2 29 -2 55.5t-4 54.5q0 82 4 164l8 164q-18 18 -41.5 25.5t-44.5 -17.5q-18 0 -24 10.5t-6 24.5z" />
<glyph unicode="z" horiz-adv-x="987" d="M-150 -553q0 14 9.5 29.5t24 29t30.5 21.5t31 8q20 0 40.5 -19.5t39 -42t35 -42t32.5 -19.5q18 0 34.5 11.5t31.5 21.5q80 20 159.5 65.5t148.5 106.5t121 135t79 154q27 78 35 159q3 25 3 48q0 53 -14 98q-20 66 -77.5 106.5t-161.5 40.5q-31 0 -64 -3t-63 -7 q-18 -2 -33 -12t-29 -18.5t-30.5 -10.5t-36.5 10q92 129 188 253t174 264q-43 18 -86 20q-14 1 -29 1q-28 0 -56 -3q-42 -4 -85 -11t-88 -7q-16 -16 -42 -44t-56.5 -53.5t-61 -44t-55.5 -14.5q6 96 43 149.5t93 77t126 25.5h28q57 0 116 -6q75 -8 147 -18.5t131 -10.5 q51 0 117 16q-74 -119 -153 -231.5t-159 -228.5q61 -29 128 -36t128 -32q45 -16 75 -46t46.5 -67t23.5 -80t7 -86q0 -74 -23 -135q-43 -119 -124.5 -218t-186 -175t-225.5 -126t-242 -71q-23 -4 -63 -7q-18 -1 -35 -1q-23 0 -46 2q-40 4 -70 20.5t-30 53.5z" />
<glyph unicode="{" horiz-adv-x="587" d="M33 774v45q70 0 115 17.5t69.5 48t33.5 73.5t9 93v546q0 104 34 150.5t88 60t125 9t144 0.5l-2 -74q-61 -4 -103 0t-69.5 2t-43 -17.5t-25 -57.5t-13.5 -119.5t-8 -202.5l-2 -273q0 -82 -35 -133t-79 -82t-87 -43t-59 -14l2 -10q16 -2 59 -14.5t87 -41t79 -80t35 -133.5 v-274q0 -127 3 -203t13.5 -118t29 -56t48 -16t71.5 1t99 -3l-2 -74q-74 4 -143.5 0t-124.5 10t-88 59.5t-33 149.5v547q0 49 -9 91t-33.5 72.5t-69.5 47t-115 16.5z" />
<glyph unicode="|" horiz-adv-x="385" d="M86 1786q18 -31 39.5 -36t43 1t41 14.5t36.5 1.5v-86q0 -70 -1 -178t-2 -238t-2 -270.5t-2 -270.5t-2 -240.5t-1 -180.5v-88q2 -31 10 -84t16 -108.5t14.5 -103.5t6.5 -69q-25 29 -49.5 36.5t-79.5 -9.5v88q0 74 -1 184.5t-1 251.5q0 102 -1 212t-1 216q0 109 -1.5 210.5 t-1.5 185.5q0 117 -1 191.5t-1 92.5q-8 57 -29.5 135.5t-29.5 141.5z" />
<glyph unicode="}" horiz-adv-x="616" d="M-37 -145q57 6 99 3t72 -1t48.5 16t28.5 56t13 119t3 202v274q0 82 34 133.5t79 80t88 41t59 14.5l2 10q-16 2 -59 14t-88 43t-79 82t-34 133l-2 273q-4 125 -8 202.5t-13 119.5t-24.5 57.5t-43 17.5t-69.5 -2t-104 0l-2 74q74 -4 144.5 0t125 -9.5t88 -59.5t33.5 -151 v-546q0 -49 9.5 -92.5t34 -74t68.5 -48t116 -17.5v-45q-72 0 -116 -16.5t-68.5 -47t-34 -72.5t-9.5 -91v-547q0 -104 -32.5 -149.5t-88 -59.5t-125 -10t-143.5 0z" />
<glyph unicode="~" horiz-adv-x="886" d="M31 1059q14 25 33.5 58.5t43 65t52 54.5t61.5 23q12 0 22.5 -3.5t20.5 -7.5q45 -20 107.5 -47.5t129 -47t131 -22t113.5 28.5q29 20 43.5 36.5t12.5 53.5l57 -43q-35 -68 -92 -124t-139 -56q-41 0 -89.5 12.5t-97.5 29.5t-95 36.5t-83 36.5q-43 16 -72.5 7t-50 -32.5 t-33 -57.5t-18.5 -67z" />
<glyph unicode="&#xa1;" horiz-adv-x="444" d="M94 -471q16 117 36 234.5t40 234.5q10 55 17.5 111.5t7.5 111.5v250q0 25 2 54.5t7 56t13 44t21 17.5q12 0 17 -24.5t5 -55.5t-1 -60.5t-1 -39.5q-12 -217 8.5 -425t46.5 -425q2 -16 3 -39t8 -39h-2l-3 2q-4 -4 -15 -25.5t-17 -29.5q-33 -41 -74 -45t-80 31 q-8 16 -18.5 31.5t-20.5 29.5zM138 815q-7 31 22 66q10 29 34.5 37t51.5 8q33 0 61.5 -17.5t43 -42t8 -53.5t-43.5 -51q-29 -18 -69.5 -24.5t-71.5 20.5q-29 26 -36 57z" />
<glyph unicode="&#xa2;" horiz-adv-x="870" d="M47 440q0 86 22.5 173t65.5 162t106.5 134.5t145.5 89.5h55q14 0 26.5 -1t25.5 -3q2 35 8 63.5t10 57.5q10 -35 27.5 -43t37 -6t39 6t35.5 -6q-4 -10 -11 -36.5t-17 -61.5q35 -14 65.5 -37t56.5 -58q14 -18 27.5 -42.5t13.5 -49.5q0 -43 -18 -73.5t-66 -30.5 q-49 0 -74.5 20.5t-28.5 49t14.5 58.5t52.5 46q-16 14 -32 25.5t-32 19.5q-27 -84 -58.5 -185.5t-61 -194.5t-51 -163.5t-25.5 -91.5q-4 -25 -10.5 -62.5t-10.5 -80.5q55 -25 131 -25q150 0 225 119q6 12 16.5 28.5t23 34t25.5 32t25 22.5q2 -10 3.5 -18.5t1.5 -12.5 q0 -20 -7.5 -45t-19.5 -49.5t-25.5 -46t-25.5 -37.5q-37 -53 -102.5 -77t-127.5 -34q-41 -6 -89 -4t-83 10q-2 -18 -3 -50t-2 -62.5t-2 -56t-3 -33.5q-18 35 -39.5 48t-81.5 13q2 4 7.5 25.5t11.5 49t13 56.5t13 47q-117 61 -170 159.5t-53 227.5zM201 487q4 -92 27.5 -175 t76.5 -138q25 92 54.5 198.5t56 204t46 170t23.5 95.5q6 31 7 71q-68 -6 -123.5 -51t-94 -108.5t-58 -135.5t-15.5 -131z" />
<glyph unicode="&#xa3;" horiz-adv-x="1222" d="M47 110.5q8 47.5 31 96.5q6 14 15 37.5t20.5 48t22.5 46t22 34.5q2 4 11 1t20.5 -7.5t21.5 -9.5t14 -5q-23 -41 -4 -78.5t55.5 -71.5t81.5 -58.5t78 -37.5l62 -18l-125 455q-35 -2 -78 -6.5t-84 -7.5t-77 -5t-56 -2q12 18 16 40t5 44.5t5.5 44t16.5 39.5q35 -4 101.5 -11 t142.5 -13v30q-29 96 -34 177t30.5 136.5t121.5 82t238 16.5q25 -2 54.5 -7t60 -12.5t59.5 -18.5t49 -26l4 -7q4 -7 9 -14l11 -14q5 -7 7 -10q4 -4 15 -22.5t11 -24.5q2 -18 -8 -33.5t-26.5 -26.5t-36 -17.5t-33.5 -6.5q-37 0 -57.5 19.5t-26.5 46.5t2 55.5t27 46.5 q0 8 -11.5 12.5t-27 6.5t-34.5 3t-34 1h-26q-43 -2 -73 -4t-55.5 -9.5t-49 -23.5t-52.5 -47q-27 -29 -36 -54.5t-3 -59.5t25.5 -82t50.5 -122q31 0 73 4.5t86 9.5t87 10t78 7q-12 -16 -16.5 -36.5t-4.5 -43.5q0 -20 -1 -40.5t-9 -39.5q-18 0 -52 1t-74 3.5t-83 4.5t-80 4 q27 -100 41 -154.5t26.5 -100.5t28 -101.5t43.5 -155.5q70 -27 117 -56.5t92 -42t96.5 3t129.5 76.5q8 20 2 39t-11 39q-4 25 7.5 49.5t29.5 24.5t36 -24.5t22 -45.5q6 -35 1 -59.5t-18.5 -45t-34 -39t-45.5 -40.5q-59 -53 -150 -46t-209 42t-260 85t-304 83 q-29 -10 -56.5 -24.5t-42.5 -43.5q-22 59 -14 106.5z" />
<glyph unicode="&#xa4;" horiz-adv-x="1038" d="M29 244q12 18 16 39.5t5 44t5 44t17 40.5q20 -2 27 -6.5t16.5 -7.5t26 -7t53.5 -6q-2 8 -2 23v24q0 29 2 55.5t6 55.5q-35 -2 -56.5 -7.5t-37 -11.5t-27.5 -10t-31 -4q12 18 16.5 39.5t5.5 44t5 44t16 40.5q20 -2 28.5 -6t17.5 -7t27.5 -7.5t61.5 -6.5q39 117 116 207 t189 133q72 14 125.5 11t94.5 -20t73.5 -47t65.5 -69q14 -18 27.5 -42.5t13.5 -49.5q0 -43 -18.5 -73.5t-65.5 -30.5q-49 0 -74.5 20.5t-29 49t14 58t52.5 46.5q-61 63 -149 63q-51 0 -95.5 -21.5t-81 -57t-64.5 -83t-46 -96.5q39 2 83 7.5t87 11.5t82 12t67 8 q-12 -16 -16 -36.5t-4 -43.5q0 -20 -1 -40.5t-9 -39.5q-51 0 -140.5 6.5t-175.5 10.5q-2 -16 -3 -32.5t1 -33.5l4 -49q2 -25 6 -47q37 2 82 7t88 11.5t82 12.5t66 8q-12 -16 -16.5 -36.5t-4.5 -43.5q0 -20 -1 -40.5t-9 -39.5q-41 2 -112.5 6t-147.5 8q33 -86 97.5 -138 t181.5 -52q150 0 225 119q6 12 16 28.5t22.5 34t26 31.5t25.5 23q2 -10 3 -18.5t1 -12.5q0 -20 -7 -45t-19.5 -49.5t-26 -46t-25.5 -37.5q-37 -53 -102.5 -77t-126.5 -34q-70 -10 -130.5 -1t-123.5 42q-160 84 -205 236h-2q-47 -2 -74.5 -8.5t-45 -12.5t-31 -10t-33.5 -4z " />
<glyph unicode="&#x20ac;" horiz-adv-x="1038" d="M29 244q12 18 16 39.5t5 44t5 44t17 40.5q20 -2 27 -6.5t16.5 -7.5t26 -7t53.5 -6q-2 8 -2 23v24q0 29 2 55.5t6 55.5q-35 -2 -56.5 -7.5t-37 -11.5t-27.5 -10t-31 -4q12 18 16.5 39.5t5.5 44t5 44t16 40.5q20 -2 28.5 -6t17.5 -7t27.5 -7.5t61.5 -6.5q39 117 116 207 t189 133q72 14 125.5 11t94.5 -20t73.5 -47t65.5 -69q14 -18 27.5 -42.5t13.5 -49.5q0 -43 -18.5 -73.5t-65.5 -30.5q-49 0 -74.5 20.5t-29 49t14 58t52.5 46.5q-61 63 -149 63q-51 0 -95.5 -21.5t-81 -57t-64.5 -83t-46 -96.5q39 2 83 7.5t87 11.5t82 12t67 8 q-12 -16 -16 -36.5t-4 -43.5q0 -20 -1 -40.5t-9 -39.5q-51 0 -140.5 6.5t-175.5 10.5q-2 -16 -3 -32.5t1 -33.5l4 -49q2 -25 6 -47q37 2 82 7t88 11.5t82 12.5t66 8q-12 -16 -16.5 -36.5t-4.5 -43.5q0 -20 -1 -40.5t-9 -39.5q-41 2 -112.5 6t-147.5 8q33 -86 97.5 -138 t181.5 -52q150 0 225 119q6 12 16 28.5t22.5 34t26 31.5t25.5 23q2 -10 3 -18.5t1 -12.5q0 -20 -7 -45t-19.5 -49.5t-26 -46t-25.5 -37.5q-37 -53 -102.5 -77t-126.5 -34q-70 -10 -130.5 -1t-123.5 42q-160 84 -205 236h-2q-47 -2 -74.5 -8.5t-45 -12.5t-31 -10t-33.5 -4z " />
<glyph unicode="&#xa5;" horiz-adv-x="1388" d="M61 246q12 18 16.5 38.5t6.5 42t5 41t15 38.5q14 -2 66.5 -4.5t130.5 -4.5v19q0 14 2 20q2 29 -2 59.5t-4 59.5v78q-78 4 -144.5 13t-89.5 9q12 18 16.5 37t5.5 37.5t5 36.5t16 37q14 -2 66.5 -4t130.5 -6q2 23 3 45t3 45q-18 18 -41.5 25t-44.5 -17q-18 0 -24 10t-6 25 q0 16 5 32.5t9 26.5q35 -14 70.5 -17t71.5 -1t72 6t71 4q16 0 31.5 -1t31.5 -3q16 -16 13 -33.5t-13 -36.5l-102 -12q4 -25 6 -50.5t2 -52.5l74 -2q111 -4 228.5 -7t227.5 -7q0 10 -1 21.5t-3 23.5q0 29 -6 51.5t-27 22.5q-12 2 -27.5 0t-29.5 -1t-23.5 7t-9.5 25q0 4 1 16 t1 27q0 14 1 26.5t1 16.5q8 6 16.5 2t16.5 -12.5t16.5 -15.5t18.5 -7q27 0 57 -4l62 -8q31 -4 59.5 -5.5t52.5 7.5l-32 -197q53 -2 89 4t70 4l19 -160q-49 2 -99.5 3.5t-99.5 3.5q-4 -57 -5 -114.5t1 -117.5l172 19l31 -150q-25 2 -49 2h-50h-98q4 -117 -3 -231.5 t-48 -225.5q-20 -51 -55 -103t-81 -95t-101.5 -69.5t-114.5 -26.5q-20 0 -43 2t-43.5 9t-37 21.5t-22.5 36.5q-4 23 5.5 41.5t25.5 31.5t36.5 20.5t41.5 7.5q14 0 28.5 -11.5t25.5 -28t20.5 -34t15.5 -27.5q47 23 89 59.5t72.5 82t48 97.5t17.5 105v90q0 23 -2 46.5 t-10 45.5q-14 -4 -33.5 -14t-32.5 -16q-35 -18 -61.5 -32.5t-53 -24t-57 -14.5t-69.5 -5q-76 -2 -157 29.5t-134 85.5q-35 33 -51.5 67.5t-24.5 73.5q-82 -4 -151.5 -7t-94.5 -3zM455 612q-2 -39 2 -75.5t4 -73.5v-33q0 -20 2 -31l69 -2l472 -4v35v100v52q0 25 -3 49 q-82 4 -154.5 9t-130 9t-94 7t-47.5 3h-18q-14 0 -25 -2l-75 -18q-2 -7 -2 -25zM492 264q4 -12 9 -24.5t11 -22.5q29 -59 75 -97t115 -38q47 0 92.5 18.5t86.5 44.5q2 4 13 11.5t13 9.5q16 23 33 47l33 49q0 2 2 2q-117 0 -211 2t-146 2h-45q-8 0 -18 -1t-23 -1z" />
<glyph unicode="&#xa6;" horiz-adv-x="385" d="M86 1786q18 -31 39.5 -36t43 1t41 14.5t36.5 1.5v-71q0 -41 -1 -102.5t-2 -136.5t-2 -161t-3 -174l-93 4v383q-8 57 -29.5 135.5t-29.5 141.5zM150 614h90q-2 -160 -4.5 -269t0.5 -130q2 -31 10 -84t16 -108.5t14.5 -103.5t6.5 -69q-25 29 -49.5 36.5t-79.5 -9.5v80 q0 47 -1 116.5t-1 155.5t-1 184.5t-1 200.5z" />
<glyph unicode="&#xa7;" horiz-adv-x="860" d="M45 426q-10 119 72 201q18 18 73 55q-123 39 -129 154q-10 119 72 200q16 16 61.5 47t120.5 76q57 33 115 51q16 -2 34.5 -1t35.5 5q68 14 131 -45q59 -59 65 -135q2 -18 -6 -37.5t-22.5 -35t-34 -24.5t-39.5 -9q-70 0 -109 86l35 96q-51 10 -88 10q-129 0 -186 -76 q-47 -59 -41 -116q2 -35 16 -47q45 -53 191 -70q37 -2 90 -9t125 -20q178 -51 192 -204q8 -96 -33 -154q-18 -25 -39.5 -47.5t-48.5 -42.5q92 -55 105 -166q8 -96 -33 -154q-158 -209 -487 -209h-27q-76 0 -96 7q-39 10 -65.5 44.5t-24.5 75.5q6 96 123 97q66 0 83 -64 q8 -20 3 -39q-6 -23 -5 -39q2 -39 54 -45q35 -4 75 8q164 41 238 199q12 29 10 53q-10 106 -162 134q-47 2 -116.5 9t-163.5 19q-154 33 -164 162zM188 518q2 -35 17 -47q45 -53 190 -70q35 -2 88.5 -9t120.5 -19q16 18 28.5 39.5t24.5 46.5q12 29 11 53q-10 106 -162 133 q-43 2 -103.5 7t-140.5 16q-20 -12 -33 -33q-47 -60 -41 -117z" />
<glyph unicode="&#xa8;" horiz-adv-x="720" d="M16 1522q0 37 23.5 55t54.5 31q8 4 24.5 10t24.5 6q18 0 34 -11t28 -24q10 -10 22.5 -26.5t12.5 -32.5q0 -4 -3.5 -13.5t-7.5 -18.5t-8 -17t-6 -11q-10 -29 -42 -40t-66.5 -4.5t-62.5 30t-28 66.5zM418 1524q0 37 23.5 55t54.5 31q8 4 24.5 10t24.5 6q18 0 33.5 -11 t27.5 -24q10 -10 22.5 -26.5t12.5 -32.5q0 -4 -3 -13.5t-7 -18.5t-8.5 -17t-6.5 -10q-10 -29 -41.5 -40.5t-66.5 -5t-62.5 30t-27.5 66.5z" />
<glyph unicode="&#xa9;" d="M0 772q0 135 35 258t115 234q143 199 340.5 290t439.5 91q141 0 269 -51.5t232.5 -137.5t180.5 -202.5t112.5 -245.5t28.5 -266.5t-72 -266.5q-55 -119 -146 -212t-203.5 -156.5t-239.5 -97.5t-254 -34q-150 0 -264.5 36t-215.5 102q-358 229 -358 659zM167 732 q13 -157 87 -302t205 -258q86 -72 191.5 -94.5t209.5 -22.5q78 0 140.5 7.5t116.5 28t104.5 56t105.5 93.5q123 123 193.5 269t70.5 327q0 154 -51 289t-143 236t-222.5 159.5t-287.5 58.5q-162 0 -294 -58.5t-237 -187.5q-109 -133 -155.5 -288.5t-33.5 -312.5zM360 797 q0 98 35 179t99 152q156 190 411 191q35 0 65.5 -4t61.5 -10q37 -6 79 -22.5t78 -41t60.5 -59.5t28.5 -78q2 -37 -20.5 -61.5t-59.5 -24.5t-56.5 16.5t-21.5 38t13.5 43t46.5 31.5q-20 39 -51 60.5t-67 30.5t-76 11t-81 2h-121q-55 0 -108 -34q-104 -72 -146.5 -170.5 t-42.5 -215.5q0 -78 18.5 -150.5t65.5 -131.5q70 -86 159 -123t200 -37q66 0 126 17.5t113 62.5q59 45 95 117q10 10 22 9t21 -11q-45 -104 -130 -165t-186.5 -82.5t-209 -2t-195.5 75.5q-100 66 -163 165t-63 222z" />
<glyph unicode="&#xaa;" horiz-adv-x="759" d="M57 1081q0 53 20.5 102.5t51.5 86.5q61 66 140 94.5t167 28.5q16 23 17 57q0 23 -7.5 52.5t-19.5 47.5q-12 16 -36.5 23.5t-55.5 7.5q-27 0 -53.5 -5t-42.5 -13l-17 -9q-8 -4 -8 -14q6 -14 14 -22q4 -4 9.5 -13.5t5.5 -13.5q0 -14 -8.5 -22.5t-20.5 -12.5t-25.5 -7 t-21.5 -5q-6 10 -21.5 30.5t-15.5 32.5q0 10 8 21q6 8 15.5 15t17.5 11q88 68 197 68q41 0 76.5 -10t64.5 -39q23 -47 32 -98.5t10 -105.5t-2 -108.5t-3 -103.5v-27q0 -23 2 -52t6 -40q4 -16 19.5 -21t29.5 -5q23 0 38 13t24.5 29.5t16.5 31t15 18.5q14 -12 15 -25 q0 -18 -14.5 -36.5t-20.5 -38.5q-25 -27 -64 -38.5t-73 -15.5q-39 -4 -62.5 23.5t-40.5 58.5q-113 -92 -262 -82q-12 0 -26.5 7.5t-27.5 18.5l-27 22q-13 11 -21 20q-15 28 -15 63zM164 1141q0 -39 22.5 -75t59.5 -48q2 -2 10 -2h12q35 0 64.5 9t56.5 36q41 43 53.5 98 t3.5 111q-4 27 -21 42t-41 22t-50.5 8t-46.5 -1q-33 -23 -66 -68.5t-47 -80.5q-10 -26 -10 -51zM244 711q0 37 23.5 55t54.5 31q8 4 24 10t25 6q18 0 33.5 -11t27.5 -24q10 -10 22.5 -26.5t12.5 -32.5q0 -4 -3 -13.5t-7 -18.5t-8.5 -17t-6.5 -11q-10 -29 -41.5 -40 t-66.5 -4.5t-62.5 30t-27.5 66.5z" />
<glyph unicode="&#xab;" horiz-adv-x="868" d="M45 512q27 27 63.5 70t71.5 88t65.5 88t47.5 73l121 -169q-14 -20 -50 -44t-78 -45.5t-79 -38t-53 -24.5q20 -12 58 -30.5t78 -38t74.5 -42t49.5 -43.5l-117 -145l-2 2q-41 59 -107.5 140t-142.5 159zM430 508q27 27 63.5 70t71.5 88t66 88t47 73l121 -170 q-14 -20 -50 -43.5t-78 -45t-79 -38t-53 -24.5q20 -12 58 -30.5t78 -38t74.5 -42t49.5 -43.5l-117 -145l-2 2q-41 59 -107.5 140t-142.5 159z" />
<glyph unicode="&#xac;" horiz-adv-x="2611" d="M25 1450q0 39 19 60.5t48 37.5q76 49 177.5 66.5t208 14.5t211 -19.5t190.5 -34.5q16 6 31.5 14t25.5 23q20 4 57 5t76 1t75 -1t56 -1v-254q72 78 164 131t203 53q29 0 63.5 -6t63.5 -16q8 -6 14 -11.5t12 -9.5q0 14 -1 27.5t-1 30.5q-10 23 -37.5 29.5t-44.5 -11.5 q-14 4 -11 19.5t7 23.5l594 -10q18 -37 44 -71t36 -75q-12 4 -28.5 20.5t-33 35t-33 34t-30.5 15.5q-23 2 -69 7t-96 8t-97 3t-68 -6q-18 -4 -28.5 -18.5t-14.5 -30.5q-2 -16 -1 -32.5t1 -33.5q0 -25 -1 -49t-1 -51q6 -23 8.5 -48.5t4.5 -49.5v-25q51 -16 104 -19t105 1 q23 0 51 2t45 -2q12 4 19 20.5t7 32.5q0 12 -2 14v15q0 14 3 25.5t20 11.5q10 0 14 -5v-258h-8q-23 0 -30 15.5t10 27.5q-4 16 -12.5 36t-24.5 30l-6 2h-295l4 -264q0 -6 1 -15.5t1 -15.5q0 -53 6 -102l16 -15l13 -4q20 -2 42.5 -3t47.5 -3q0 18 -2 32.5t-4 20.5 q-2 16 -16.5 20.5t-30 5.5t-27.5 5t-10 23q37 -6 79 -7q43 0 87.5 3.5t88.5 7.5t83 4q49 0 96 -8.5t92 -28.5q23 29 46.5 55.5t55.5 36.5l9 -6q-49 -49 -72 -109q8 -4 15 -8t13.5 -8t18.5 -14.5t16 -16.5q12 -23 19.5 -54.5t7.5 -53.5q0 -31 -14.5 -56.5t-35 -47t-46 -40 t-45.5 -32.5q51 -12 100 -37t78 -72q10 -18 14 -39.5t4 -42.5q0 -53 -24.5 -98t-53.5 -84q-6 -8 -13 -16.5t-13 -14.5q-10 -10 -20.5 -16t-20.5 -10q-70 -43 -152 -56.5t-159 -13.5q-53 0 -108.5 1t-111.5 3h-14v-2h-262l-2 12q0 8 12 12.5t27.5 8.5t29 9t13.5 17 q0 8 -6 21.5t-15.5 28t-18.5 26.5t-16 19q-20 33 -67 32h-31h-18q-12 0 -21 2q-16 2 -32 2h-31h-64h-131q-43 0 -83 -3t-83 -7q-16 -33 -34.5 -62.5t-18.5 -66.5q8 -10 22 -11l26 -2q13 -1 22.5 -6t9.5 -24q0 -6 -14.5 -7t-24.5 -1h-88q-20 0 -39.5 1t-38.5 3h-12 q-29 -4 -57.5 -6t-61.5 -2t-59.5 1t-48.5 3l-226 18h-49q-94 0 -172 -26q-8 6 -7 16t3 21q20 4 30.5 8t16.5 10t10 16.5t15 28.5q4 190 -3.5 373.5t-11.5 376.5q-10 8 -24.5 12t-14.5 22q0 8 2 13h17q18 0 42.5 -1t33.5 -1h2q-53 59 -78 135q-10 35 -14.5 70.5t-4.5 74.5 q0 80 21.5 147.5t75.5 133.5q10 10 16 20.5l14 24.5q27 25 52.5 42t54.5 34l31 16q-4 8 -28 9t-52 1q-29 0 -53.5 -2t-32.5 -6q-41 0 -74 -8q-29 -4 -54.5 -11t-47.5 -18q-23 -8 -42.5 -19t-29.5 -32q-8 -10 -6 -22.5t2 -22.5q0 -12 -9.5 -24.5t-19.5 -12.5t-17 12.5 t-7 22.5zM326 1196q0 -98 27.5 -176t92.5 -133q8 0 11 2q4 -4 4 -12q10 -6 18 -13.5t21 -13.5q90 -53 198 -53q66 0 116 7t90 28.5t72 59.5t62 99l27 -2q-4 -37 -25.5 -69.5t-44.5 -61.5q-10 -10 -20 -19.5t-21 -17.5q-59 -47 -126.5 -67.5t-139.5 -20.5q-23 0 -47.5 2 t-46.5 6q-127 23 -221 99q-4 0 -4 -4v-2q-14 -186 -8 -377t16 -377q20 -16 47 -19.5t54.5 -1.5t55 5.5t54 1t63.5 -5.5t76 -5t75 -3t62 -1q16 0 48 2t55 6q23 45 44 92.5t46 94.5q41 88 81 172t85 170q29 55 63.5 117.5t75.5 109.5q27 31 62.5 57.5t80.5 12.5l13 -37 q-10 10 -29 11t-29 -5q-8 -4 -16 -17.5t-4 -23.5q4 -16 6 -33.5t6 -36.5q2 -4 8 -18t13.5 -30.5t13.5 -32t8 -21.5q29 -59 57 -121l58 -123q41 -86 88 -169t100 -162q14 -8 35.5 -21.5t40.5 -17.5q23 4 44 13t34 32q6 76 7 148.5t1 150.5q0 86 -2 166.5t-6 167.5v10 q0 12 -2 18h-29q-72 0 -139.5 -2t-136.5 2q-10 8 -8.5 23.5t5.5 27.5q10 4 21.5 -6t26.5 -12q4 2 10 2t10 4l21 21v274q0 66 -4.5 129.5t-14.5 128.5q-2 10 -3 17.5t-3 17.5q-4 14 -14.5 31.5t-24.5 34t-29.5 28.5t-29.5 16q-16 8 -42 10.5t-42 2.5q-113 0 -185.5 -58.5 t-113.5 -156.5q-14 -33 -25.5 -83t-15.5 -85q-2 -66 6 -123q4 -45 7 -91t-1 -93q4 -10 18.5 -12.5t30 -4.5t26.5 -9t9 -30h-254l2 33q16 0 34.5 1t31.5 11l16 27l-2 737q-4 8 -19.5 14.5t-35 11.5t-40 8t-38.5 3q-27 0 -35 -6l-2 6q-2 -23 -9 -41t-18 -37q-10 -16 -28.5 -47 t-30.5 -43q-4 -4 -15.5 3t-15.5 7q14 20 7 42t-24.5 39.5t-40 30.5t-36.5 19q-49 18 -97 15.5t-91 -21t-79 -51.5t-63 -74q-71 -102 -71 -229zM803 631q-4 20 7 33.5t27.5 19.5t35 5t28.5 -9q25 -18 28 -46t-7.5 -57.5t-29 -58.5t-36.5 -47t-31.5 -24.5t-13.5 8.5l10 10 q29 33 39 54.5t12 34.5t-2 20.5t-4 11.5q-55 0 -63 45zM1104 225q248 -10 498 0q0 6 -19.5 48t-43 91.5t-44 91.5t-22.5 50q-12 27 -25 58l-25 64q-12 32 -25.5 61.5t-27.5 51.5q-82 -123 -145.5 -252t-120.5 -264zM2044 82l33 -39q92 -29 173 -6.5t156 82.5 q47 41 60.5 112.5t-12.5 130.5q-39 76 -127 95q-12 4 -21 4h-18q-10 0 -19.5 2t-19.5 2h-43h-21q-12 0 -18 2q0 2 -1 3t-1 5q0 8 2 17.5t8 13.5h12q49 0 99.5 13t87.5 48q14 8 22 23q8 16 12.5 44t4.5 46q0 31 -11 61q-4 -4 -4 -8q-49 4 -100 2t-103 -2h-151v-651zM2044 772 q66 -2 133.5 0t134.5 8l21 13q10 6 18 14q-18 10 -41.5 22.5t-34.5 16.5q-4 2 -19 3t-33.5 2t-36 2t-23.5 1q-35 0 -66 -9t-53 -38v-35z" />
<glyph unicode="&#xad;" horiz-adv-x="634" d="M61 561q12 18 16.5 40t5.5 44.5t5 44t16 39.5q53 -4 121 -23.5t135 -19.5q57 0 102.5 14.5t110.5 18.5q-12 -16 -16 -36.5t-4 -43.5q0 -20 -1 -40.5t-9 -39.5q-59 2 -125 14.5t-125 12.5q-63 0 -124 -11.5t-108 -13.5z" />
<glyph unicode="&#xae;" horiz-adv-x="1269" d="M78 1059q0 127 46 230.5t124 177t177 114.5t206.5 43t214 -38t196.5 -128q166 -166 166 -399q0 -238 -166 -400q-88 -88 -193.5 -127.5t-213 -37.5t-207.5 43t-178 114.5t-125 177t-47 230.5zM143 1057q0 -207 146 -352q78 -78 172 -114t188 -33t183.5 40t158 102.5 t110.5 156.5t42 202q0 207 -148 352q-80 80 -174 115t-188 32.5t-182.5 -39t-157 -102t-109.5 -157.5t-41 -203zM420 1383.5q6 -5.5 15 -8.5l19 -6q9 -3 13 -9q2 -66 3 -129.5t1 -126.5v-262q0 -16 -6 -23.5t-12.5 -10.5t-11.5 -8t-3 -18h150q0 18 8 27q-16 -2 -34.5 1 t-26.5 19q-2 47 -4.5 106.5t8.5 104.5l16 4l18 -6q37 -27 74 -70.5t77 -84.5t84 -72t97 -31q16 0 37 6.5t31 22.5q0 23 -9.5 33t-21.5 10q-10 0 -19.5 -8t-9.5 -21q0 -6 1 -12t1 -14q-18 4 -36.5 15t-32.5 22q-2 2 -14.5 16t-26.5 30.5t-17 18.5q-45 51 -89 92t-109 64 q43 8 100.5 22.5t89.5 46.5q27 27 45.5 58.5t8.5 68.5q-18 74 -80 112t-129 38q-53 0 -102.5 -3t-102.5 1q-6 -10 0 -15.5zM535 1098l4 258q8 12 29.5 16t45.5 4q27 0 51.5 -4t36.5 -8q10 -10 20.5 -21.5t20.5 -21.5q8 -12 15.5 -44t7.5 -46q0 -10 -3 -29.5t-9 -30.5 q-12 -25 -37 -43t-54.5 -29.5t-60.5 -16.5t-55 -1z" />
<glyph unicode="&#xaf;" horiz-adv-x="794" d="M92 1395q12 18 16.5 39.5t5.5 44t5 44t16 40.5q27 -2 78 -8.5t108.5 -12.5t111.5 -11t89 -5q57 0 102.5 14t110.5 19q-12 -16 -16 -37t-4 -43q0 -20 -1 -41t-9 -39q-29 0 -81.5 3t-108.5 7t-108.5 7t-82.5 3q-63 0 -124 -11t-108 -13z" />
<glyph unicode="&#xb0;" horiz-adv-x="612" d="M104 1108q0 98 70 160q59 53 135 53q57 0 106.5 -27.5t73.5 -79.5q23 -49 15 -105t-37 -101q-51 -88 -154 -88q-53 0 -96 15t-78 58q-18 25 -26.5 54.5t-8.5 60.5zM197 1130q0 -55 26 -94q31 -53 94 -53q47 0 78 39q27 33 24 78t-20 84q-10 23 -29.5 43t-47.5 24 q-6 0 -13.5 1t-13.5 1q-18 0 -36.5 -6t-31.5 -22q-30 -42 -30 -95z" />
<glyph unicode="&#xb1;" horiz-adv-x="995" d="M92 791q12 18 16.5 43.5t5.5 53t5 53.5t16 44q31 -4 89.5 -1t127.5 3h47q25 0 47 -2q-4 80 -22 167t-23 148q16 -12 37 -16t41 -4q23 0 43.5 -1t38.5 -9q0 -25 -1 -65t-3 -87t-4 -97t-4 -93q37 2 86 8t99 12t95 12.5t76 8.5q-12 -16 -16 -37t-4 -43q0 -20 -1 -41t-10 -39 q-25 0 -62.5 2t-81.5 5t-91 6t-90 3q2 -47 8 -103t12 -110.5t11.5 -98.5t5.5 -64q-18 12 -40 16t-44.5 5t-44 5t-39.5 17q2 20 5 58t6 83t7 95t8 97q-47 -2 -101 -8t-103.5 -12t-89.5 -10t-58 -4zM94 131q12 18 16.5 40t5.5 44.5t5 44t16 39.5q20 -2 54 -6t75 -7t88 -7.5 t95 -6.5l102 -4q37 2 86 8.5t99 12.5t95.5 12t75.5 8q-12 -16 -16 -36.5t-4 -43.5q0 -20 -1 -40.5t-9 -38.5q-25 0 -63 2t-82 5t-91 6t-90 3q-16 2 -29 2h-18h-8q2 0 10 -1l8 -1h-14h-54q-47 -2 -101 -8t-103 -12.5t-89.5 -10.5t-58.5 -4z" />
<glyph unicode="&#xb2;" horiz-adv-x="673" d="M48 972q1 11 9.5 22.5t19.5 21.5t17 14q16 10 54 37t84.5 62.5t96.5 77.5t90 85t64.5 84t21.5 74t-40 55.5t-121 28.5q-4 0 -20.5 -2t-20.5 -2q-45 -8 -84 -28.5t-55 -65.5l29 -109q-10 -23 -26.5 -11.5t-27.5 21.5q-35 41 -35 97q0 23 2.5 34t12.5 29q2 4 15 18.5 t18 18.5q45 45 99 70.5t120 25.5h12q23 0 62.5 -5t77.5 -22.5t66.5 -47t28.5 -78.5q0 -78 -17 -123t-56 -86t-102.5 -89.5t-155.5 -131.5q18 6 27.5 7t15.5 1q8 0 17 -1t28 -1q45 0 76.5 2t55 14t44 38t45.5 73h16q-6 -72 -23.5 -117t-43.5 -111l-82 21q-14 -2 -20.5 -3 t-10.5 -2t-6 -2t-8 -1h-25q-51 0 -90 1t-76 1t-76.5 -3t-91.5 -12q-12 9 -11 20z" />
<glyph unicode="&#xb3;" horiz-adv-x="679" d="M30 845q5 9 16 18t23.5 15.5t18.5 8.5q12 4 24.5 5t24.5 5l58 16q29 8 57 19q33 12 79 38.5t74.5 62.5t25.5 79t-69 90q-12 8 -35.5 1t-50 -19.5t-50 -26.5t-36.5 -20q-16 27 -8 48t25 44q10 16 20 31l21 28l196 228q-31 -6 -49 -7q-29 0 -50 6.5t-66 6.5 q-47 0 -90.5 -15.5t-71.5 -56.5q-6 -10 -9.5 -20.5t-9.5 -18.5q-4 -6 -16 -15.5t-23 -0.5q0 35 7.5 59.5t16.5 47t17.5 47t8.5 59.5l24 16q80 -6 137 -6q45 0 85 2t81 4t88 4t107 4q-43 -61 -74 -99t-60.5 -70.5t-62.5 -69.5t-80 -95q100 -39 138 -91t31 -107.5t-54 -107.5 t-115.5 -92t-153.5 -60.5t-169 -12.5q-6 9 -1 18z" />
<glyph unicode="&#xb4;" horiz-adv-x="468" d="M59 1391v2q92 59 166 113.5t140 119.5l63 -84q-43 -29 -81 -52.5t-77 -45t-78.5 -42t-85.5 -42.5z" />
<glyph unicode="&#xb5;" horiz-adv-x="1136" d="M-23 -348q29 6 68 21.5t59 37.5q8 10 13.5 29.5t8.5 41t4 42t1 33.5q0 31 -1 67.5t-1 106.5q0 72 -1 190.5t-1 313.5h4q0 70 -3 134t-17 117q-16 -10 -37 -19t-39 -9q-16 0 -27.5 12t-7.5 47q33 8 67.5 37t69.5 58.5t71 52t71 20.5q0 -23 2 -59.5t2 -69.5v-37 q0 -43 -2 -102.5t-5 -124.5q0 2 3 2v-199q4 -86 16 -159.5t41 -118.5q37 -59 103.5 -70.5t127.5 8.5q139 51 211 174q29 68 33 155t4 163q0 59 -4 119.5t-18 119.5q-16 0 -32 -6t-31 -9t-28.5 -2t-25.5 17v43q39 6 74.5 28t69.5 46.5t68 48t68 33.5q-4 -74 -9 -165t-5 -165 q0 -129 1 -259t9 -259q18 -39 40 -33.5t42.5 17.5t33.5 15t17 -42q-27 -10 -60.5 -27.5t-69 -33t-69.5 -25.5t-56.5 -4t-30.5 34t6 85q-100 -86 -222 -114.5t-251 -22.5l-29 14q-12 6 -24 14v-229q12 -29 26 -64.5t51 -39.5q8 0 21.5 -1.5t27 -5.5t22.5 -11t11 -17.5 t-9 -16.5t-26.5 -10t-30 -6t-20.5 -2q-10 0 -20 2l-21 4q-20 2 -39.5 3t-40.5 1q-59 0 -120.5 -5t-120.5 -5q-10 10 -11.5 19.5t-1.5 21.5z" />
<glyph unicode="&#xb6;" horiz-adv-x="1052" d="M37 1001q0 143 56.5 262t160.5 218q45 43 100.5 71.5t114.5 45t121.5 22.5t124.5 6h233q-2 -59 -4 -115.5t-3 -118t-2 -132t-1 -156.5t-1 -191.5t-1 -238.5q0 -131 -1 -295t-1 -365q14 -14 34.5 -9t40 9t34 -1t16.5 -38l-340 -176q-33 0 -33 37q0 14 12 25q10 6 19.5 11 t19.5 13q41 35 55.5 84t16.5 103l-313 -162q-33 0 -33 37q0 14 12 24q10 6 19.5 11.5t19.5 13.5q41 35 56.5 87t15.5 105q0 14 -1 64.5t-3 122t-3 157.5t-1 173q-23 -4 -43.5 -7.5t-42.5 -7.5l-70 -8q-35 -4 -70 -4q-227 0 -305 213q-8 20 -9 53.5t-1 56.5zM711 125 q10 -10 20 -10q20 0 41 6t37 6q0 61 -2 163.5t-2 209.5v131q0 61 2 105t6 61q-10 6 -22 6q-16 0 -36 -11.5t-40 -25.5z" />
<glyph unicode="&#xb7;" horiz-adv-x="292" d="M41 508q0 37 23.5 55.5t54.5 30.5q8 4 24.5 10t24.5 6q18 0 33.5 -11t27.5 -24q10 -10 22.5 -26.5t12.5 -32.5q0 -4 -3 -13t-7 -18.5t-8 -17.5t-6 -10q-10 -29 -42 -40t-67 -5t-62.5 29.5t-27.5 66.5z" />
<glyph unicode="&#x2219;" horiz-adv-x="292" d="M41 508q0 37 23.5 55.5t54.5 30.5q8 4 24.5 10t24.5 6q18 0 33.5 -11t27.5 -24q10 -10 22.5 -26.5t12.5 -32.5q0 -4 -3 -13t-7 -18.5t-8 -17.5t-6 -10q-10 -29 -42 -40t-67 -5t-62.5 29.5t-27.5 66.5z" />
<glyph unicode="&#xb8;" horiz-adv-x="464" d="M12 -485q-2 6 3 11t12.5 9t13.5 6t6 0q8 0 10 2q12 4 24.5 7.5t24.5 7.5q45 18 83 44.5t69 65.5q4 8 10 15.5t11 17.5q8 10 10 31.5t2 36.5q0 45 -25 75q-6 10 -28.5 18.5t-32.5 12.5q-8 0 -21.5 -4t-28 -9t-26.5 -10.5t-18 -7.5q-8 12 -5 21.5t11 19.5q4 8 9 13.5 t9 11.5l101 133h126q-23 -33 -45 -63.5t-47 -61.5q37 2 66 -7t55 -36q25 -25 30 -54.5t-2 -59t-22.5 -58.5t-31.5 -51q-27 -35 -56.5 -59.5t-70.5 -41.5q-18 -8 -48 -16t-63 -13t-64 -7t-51 0z" />
<glyph unicode="&#xb9;" horiz-adv-x="524" d="M45 1010q29 6 68 21.5t59 37.5q16 23 21.5 41t5.5 45q0 31 1 20.5t1 -28.5t1 -28.5t1 20.5v334q-8 8 -29 8q-14 0 -29.5 -1t-31.5 -1t-31 6v39q23 12 48.5 22t49.5 21q45 16 77 33.5t75 33.5l-8 -491q12 -29 26.5 -65t50.5 -40q8 0 21.5 -1t27 -5t22.5 -11t11 -17.5 t-9 -16.5t-26.5 -10t-30 -6t-20.5 -2q-10 0 -20 2l-21 4q-20 2 -39.5 3t-40.5 1q-59 0 -109 -5t-110 -5q-10 10 -11 19.5t-1 21.5z" />
<glyph unicode="&#xba;" horiz-adv-x="862" d="M55 1264q0 90 31 162.5t85 122.5t128 78t162 28q76 0 126 -14.5t107 -65.5q25 -23 46.5 -45.5t33.5 -54.5q18 -43 25.5 -90.5t7.5 -94.5q0 -86 -31 -152.5t-84 -113.5t-124.5 -72.5t-151.5 -27.5q-100 -4 -171 26.5t-130 116.5q-60 91 -60 197zM163 1261.5 q9 -73.5 48 -140t104 -109.5q29 -18 57.5 -30.5t61.5 -16.5q68 -4 118 28.5t84 83.5t50 113.5t16 120.5q0 104 -47 194q-35 63 -89 87t-124 24q-55 0 -106 -14.5t-88 -57.5q-53 -59 -73.5 -134t-11.5 -148.5zM324 705q0 37 23.5 55t53.5 31q8 4 24.5 10t25.5 6 q18 0 33.5 -11.5t27.5 -23.5q10 -10 22.5 -26.5t12.5 -32.5q0 -4 -3 -13.5t-7.5 -18.5t-8.5 -17.5t-6 -10.5q-10 -29 -41.5 -40t-66.5 -5t-62.5 30t-27.5 67z" />
<glyph unicode="&#xbb;" horiz-adv-x="868" d="M45 352q14 20 48 43t74 43.5t78 38t60 29.5q-16 8 -53 24.5t-79 38t-78 45t-50 43.5l121 170q14 -31 44 -74.5t65.5 -90t72.5 -88.5t66 -66q-76 -78 -142.5 -159t-107.5 -140l-2 -2zM430 356q14 20 48 43t74 43.5t78 38t60 29.5q-16 8 -53 24.5t-79 38t-78 45t-50 44.5 l121 169q14 -31 44 -74.5t65.5 -89.5t72.5 -88t66 -67q-76 -78 -142.5 -159t-107.5 -140l-2 -2z" />
<glyph unicode="&#xbc;" horiz-adv-x="1675" d="M49 705q29 6 68 21t59 38q8 10 13.5 29.5t8.5 41t4 42t1 32.5q0 59 -2 121t-2 121v334q-8 8 -29 8q-14 0 -29.5 -1t-31.5 -1t-31 6v39q23 12 48.5 22.5t49.5 20.5q45 16 88 33.5t86 34.5v-809q12 -29 26.5 -65t51.5 -40q8 0 21.5 -1t26.5 -5t22.5 -11t11.5 -17.5 t-9.5 -16.5t-26.5 -10t-29.5 -6t-20.5 -2q-10 0 -21 2l-20 4q-20 2 -39.5 3t-40.5 1q-59 0 -120.5 -5t-121.5 -5q-10 10 -11 19.5t-1 21.5zM70 -49q6 12 52 80.5t116.5 174t158.5 237.5t180.5 269.5t180.5 270.5t158.5 240.5t116.5 179.5t54 86q12 27 23.5 61.5t22 71.5 t21.5 73t24 66q0 -37 15 -51t36.5 -20.5t43 -9.5t34.5 -17q-2 -25 -44 -97.5t-110 -177t-154 -230.5t-177 -256t-179 -256t-159.5 -228.5t-120 -172t-58.5 -89.5q-14 -29 -30.5 -75t-32 -93t-29.5 -89t-25 -63q-8 41 -34.5 70t-83.5 45zM504 346q109 109 212 224.5 t205 232.5l202 233q101 117 208 230h19l-13 -809l17 -13q53 -10 83.5 -8t52 17.5t41 47t50.5 81.5q6 20 25 34q10 0 18 -5t14 -11q-16 -68 -45.5 -130t-68.5 -120h-60h-28h-27h-23q-14 0 -36 2q0 -6 1 -12t1 -12v2q-4 -16 -4 -21v-18q-4 -20 -5.5 -40t-3.5 -40q-2 -4 -2 -23 v-20q0 -41 20.5 -76t65.5 -41q6 -2 17 -2h16q16 0 31 -14q0 -27 -17 -37q-215 18 -428 0q-6 4 -8 13t-2 18q12 10 41 21t45 16q8 2 20.5 8t25 14t21.5 18.5t9 20.5v219h-690zM707 440l475 13q0 119 2 247.5t-15 247.5q-55 -49 -102 -106.5t-93 -114.5t-95.5 -112.5 t-106.5 -100.5q-8 -18 -35.5 -36t-29.5 -38z" />
<glyph unicode="&#xbd;" horiz-adv-x="1556" d="M49 705q29 6 68 21t59 38q8 10 13.5 29.5t8.5 41t4 42t1 32.5q0 59 -2 121t-2 121v334q-8 8 -29 8q-14 0 -29.5 -1t-31.5 -1t-31 6v39q23 12 48.5 22.5t49.5 20.5q45 16 88 33.5t86 34.5v-809q12 -29 26.5 -65t51.5 -40q8 0 21.5 -1t26.5 -5t22.5 -11t11.5 -17.5 t-9.5 -16.5t-26.5 -10t-29.5 -6t-20.5 -2q-10 0 -21 2l-20 4q-20 2 -39.5 3t-40.5 1q-59 0 -120.5 -5t-121.5 -5q-10 10 -11 19.5t-1 21.5zM70 -49q6 12 52 80.5t116.5 174t158.5 237.5t180.5 269.5t180.5 270.5t158.5 240.5t116.5 179.5t54 86q12 27 23.5 61.5t22 71.5 t21.5 73t24 66q0 -37 15 -51t36.5 -20.5t43 -9.5t34.5 -17q-2 -25 -44 -97.5t-110 -177t-154 -230.5t-177 -256t-179 -256t-159.5 -228.5t-120 -172t-58.5 -89.5q-14 -29 -30.5 -75t-32 -93t-29.5 -89t-25 -63q-8 41 -34.5 70t-83.5 45zM773 -13.5q1 11.5 9.5 21.5 t19.5 20.5t17 16.5l132 132q75 75 141.5 160t112.5 175t46 176q0 23 -4 58.5t-12 54.5q-6 14 -22.5 30.5t-37 29.5t-42 22.5t-35.5 11.5q-4 0 -20.5 -2t-20.5 -2q-45 -8 -84 -28.5t-55 -65.5l12 -181q-10 -23 -26.5 -11.5t-26.5 22.5q-35 41 -35 96q0 12 3 30.5t7 39t9 38 t11 27.5q2 4 15.5 18.5t17.5 18.5q45 45 99.5 70.5t119.5 25.5h13q94 0 159.5 -30.5t100.5 -122.5q23 -61 19.5 -122t-30.5 -120q-2 -4 -16 -37t-26.5 -60.5t-14.5 -31.5q-29 -35 -52.5 -56.5t-53.5 -56.5l-211 -223l10 -12q37 10 76 8t78 -2q45 0 92 2t89 14.5t77.5 38 t60.5 72.5h16q-6 -72 -28.5 -145.5t-48.5 -139.5l-82 21q-35 -4 -72 -6t-72 -2q-104 0 -211.5 2t-212.5 -15q-12 8 -11 19.5z" />
<glyph unicode="&#xbe;" horiz-adv-x="1837" d="M41 1386q0 35 6 62t12.5 52.5t12.5 52t6 61.5l24 16q160 -10 321 -3t320 11q-43 -61 -76.5 -107t-67.5 -87t-70.5 -85t-84.5 -102q88 8 157 -13t132 -85q55 -55 67.5 -109.5t-4 -106.5t-53 -104.5t-77.5 -103.5q-41 -66 -111 -109.5t-150.5 -71.5t-166.5 -40t-160 -12 q-6 8 -1 17t16 18.5t23.5 15.5t18.5 8q12 4 24.5 5t24.5 5l58 17q29 8 57 18q55 20 87 32.5t55.5 27t45 38t56.5 68.5q14 18 27.5 36.5t23.5 39.5q8 14 14 35.5t9.5 44t5.5 45t2 39.5q0 27 -21.5 50t-53.5 42.5t-68 33t-62 17.5q-16 2 -40 -5t-49.5 -18.5t-48 -23.5 t-34.5 -18q-16 27 -8 48t24 44q10 16 21 30l20 29l215 266q-61 -14 -128.5 -4t-131.5 10q-47 0 -90 -15t-72 -56q-6 -10 -9 -20.5t-9 -18.5q-4 -6 -16.5 -15.5t-22.5 -1.5zM231 -49q6 12 52.5 80.5t117 174t158.5 237.5t180 269.5t180.5 270.5t159 240.5t116.5 179.5t54 86 q12 27 23.5 61.5t22 71.5t21.5 73t23 66q0 -37 15.5 -51t37 -20.5t43 -9.5t33.5 -17q-2 -25 -44 -97.5t-109.5 -177t-153.5 -230.5t-177 -256t-179 -256t-160 -228.5t-120 -172t-58 -89.5q-14 -29 -30.5 -75t-32 -93t-30 -89t-24.5 -63q-8 41 -35 70t-84 45zM666 346 q109 109 212 224.5t204 232.5l203 233q101 117 208 230h18l-12 -809l17 -13q53 -10 83.5 -8t52 17.5t41 47t50.5 81.5q6 20 24 34q10 0 18.5 -5t14.5 -11q-16 -68 -46 -130t-68 -120h-60h-29h-26h-23q-14 0 -37 2q0 -6 1 -12t1 -12v2q-4 -16 -4 -21v-18q-4 -20 -5 -40 t-3 -40q-2 -4 -2 -23v-20q0 -41 20.5 -76t65.5 -41q6 -2 17 -2h16q16 0 31 -14q0 -27 -17 -37q-215 18 -428 0q-6 4 -8 13t-2 18q12 10 41 21t45 16q8 2 20.5 8t24.5 14t21.5 18.5t9.5 20.5v219h-690zM868 440l475 13q0 119 2.5 247.5t-14.5 247.5q-55 -49 -102 -106.5 t-93 -114.5t-95.5 -112.5t-106.5 -100.5q-8 -18 -36 -36t-30 -38z" />
<glyph unicode="&#xbf;" horiz-adv-x="991" d="M51 -172q0 102 50.5 166.5t129.5 120.5l265 184q59 41 98 97.5t39 131.5q0 10 -8 11q-20 0 -42 -14.5t-57 -6.5q-18 12 -35.5 29.5t-17.5 42.5q0 31 27.5 52.5t56.5 21.5q59 0 105.5 -39t46.5 -103q0 -59 -36 -115.5t-73 -97.5q-16 -27 -31 -35l-215 -178 q-16 -14 -41.5 -37.5t-49 -50t-41 -54.5t-17.5 -52q0 -115 57 -186.5t141 -100.5t180.5 -11.5t174.5 81.5q53 43 83.5 97t30.5 124q-6 -2 -18 -10.5t-26.5 -16.5t-27 -15t-18.5 -7q-45 0 -59 33.5t-14 68.5q0 25 12 39t29.5 21.5t39 10.5t39.5 3q16 0 32 -2t30 -11 q2 -4 10 -19t16.5 -32.5t15.5 -33t7 -19.5q0 -76 -33 -147.5t-87 -131t-123.5 -100.5t-145.5 -55q-98 -18 -195.5 3t-175.5 83q-129 100 -129 260zM473 852q0 16 8 31l17 28q16 29 35.5 51.5t50.5 22.5q47 0 80.5 -38t33.5 -91q0 -35 -25.5 -53.5t-54.5 -28.5q-8 -4 -24 -10 t-25 -6q-16 0 -32.5 9t-30.5 23.5t-23.5 31t-9.5 30.5z" />
<glyph unicode="&#xc0;" horiz-adv-x="1900" d="M-2 12.5q10 12.5 35.5 27.5t54.5 29.5t37 16.5q49 88 91 182t85 187q76 160 151.5 317.5t157.5 317.5q53 104 119 217.5t139 201.5q25 29 54.5 58.5t63.5 50t73 28t82 -7.5l16 -67q-16 18 -50 21t-54 -7q-16 -10 -30.5 -34.5t-10.5 -45.5q4 -31 10 -63.5t14 -63.5 q2 -8 13.5 -33.5t24.5 -56.5t26.5 -58.5t19.5 -39.5q100 -231 209 -455q78 -160 165 -314.5t187 -301.5q12 -10 31 -22.5t38 -23t39.5 -17.5t39.5 -7v-53h-483l-7 22q2 16 27 23.5t52.5 13.5t50 15.5t22.5 31.5q0 16 -12.5 41t-28.5 50.5t-32.5 48t-26.5 34.5 q-47 66 -123 66h-64h-33q-20 0 -30 2q-61 2 -122 3t-120 1h-242q-78 0 -152.5 -5t-152.5 -11q-35 -61 -67.5 -117.5t-32.5 -128.5q14 -18 37.5 -20.5t47 -3.5t41 -11t17.5 -43q0 -10 -24.5 -12t-44.5 -2h-19q-16 2 -35 2h-36h-74q-37 0 -74 1t-72 3q-28 0 -18 12.5zM393 416 q459 -18 918 0q0 8 -16.5 48t-41 94t-54.5 116.5t-56.5 118t-45 94.5t-22.5 49q-23 49 -44 108.5t-43.5 119t-48.5 114.5t-56 96q-150 -229 -267 -466.5t-223 -491.5zM778 1917l64 84q66 -66 139.5 -120t165.5 -114v-2l-47 -30q-47 23 -87 43t-78 41.5t-76 45t-81 52.5z" />
<glyph unicode="&#xc1;" horiz-adv-x="1900" d="M-2 12.5q10 12.5 35.5 27.5t54.5 29.5t37 16.5q49 88 91 182t85 187q76 160 151.5 317.5t157.5 317.5q53 104 119 217.5t139 201.5q25 29 54.5 58.5t63.5 50t73 28t82 -7.5l16 -67q-16 18 -50 21t-54 -7q-16 -10 -30.5 -34.5t-10.5 -45.5q4 -31 10 -63.5t14 -63.5 q2 -8 13.5 -33.5t24.5 -56.5t26.5 -58.5t19.5 -39.5q100 -231 209 -455q78 -160 165 -314.5t187 -301.5q12 -10 31 -22.5t38 -23t39.5 -17.5t39.5 -7v-53h-483l-7 22q2 16 27 23.5t52.5 13.5t50 15.5t22.5 31.5q0 16 -12.5 41t-28.5 50.5t-32.5 48t-26.5 34.5 q-47 66 -123 66h-64h-33q-20 0 -30 2q-61 2 -122 3t-120 1h-242q-78 0 -152.5 -5t-152.5 -11q-35 -61 -67.5 -117.5t-32.5 -128.5q14 -18 37.5 -20.5t47 -3.5t41 -11t17.5 -43q0 -10 -24.5 -12t-44.5 -2h-19q-16 2 -35 2h-36h-74q-37 0 -74 1t-72 3q-28 0 -18 12.5zM393 416 q459 -18 918 0q0 8 -16.5 48t-41 94t-54.5 116.5t-56.5 118t-45 94.5t-22.5 49q-23 49 -44 108.5t-43.5 119t-48.5 114.5t-56 96q-150 -229 -267 -466.5t-223 -491.5zM778 1763v2q92 59 166 113.5t139 120.5l64 -84q-43 -29 -81 -52.5t-77 -45t-79 -42t-85 -42.5z" />
<glyph unicode="&#xc2;" horiz-adv-x="1900" d="M-2 12.5q-10 -12.5 18 -12.5q35 -2 72 -3t74 -1h74h36q18 0 35 -2h19q20 0 44.5 2t24.5 12q0 33 -17.5 43t-41 11t-47 3.5t-37.5 20.5q0 72 32.5 128t67.5 118q78 6 153 11t152 5h242q59 0 119.5 -1t122.5 -3q10 -2 30 -2h33h64q76 0 123 -66q10 -12 26.5 -34.5t32.5 -48 t28.5 -50t12.5 -41.5q0 -23 -22.5 -32t-50 -15t-52.5 -13t-27 -24l7 -22h483v53q-18 0 -39 7t-40 17.5t-37.5 23t-31.5 22.5q-100 147 -187 301.5t-165 314.5q-109 223 -209 455q-6 12 -19.5 39.5t-26.5 58.5t-24.5 56.5t-13.5 33.5q-8 31 -14 64t-10 63q-4 20 10 45t31 35 q20 10 54 7t50 -21l-16 67q-43 14 -82 7t-73 -27.5t-63.5 -50t-54.5 -58.5q-74 -88 -139 -201.5t-119 -217.5q-82 -160 -157.5 -318t-151.5 -317q-43 -92 -85 -186.5t-91 -182.5q-8 -2 -37 -16.5t-54.5 -29.5t-35.5 -27.5zM393 416q106 254 223 491.5t267 466.5 q31 -41 56.5 -96t48 -114.5t44 -119t43.5 -108.5q4 -10 22.5 -49t45 -94.5t56.5 -118t54.5 -116.5t41 -94t16.5 -48q-459 -18 -918 0zM618 1841q31 14 76 38t92.5 52.5t90.5 58t69 58.5q39 -37 82 -67.5t86 -56.5t82 -47.5t70 -41.5l2 -2l-146 -117q-23 14 -47 43t-49 61.5 t-45 64.5t-33 54q-10 -16 -28.5 -46.5t-41 -64.5t-46 -63.5t-44.5 -44.5z" />
<glyph unicode="&#xc3;" horiz-adv-x="1900" d="M-2 12.5q10 12.5 35.5 27.5t54.5 29.5t37 16.5q49 88 91 182t85 187q76 160 151.5 317.5t157.5 317.5q53 104 119 217.5t139 201.5q25 29 54.5 58.5t63.5 50t73 28t82 -7.5l16 -67q-16 18 -50 21t-54 -7q-16 -10 -30.5 -34.5t-10.5 -45.5q4 -31 10 -63.5t14 -63.5 q2 -8 13.5 -33.5t24.5 -56.5t26.5 -58.5t19.5 -39.5q100 -231 209 -455q78 -160 165 -314.5t187 -301.5q12 -10 31 -22.5t38 -23t39.5 -17.5t39.5 -7v-53h-483l-7 22q2 16 27 23.5t52.5 13.5t50 15.5t22.5 31.5q0 16 -12.5 41t-28.5 50.5t-32.5 48t-26.5 34.5 q-47 66 -123 66h-64h-33q-20 0 -30 2q-61 2 -122 3t-120 1h-242q-78 0 -152.5 -5t-152.5 -11q-35 -61 -67.5 -117.5t-32.5 -128.5q14 -18 37.5 -20.5t47 -3.5t41 -11t17.5 -43q0 -10 -24.5 -12t-44.5 -2h-19q-16 2 -35 2h-36h-74q-37 0 -74 1t-72 3q-28 0 -18 12.5zM393 416 q459 -18 918 0q0 8 -16.5 48t-41 94t-54.5 116.5t-56.5 118t-45 94.5t-22.5 49q-23 49 -44 108.5t-43.5 119t-48.5 114.5t-56 96q-150 -229 -267 -466.5t-223 -491.5zM614 1845q45 66 87 91.5t81 25.5t75 -18.5t70 -40t67.5 -39t68.5 -14.5t69.5 33t73.5 102l58 -66 q-61 -106 -121 -140t-115 -27t-106.5 37t-96.5 50.5t-84 13t-69 -72.5z" />
<glyph unicode="&#xc4;" horiz-adv-x="1900" d="M-2 12.5q10 12.5 35.5 27.5t54.5 29.5t37 16.5q49 88 91 182t85 187q76 160 151.5 317.5t157.5 317.5q53 104 119 217.5t139 201.5q25 29 54.5 58.5t63.5 50t73 28t82 -7.5l16 -67q-16 18 -50 21t-54 -7q-16 -10 -30.5 -34.5t-10.5 -45.5q4 -31 10 -63.5t14 -63.5 q2 -8 13.5 -33.5t24.5 -56.5t26.5 -58.5t19.5 -39.5q100 -231 209 -455q78 -160 165 -314.5t187 -301.5q12 -10 31 -22.5t38 -23t39.5 -17.5t39.5 -7v-53h-483l-7 22q2 16 27 23.5t52.5 13.5t50 15.5t22.5 31.5q0 16 -12.5 41t-28.5 50.5t-32.5 48t-26.5 34.5 q-47 66 -123 66h-64h-33q-20 0 -30 2q-61 2 -122 3t-120 1h-242q-78 0 -152.5 -5t-152.5 -11q-35 -61 -67.5 -117.5t-32.5 -128.5q14 -18 37.5 -20.5t47 -3.5t41 -11t17.5 -43q0 -10 -24.5 -12t-44.5 -2h-19q-16 2 -35 2h-36h-74q-37 0 -74 1t-72 3q-28 0 -18 12.5zM393 416 q459 -18 918 0q0 8 -16.5 48t-41 94t-54.5 116.5t-56.5 118t-45 94.5t-22.5 49q-23 49 -44 108.5t-43.5 119t-48.5 114.5t-56 96q-150 -229 -267 -466.5t-223 -491.5zM664 1849q0 37 23.5 55.5t53.5 30.5q8 4 24.5 10.5t25.5 6.5q18 0 33.5 -11.5t27.5 -23.5 q10 -10 22.5 -26.5t12.5 -32.5q0 -4 -3 -13.5t-7.5 -18.5t-8.5 -17.5t-6 -10.5q-10 -29 -42 -40t-66.5 -5t-62 29.5t-27.5 66.5zM1065 1851q0 37 23.5 55.5t54.5 30.5q8 4 24.5 10.5t24.5 6.5q18 0 33.5 -11.5t27.5 -23.5q10 -10 22.5 -26.5t12.5 -32.5q0 -4 -3 -13.5 t-7 -18.5t-8 -17.5t-6 -10.5q-10 -29 -42 -40t-67 -5t-62.5 29.5t-27.5 66.5z" />
<glyph unicode="&#xc5;" horiz-adv-x="1900" d="M-2 12.5q10 12.5 35.5 27.5t54.5 29.5t37 16.5q49 88 91 182t85 187q76 160 151.5 317.5t157.5 317.5q53 104 119 217.5t139 201.5q8 10 17.5 20.5t19.5 20.5h-4q-53 0 -96 15.5t-78 58.5q-18 25 -26.5 54.5t-8.5 60.5q0 98 70 159q59 53 135 54q57 0 106.5 -28t73.5 -79 q23 -47 16.5 -101t-34.5 -99q39 6 82 -7l16 -67q-16 18 -50 21t-54 -7q-16 -10 -30.5 -34.5t-10.5 -45.5q4 -31 10 -63.5t14 -63.5q2 -8 13.5 -33.5t24.5 -56.5t26.5 -58.5t19.5 -39.5q100 -231 209 -455q78 -160 165 -314.5t187 -301.5q12 -10 31 -22.5t38 -23t39.5 -17.5 t39.5 -7v-53h-483l-7 22q2 16 27 23.5t52.5 13.5t50 15.5t22.5 31.5q0 16 -12.5 41t-28.5 50.5t-32.5 48t-26.5 34.5q-47 66 -123 66h-64h-33q-20 0 -30 2q-61 2 -122 3t-120 1h-242q-78 0 -152.5 -5t-152.5 -11q-35 -61 -67.5 -117.5t-32.5 -128.5q14 -18 37.5 -20.5 t47 -3.5t41 -11t17.5 -43q0 -10 -24.5 -12t-44.5 -2h-19q-16 2 -35 2h-36h-74q-37 0 -74 1t-72 3q-28 0 -18 12.5zM393 416q459 -18 918 0q0 8 -16.5 48t-41 94t-54.5 116.5t-56.5 118t-45 94.5t-22.5 49q-23 49 -44 108.5t-43.5 119t-48.5 114.5t-56 96 q-150 -229 -267 -466.5t-223 -491.5zM784 1761q0 -55 27 -94q31 -53 94 -53q47 0 78 39q27 33 24 78t-20 84q-10 23 -29.5 43t-48.5 24q-6 0 -13 1t-13 1q-18 0 -37 -6t-31 -23q-31 -41 -31 -94z" />
<glyph unicode="&#xc6;" horiz-adv-x="2969" d="M-2 12.5q10 12.5 35.5 27.5t54.5 29.5t37 16.5q49 88 91 182t85 187q76 160 151.5 317.5t157.5 317.5q53 104 119 217.5t139 201.5q25 29 54.5 58.5t63.5 50t73 28t82 -7.5l16 -67q-16 18 -50 21t-54 -7q-16 -10 -30.5 -34.5t-10.5 -45.5q4 -31 10 -63.5t14 -63.5 q2 -8 13.5 -33.5t24.5 -56.5t26.5 -58.5t19.5 -39.5q100 -231 209 -455q47 -98 96.5 -190t102.5 -185q12 295 17 581t-5 585q-10 20 -29.5 35.5t-42 21.5t-46 2t-40.5 -20q-23 10 -18.5 36.5t12.5 43.5l1108 -21q14 -35 36 -67.5t43.5 -64.5t39.5 -65.5t29 -70.5 q-25 8 -55.5 38.5t-62.5 64.5t-62.5 61.5t-57.5 29.5q-25 2 -73 6.5t-106 8.5t-124 8t-125 5t-108.5 0t-75.5 -7q-29 -6 -49.5 -34t-24.5 -56.5t-2 -60t0 -60.5q0 -57 -1 -114.5t-1 -117.5q0 -45 1 -89t3 -89q98 -37 201.5 -40t204.5 1q37 2 91 4.5t89 -4.5q20 10 32.5 38 t12.5 57q0 12 -4 28v27q0 25 7 46t32 21q20 0 28 -8v-479q-2 -2 -8 -2h-8q-39 0 -51.5 29.5t16.5 54.5q-8 31 -23.5 66.5t-43.5 52.5q-2 0 -7.5 3t-7.5 3h-545q-35 -82 -33.5 -175t-2.5 -179q-2 -49 -3.5 -97.5t-1.5 -95.5t3.5 -94t7.5 -96q14 -10 26.5 -18.5t26.5 -16.5 q106 -8 210.5 -11.5t209.5 -3.5q104 0 209.5 4.5t212.5 12.5q45 29 84 73t75.5 89t75.5 83.5t88 59.5l15 -14q-78 -72 -118 -173.5t-61 -201.5q-92 6 -189 3t-189 -3q-47 0 -94.5 2t-94.5 2h-162h-80h-41q-18 0 -38 -2q-129 -2 -256 -5t-256 3q-20 18 -17.5 45t10.5 49 q16 4 35 -10.5t41 -22.5q29 6 51.5 15.5t22.5 31.5q0 16 -12.5 41t-28.5 50.5t-32.5 48t-26.5 34.5q-47 66 -123 66h-64h-33q-20 0 -30 2q-61 2 -122 3t-120 1h-242q-78 0 -152.5 -5t-152.5 -11q-35 -61 -67.5 -117.5t-32.5 -128.5q14 -18 37.5 -20.5t47 -3.5t41 -11 t17.5 -43q0 -10 -24.5 -12t-44.5 -2h-19q-16 2 -35 2h-36h-74q-37 0 -74 1t-72 3q-28 0 -18 12.5zM393 416q459 -18 918 0q0 8 -16.5 48t-41 94t-54.5 116.5t-56.5 118t-45 94.5t-22.5 49q-23 49 -44 108.5t-43.5 119t-48.5 114.5t-56 96q-150 -229 -267 -466.5t-223 -491.5 z" />
<glyph unicode="&#xc7;" horiz-adv-x="1638" d="M0 778q0 160 57.5 298t161.5 261q274 317 696 318q53 0 105.5 -6.5t105.5 -16.5q61 -10 132 -37.5t130.5 -69.5t101.5 -99.5t48 -129.5q4 -61 -33 -104t-100 -43q-61 0 -95 27.5t-37 64.5t21.5 73t79.5 52q-35 66 -85 108t-111.5 66.5t-129 33.5t-135.5 9 q-104 0 -201.5 -21.5t-183.5 -78.5q-170 -113 -242.5 -280t-72.5 -365q0 -129 29.5 -250t109.5 -226q117 -143 269.5 -205.5t332.5 -62.5q111 0 213.5 30t188.5 101q51 41 92 91.5t70 109.5q14 16 35.5 13t33.5 -19q-47 -109 -121.5 -189.5t-169 -135t-201 -81t-216.5 -26.5 l-62 -80q37 2 65.5 -7.5t55.5 -35.5q25 -25 30 -54.5t-2.5 -59.5t-22.5 -58.5t-32 -50.5q-27 -35 -56.5 -59.5t-70.5 -41.5q-18 -8 -47.5 -16t-62.5 -13.5t-63.5 -7.5t-51.5 0q-2 6 3 11.5t12.5 9.5t13.5 6t6 0q8 0 10 2q12 4 24.5 7t24.5 7q45 18 83 45t69 66q4 8 10 15.5 t10 17.5q8 10 10.5 31.5t2.5 35.5q0 45 -25 76q-6 10 -28.5 18.5t-32.5 12.5q-8 0 -21.5 -4t-28 -9.5t-26.5 -10.5t-19 -7q-8 12 -5 21.5t12 19.5q4 8 9 13.5t9 11.5l72 96q-205 25 -377 135q-168 109 -272.5 275.5t-104.5 371.5z" />
<glyph unicode="&#xc8;" horiz-adv-x="1667" d="M-1 41q3 27 11 49q12 2 26.5 -6t31 -17.5t33 -13.5t34.5 6l51 60q18 358 25.5 703t-2.5 706q-10 20 -29.5 35.5t-42 21.5t-46 2t-40.5 -20q-23 10 -18.5 36.5t12.5 43.5l1108 -21q14 -35 35.5 -67.5t43 -64.5t40 -65.5t28.5 -70.5q-25 8 -55.5 38.5t-62 64.5t-62 61.5 t-57.5 29.5q-25 2 -73 6.5t-106.5 8.5t-124 8t-125 5t-108.5 0t-75 -7q-29 -6 -49.5 -34t-24.5 -56.5t-2 -60t0 -60.5q0 -57 -1 -114.5t-1 -117.5q0 -45 1 -89t3 -89q98 -37 201.5 -40t203.5 1q37 2 91.5 4.5t89.5 -4.5q20 10 32.5 38t12.5 57q0 12 -4 28v27q0 25 7 46 t31 21q20 0 29 -8v-479q-2 -2 -8 -2h-8q-39 0 -51.5 29.5t16.5 54.5q-8 31 -23.5 66.5t-44.5 52.5q-2 0 -7 3t-7 3h-545q-35 -82 -34 -175t-3 -179q-2 -49 -3 -97.5t-1 -95.5t3 -94t7 -96l37 -33q428 -31 858 0q45 29 84 73t76 89t76 84t88 59l14 -14q-78 -72 -117.5 -173.5 t-60.5 -201.5q-92 6 -189.5 3t-189.5 -3q-47 0 -94 2t-94 2h-162h-80h-41q-18 0 -39 -2q-129 -2 -256 -5t-256 3q-20 18 -17 45zM500 1923l63 84q66 -66 139.5 -120t165.5 -113v-2l-47 -31q-47 23 -87 43t-78 41.5t-75.5 45t-80.5 52.5z" />
<glyph unicode="&#xc9;" horiz-adv-x="1667" d="M-1 41q3 27 11 49q12 2 26.5 -6t31 -17.5t33 -13.5t34.5 6l51 60q18 358 25.5 703t-2.5 706q-10 20 -29.5 35.5t-42 21.5t-46 2t-40.5 -20q-23 10 -18.5 36.5t12.5 43.5l1108 -21q14 -35 35.5 -67.5t43 -64.5t40 -65.5t28.5 -70.5q-25 8 -55.5 38.5t-62 64.5t-62 61.5 t-57.5 29.5q-25 2 -73 6.5t-106.5 8.5t-124 8t-125 5t-108.5 0t-75 -7q-29 -6 -49.5 -34t-24.5 -56.5t-2 -60t0 -60.5q0 -57 -1 -114.5t-1 -117.5q0 -45 1 -89t3 -89q98 -37 201.5 -40t203.5 1q37 2 91.5 4.5t89.5 -4.5q20 10 32.5 38t12.5 57q0 12 -4 28v27q0 25 7 46 t31 21q20 0 29 -8v-479q-2 -2 -8 -2h-8q-39 0 -51.5 29.5t16.5 54.5q-8 31 -23.5 66.5t-44.5 52.5q-2 0 -7 3t-7 3h-545q-35 -82 -34 -175t-3 -179q-2 -49 -3 -97.5t-1 -95.5t3 -94t7 -96l37 -33q428 -31 858 0q45 29 84 73t76 89t76 84t88 59l14 -14q-78 -72 -117.5 -173.5 t-60.5 -201.5q-92 6 -189.5 3t-189.5 -3q-47 0 -94 2t-94 2h-162h-80h-41q-18 0 -39 -2q-129 -2 -256 -5t-256 3q-20 18 -17 45zM489 1769v3q92 59 166 113t140 120l63 -84q-43 -29 -81 -52.5t-76.5 -45t-78.5 -42t-85 -42.5z" />
<glyph unicode="&#xca;" horiz-adv-x="1667" d="M-1 41q-3 -27 17 -45q129 -6 256 -3t256 5q20 2 39 2h41h80h162q47 0 94 -2t94 -2q92 0 189.5 3t189.5 -3q20 100 60.5 201.5t117.5 173.5l-14 14q-49 -20 -88 -59t-76 -84t-75.5 -89t-84.5 -73q-430 -31 -858 0l-37 33q-4 49 -7 96t-3 94t1 95t3 98q4 86 3 179t34 175 h545q2 0 7 -3t7 -3q29 -16 44.5 -52t23.5 -67q-29 -25 -16.5 -54.5t51.5 -29.5h8q6 0 8 2v479q-8 8 -29 8q-25 0 -31.5 -21.5t-6.5 -45.5v-27q4 -16 4 -28q0 -29 -12.5 -56.5t-32.5 -38.5q-35 6 -89.5 4t-91.5 -4q-100 -4 -203.5 -1t-201.5 40q-2 45 -3 89t-1 89q0 59 1 117 t1 115q2 29 0 60.5t2 60t24.5 56.5t49.5 34q27 6 75.5 7t108 0t125 -5t124 -8t106.5 -8.5t73 -6.5q27 -2 57.5 -29.5t62 -61.5t62.5 -64.5t55 -38.5q-10 37 -28.5 70.5t-40 65.5t-43 64.5t-35.5 67.5l-1108 21q-8 -16 -12 -43t18 -37q16 16 40 20t46.5 -2t42 -21.5 t29.5 -35.5q10 -360 3 -705.5t-26 -703.5l-51 -60q-18 -10 -34.5 -6t-33 13.5t-30.5 17.5t-27 6q-8 -22 -11 -49zM389 1835q31 14 76 37.5t92 52.5t90 58.5t70 58.5q39 -37 82 -67.5t86 -56.5t82 -47.5t69 -41.5l2 -2l-145 -117q-23 14 -47.5 43t-49 61.5t-45 64.5t-32.5 54 q-10 -16 -28.5 -47t-41 -64.5t-46 -63t-44.5 -44.5z" />
<glyph unicode="&#xcb;" horiz-adv-x="1667" d="M-1 41q3 27 11 49q12 2 26.5 -6t31 -17.5t33 -13.5t34.5 6l51 60q18 358 25.5 703t-2.5 706q-10 20 -29.5 35.5t-42 21.5t-46 2t-40.5 -20q-23 10 -18.5 36.5t12.5 43.5l1108 -21q14 -35 35.5 -67.5t43 -64.5t40 -65.5t28.5 -70.5q-25 8 -55.5 38.5t-62 64.5t-62 61.5 t-57.5 29.5q-25 2 -73 6.5t-106.5 8.5t-124 8t-125 5t-108.5 0t-75 -7q-29 -6 -49.5 -34t-24.5 -56.5t-2 -60t0 -60.5q0 -57 -1 -114.5t-1 -117.5q0 -45 1 -89t3 -89q98 -37 201.5 -40t203.5 1q37 2 91.5 4.5t89.5 -4.5q20 10 32.5 38t12.5 57q0 12 -4 28v27q0 25 7 46 t31 21q20 0 29 -8v-479q-2 -2 -8 -2h-8q-39 0 -51.5 29.5t16.5 54.5q-8 31 -23.5 66.5t-44.5 52.5q-2 0 -7 3t-7 3h-545q-35 -82 -34 -175t-3 -179q-2 -49 -3 -97.5t-1 -95.5t3 -94t7 -96l37 -33q428 -31 858 0q45 29 84 73t76 89t76 84t88 59l14 -14q-78 -72 -117.5 -173.5 t-60.5 -201.5q-92 6 -189.5 3t-189.5 -3q-47 0 -94 2t-94 2h-162h-80h-41q-18 0 -39 -2q-129 -2 -256 -5t-256 3q-20 18 -17 45zM406 1845q0 37 23.5 55.5t53.5 30.5q8 4 24.5 10.5t24.5 6.5q18 0 34 -11.5t28 -23.5q10 -10 22.5 -26.5t12.5 -33.5q0 -4 -3 -13t-7.5 -18.5 t-8.5 -17.5t-6 -10q-10 -29 -42 -40t-66.5 -5t-62 29.5t-27.5 66.5zM807 1847q0 37 23.5 55.5t54.5 30.5q8 4 24.5 10.5t24.5 6.5q18 0 33.5 -11.5t27.5 -23.5q10 -10 22.5 -26.5t12.5 -33.5q0 -4 -3 -13t-7 -18t-8 -17.5t-6 -10.5q-10 -29 -42 -40t-67 -5t-62.5 29.5 t-27.5 66.5z" />
<glyph unicode="&#xcc;" horiz-adv-x="610" d="M2 1579q-12 14 16 68q31 -4 75 -9.5t90 -9.5t89 -3t74 9q18 -96 20.5 -193.5t-2 -193.5t-9.5 -193.5t-3 -195.5l15 -743q29 -33 45 -41t57 6q12 -10 26.5 -25.5t12.5 -31.5q0 -4 -2 -13.5t2 -13.5h-313q-4 33 -5.5 64.5t-1.5 64.5q0 10 2.5 43t3.5 67.5t2 64.5t-1 34 q-6 193 1 382t7 382q0 94 -5 187t-16 188q-2 16 -3 32.5t-5 30.5q-6 16 -31.5 24.5t-48.5 8.5q-8 0 -24 -4q-56 0 -68 14zM63 1919l64 84q66 -66 139.5 -120t165.5 -114v-2l-47 -30q-47 23 -87 43t-78 41.5t-76 45t-81 52.5z" />
<glyph unicode="&#xcd;" horiz-adv-x="610" d="M2 1579q-12 14 16 68q31 -4 75 -9.5t90 -9.5t89 -3t74 9q18 -96 20.5 -193.5t-2 -193.5t-9.5 -193.5t-3 -195.5l15 -743q29 -33 45 -41t57 6q12 -10 26.5 -25.5t12.5 -31.5q0 -4 -2 -13.5t2 -13.5h-313q-4 33 -5.5 64.5t-1.5 64.5q0 10 2.5 43t3.5 67.5t2 64.5t-1 34 q-6 193 1 382t7 382q0 94 -5 187t-16 188q-2 16 -3 32.5t-5 30.5q-6 16 -31.5 24.5t-48.5 8.5q-8 0 -24 -4q-56 0 -68 14zM80 1767v2q92 59 165.5 113.5t139.5 120.5l64 -84q-43 -29 -81 -52.5t-77 -45t-79 -42t-85 -42.5z" />
<glyph unicode="&#xce;" horiz-adv-x="610" d="M-82 1833q31 14 76 37.5t92 52.5t90 58.5t70 58.5q39 -37 82 -67.5t86 -56.5t82 -47.5t69 -41.5l2 -2l-145 -117q-23 14 -47.5 43t-49 61.5t-45 64.5t-32.5 54q-10 -16 -28.5 -47t-41 -64.5t-46 -63.5t-44.5 -44zM2 1579q12 -14 68 -14q16 4 24 4q23 0 48.5 -8.5 t31.5 -24.5q4 -14 5 -30.5t3 -32.5q10 -94 15.5 -187.5t5.5 -187.5q0 -193 -7.5 -382.5t-0.5 -381.5q2 -4 1 -34t-2 -64.5t-3.5 -67.5t-2.5 -43q0 -33 1 -64.5t6 -64.5h313q-4 4 -2 13t2 14q2 16 -12.5 31.5t-26.5 25.5q-41 -14 -57.5 -6t-44.5 41l-15 743q-2 98 3 195.5 t9.5 193.5t2.5 193.5t-21 193.5q-31 -8 -74 -9t-89 3t-90 9t-75 10q-28 -54 -16 -68z" />
<glyph unicode="&#xcf;" horiz-adv-x="610" d="M-53 1841q0 37 23.5 55.5t54.5 30.5q8 4 24.5 10.5t24.5 6.5q18 0 33.5 -11.5t27.5 -23.5q10 -10 22.5 -26.5t12.5 -33.5q0 -4 -3 -13t-7 -18.5t-8.5 -17.5t-6.5 -10q-10 -29 -41.5 -40t-66.5 -5t-62.5 29.5t-27.5 66.5zM2 1579q-12 14 16 68q31 -4 75 -9.5t90 -9.5 t89 -3t74 9q18 -96 20.5 -193.5t-2 -193.5t-9.5 -193.5t-3 -195.5l15 -743q29 -33 45 -41t57 6q12 -10 26.5 -25.5t12.5 -31.5q0 -4 -2 -13.5t2 -13.5h-313q-4 33 -5.5 64.5t-1.5 64.5q0 10 2.5 43t3.5 67.5t2 64.5t-1 34q-6 193 1 382t7 382q0 94 -5 187t-16 188 q-2 16 -3 32.5t-5 30.5q-6 16 -31.5 24.5t-48.5 8.5q-8 0 -24 -4q-56 0 -68 14zM348 1843q0 37 23.5 55.5t54.5 30.5q8 4 24.5 10.5t24.5 6.5q18 0 33.5 -11.5t28.5 -23.5q10 -10 22 -26.5t12 -33.5q0 -4 -3 -13t-7 -18.5t-8 -17.5t-6 -10q-10 -29 -42 -40t-67 -5 t-62.5 29.5t-27.5 66.5z" />
<glyph unicode="&#xd0;" horiz-adv-x="1662" d="M2 766q25 37 46.5 79t43.5 77q27 -4 71 -10.5t93 -12.5v72l-4 461q0 82 -74 129q-10 6 -22 6q-16 0 -39 -11.5t-33 -11.5q-12 0 -17.5 10.5t-7.5 20.5l21 53q23 -2 45 -2h47h94h373q104 0 202.5 -10t196.5 -39q72 -20 159 -52t146 -77q123 -92 171.5 -223t48.5 -281 q0 -209 -66.5 -385t-189.5 -304t-296 -195.5t-384 -57.5q-66 -10 -102 -12t-65.5 -1t-65.5 3t-101 2q-53 0 -106.5 -4t-106.5 -13q-4 8 -12.5 14.5t-16.5 10.5q0 6 8 14q25 10 55.5 20.5t58.5 25t48.5 36t24.5 54.5q2 12 1 26.5t-1 26.5q0 41 1 80t1 80q2 29 2 55v55v109 q0 53 1 107t3 108q-6 2 -18 2h-13q-63 0 -118.5 -16.5t-102.5 -18.5zM414 1255.5q2 -81.5 4 -156.5t3 -133.5t-1 -80.5h12q59 0 122.5 14t129.5 19q-27 -33 -51.5 -77t-40.5 -79q-29 0 -75 5t-97 13v-600q0 -6 3 -21.5t6 -31.5t7 -29l4 -12q10 -29 47 -36t87.5 -1 t107.5 23.5t109.5 38t93.5 39t57 26.5q92 51 174 110.5t142.5 142.5t96.5 197.5t36 276.5q0 141 -54.5 250t-145.5 186.5t-210 127t-246 73.5q-66 12 -147.5 15.5t-147.5 3.5q-12 0 -18 -44.5t-8 -111t0 -148z" />
<glyph unicode="&#xd1;" horiz-adv-x="1599" d="M0 1581l6 66q25 0 58.5 -3.5t70.5 -6.5t75 -5t71 -2q53 0 79 8v-245q100 129 235.5 185t297.5 56q39 0 98.5 -4t95.5 -14q14 -4 28.5 -12.5t27.5 -16.5q68 -41 111.5 -103.5t68.5 -135.5q29 -86 36 -188.5t7 -194.5l-6 -813q10 -23 22.5 -51.5t40.5 -37.5q2 2 9 3h8 q33 0 46 -5.5t17 -14.5t7 -22.5t18 -27.5q-72 8 -141.5 6t-141.5 -2h-190q-4 10 -5 35.5t-1 36.5q12 2 34.5 5t44 9t39 17.5t19.5 27.5q4 20 2 52t-2 55q0 61 2 122.5t6 122.5q6 100 11 232.5t-2 266.5t-30.5 258t-74.5 210q-25 37 -57.5 61.5t-70.5 38t-80 18.5t-85 5 q-35 0 -86 -8.5t-84 -22.5q-23 -10 -46.5 -26.5t-43.5 -32.5q-66 -55 -107 -127t-64.5 -153t-32.5 -166t-9 -165q0 -43 2 -86l4 -86q8 -147 9 -291.5t5 -291.5q10 -25 37 -31t54.5 -8t49 -10.5t21.5 -34.5v-15q0 -10 -2 -12q-227 0 -455 -6q-4 4 -8 13.5t-7 19.5t-4 20t3 17 v8q10 6 29.5 7t41 3t38 9t20.5 28q2 10 3 31.5t1 46.5t1 48t1 36q4 98 5 196.5t3 196.5q2 205 1 403.5t-5 403.5q-8 10 -11 23.5t-7 25.5t-11.5 22.5t-21.5 16.5q-14 8 -47 -1t-57 -9q-15 0 -25 16zM463 1878q45 66 87 91.5t81 25.5t74.5 -18.5t69.5 -40t68 -39t68.5 -14.5 t69.5 33t74 101l57 -65q-61 -106 -120.5 -140t-115 -27t-106.5 36.5t-96 50t-84 13.5t-70 -73z" />
<glyph unicode="&#xd2;" d="M0 797q0 135 35 258t115 233q143 199 340.5 290t439.5 91q197 0 360.5 -90t274 -235.5t155.5 -327.5t4 -367q-8 -37 -17 -75.5t-26 -73.5q-55 -119 -146 -212t-203.5 -156.5t-239.5 -97.5t-254 -34h-37q-123 0 -232.5 36t-210.5 101q-358 230 -358 660zM167 756.5 q13 -156.5 87 -302t205 -257.5q86 -72 191.5 -94.5t209.5 -22.5q78 0 140.5 7t116.5 27.5t104.5 56.5t105.5 93q123 123 193.5 269.5t70.5 326.5q0 154 -51 289t-143 236.5t-222.5 160t-287.5 58.5q-162 0 -294 -58.5t-237 -187.5q-109 -133 -155.5 -289t-33.5 -312.5z M696 1921l64 84q66 -66 139.5 -120t165.5 -113v-3l-47 -30q-47 23 -87 43t-78 41.5t-76 45t-81 52.5z" />
<glyph unicode="&#xd3;" d="M0 797q0 135 35 258t115 233q143 199 340.5 290t439.5 91q197 0 360.5 -90t274 -235.5t155.5 -327.5t4 -367q-8 -37 -17 -75.5t-26 -73.5q-55 -119 -146 -212t-203.5 -156.5t-239.5 -97.5t-254 -34h-37q-123 0 -232.5 36t-210.5 101q-358 230 -358 660zM167 756.5 q13 -156.5 87 -302t205 -257.5q86 -72 191.5 -94.5t209.5 -22.5q78 0 140.5 7t116.5 27.5t104.5 56.5t105.5 93q123 123 193.5 269.5t70.5 326.5q0 154 -51 289t-143 236.5t-222.5 160t-287.5 58.5q-162 0 -294 -58.5t-237 -187.5q-109 -133 -155.5 -289t-33.5 -312.5z M707 1769v3q92 59 165.5 113t139.5 120l63 -84q-43 -29 -81 -52.5t-76.5 -45t-78.5 -42t-85 -42.5z" />
<glyph unicode="&#xd4;" d="M0 797q0 -430 358 -660q100 -66 210 -101.5t233 -35.5h37q127 0 254 34t239.5 97.5t203.5 156.5t146 212q16 35 25.5 73.5t17.5 75.5q41 184 -4 366.5t-155.5 328t-274.5 235.5t-360 90q-242 0 -439.5 -91t-340.5 -290q-80 -111 -115 -233.5t-35 -257.5zM167 756.5 q-13 156.5 34 312.5t155 289q104 129 236.5 187.5t294.5 58.5q158 0 288 -58.5t222 -160t143 -236.5t51 -289q0 -180 -70.5 -326.5t-193.5 -269.5q-55 -57 -105.5 -93t-104.5 -56.5t-116.5 -27.5t-140.5 -7q-104 0 -209.5 22.5t-191.5 94.5q-131 113 -205 258t-87 301.5z M561 1841q31 14 76 38t92 52.5t90 58t70 58.5q39 -37 82 -67.5t86 -56.5t82 -47.5t69 -41.5l2 -2l-145 -117q-23 14 -47.5 43t-49 61.5t-45 64.5t-32.5 54q-10 -16 -28.5 -46.5t-41 -64.5t-46 -63.5t-44.5 -44.5z" />
<glyph unicode="&#xd5;" d="M0 797q0 135 35 258t115 233q143 199 340.5 290t439.5 91q197 0 360.5 -90t274 -235.5t155.5 -327.5t4 -367q-8 -37 -17 -75.5t-26 -73.5q-55 -119 -146 -212t-203.5 -156.5t-239.5 -97.5t-254 -34h-37q-123 0 -232.5 36t-210.5 101q-358 230 -358 660zM167 756.5 q13 -156.5 87 -302t205 -257.5q86 -72 191.5 -94.5t209.5 -22.5q78 0 140.5 7t116.5 27.5t104.5 56.5t105.5 93q123 123 193.5 269.5t70.5 326.5q0 154 -51 289t-143 236.5t-222.5 160t-287.5 58.5q-162 0 -294 -58.5t-237 -187.5q-109 -133 -155.5 -289t-33.5 -312.5z M557 1860q45 66 87 91t81 25t75 -18.5t69.5 -40t67.5 -38.5t68.5 -14t69.5 32.5t74 101.5l57 -66q-61 -106 -120.5 -140t-115 -26.5t-106.5 37t-96 50t-84 13.5t-70 -73z" />
<glyph unicode="&#xd6;" d="M0 797q0 135 35 258t115 233q143 199 340.5 290t439.5 91q197 0 360.5 -90t274 -235.5t155.5 -327.5t4 -367q-8 -37 -17 -75.5t-26 -73.5q-55 -119 -146 -212t-203.5 -156.5t-239.5 -97.5t-254 -34h-37q-123 0 -232.5 36t-210.5 101q-358 230 -358 660zM167 756.5 q13 -156.5 87 -302t205 -257.5q86 -72 191.5 -94.5t209.5 -22.5q78 0 140.5 7t116.5 27.5t104.5 56.5t105.5 93q123 123 193.5 269.5t70.5 326.5q0 154 -51 289t-143 236.5t-222.5 160t-287.5 58.5q-162 0 -294 -58.5t-237 -187.5q-109 -133 -155.5 -289t-33.5 -312.5z M582 1851q0 37 23.5 55.5t53.5 30.5q8 4 24.5 10.5t25.5 6.5q18 0 33.5 -11.5t27.5 -23.5q10 -10 22.5 -26.5t12.5 -32.5q0 -4 -3 -13.5t-7 -18.5t-8.5 -17.5t-6.5 -10.5q-10 -29 -41.5 -40t-66.5 -5t-62.5 29.5t-27.5 66.5zM983 1853q0 37 23.5 55.5t54.5 30.5 q8 4 24.5 10.5t24.5 6.5q18 0 33.5 -11.5t27.5 -23.5q10 -10 22.5 -26.5t12.5 -32.5q0 -4 -3 -13.5t-7 -18.5t-8 -17.5t-6 -10.5q-10 -29 -42 -40t-67 -5t-62.5 29.5t-27.5 66.5z" />
<glyph unicode="&#xd7;" horiz-adv-x="995" d="M147 979q20 2 37 14.5t32 26.5l31 29q15 14 34 20q16 -18 38.5 -49t50 -68t57.5 -75.5t60 -71.5q27 27 57.5 65.5t61.5 78.5t57.5 77t47.5 59q2 -20 14 -37.5t27.5 -33t30 -30.5t20.5 -34q-18 -16 -47 -40.5t-63 -54.5t-67.5 -60.5t-64.5 -61.5q33 -31 74 -70.5t79 -76.5 t68.5 -67t44.5 -44q-23 -4 -40 -16.5t-34.5 -27.5t-35 -27.5t-37.5 -16.5q-14 16 -34.5 48t-45.5 70t-53.5 79t-59.5 75q-33 -35 -66.5 -76.5t-64 -80.5t-55.5 -71t-39 -46q-4 20 -16.5 38.5t-27.5 36t-27.5 36t-16.5 39.5q16 12 42 33.5t57.5 48t67.5 57.5t73 61 q-31 27 -68 61l-74 67q-37 34 -69.5 65t-55.5 51z" />
<glyph unicode="&#xd8;" d="M0 797q0 135 35 258t115 233q143 199 340.5 290t439.5 91q143 0 272 -51q8 29 16.5 53.5t18.5 46.5q0 -37 15.5 -51t37 -20.5t43 -9.5t33.5 -17q-4 -6 -13.5 -23.5t-23.5 -42.5q113 -68 199 -168t140 -219.5t69.5 -253t-13.5 -264.5q-8 -37 -17 -75.5t-26 -73.5 q-55 -119 -146 -212t-203.5 -156.5t-239.5 -97.5t-254 -34h-37q-156 0 -299 59q-16 -41 -29.5 -74.5t-21.5 -52.5q-8 41 -24.5 58.5t-74.5 34.5q4 6 16.5 27.5t32.5 56.5q-10 6 -21 13t-22 15q-358 230 -358 660zM167 759.5q13 -155.5 85 -301t201 -257.5q51 92 120.5 216 t143.5 257t147.5 264t134 238.5t100.5 180.5t48 89q10 18 18.5 42.5t16.5 51.5q-135 63 -295 64q-162 0 -294 -58.5t-237 -187.5q-109 -133 -155.5 -288t-33.5 -310.5zM532 145q76 -41 159 -53t169 -12q78 0 140.5 7t116.5 27.5t104.5 56.5t105.5 93q123 123 193.5 269.5 t70.5 326.5q0 197 -80.5 358.5t-224.5 262.5q-49 -84 -116.5 -201t-142.5 -245t-149.5 -257t-136 -234.5t-102.5 -177t-47 -85.5q-12 -23 -28 -59t-32 -77z" />
<glyph unicode="&#xd9;" horiz-adv-x="1652" d="M55.5 1581q-12.5 12 18.5 70q10 4 24.5 3t24.5 -1q27 0 64.5 -5.5t77.5 -8.5t76 -2t58 14l17 -23q-14 -168 -20.5 -321.5t-6.5 -321.5v-463q0 -43 9.5 -105.5t31 -121.5t53 -108.5t78.5 -67.5q53 -23 111.5 -32t115.5 -9q74 0 138.5 31.5t117.5 78.5q74 68 118 145 t67.5 159.5t32 172t10.5 183.5q6 209 6 420q0 43 -1 85t-3 85q-2 35 -14.5 65.5t-45.5 50.5h-77q-35 0 -35 37q0 14 2 17q-10 14 8 23t29 14l327 -17q0 -258 -7 -502.5t-7 -502.5q0 -113 2 -225.5t8 -225.5v-35q0 -12 4 -33q6 -25 28 -29.5t46.5 -6.5t45 -8.5t22.5 -32.5 q0 -4 -1 -10.5t-3 -16.5l-318 -12l-20 20q0 33 2 75t2 85q0 45 -3 86t-12 72h-12q-45 -70 -99 -131.5t-118.5 -106.5t-140.5 -71.5t-164 -26.5h-21q-49 0 -101 7t-101 24.5t-92 44t-76 67.5q-31 35 -44.5 73t-19.5 77q-25 119 -34 238.5t-9 242.5v162q0 41 1 82t3 82 q4 117 8.5 231.5t-16.5 226.5q-18 31 -55 29t-67.5 -5t-43 9zM559 1921l64 84q66 -66 139.5 -120t165.5 -113v-3l-47 -30q-47 23 -87 43t-78 41.5t-76 45t-81 52.5z" />
<glyph unicode="&#xda;" horiz-adv-x="1652" d="M55.5 1581q-12.5 12 18.5 70q10 4 24.5 3t24.5 -1q27 0 64.5 -5.5t77.5 -8.5t76 -2t58 14l17 -23q-14 -168 -20.5 -321.5t-6.5 -321.5v-463q0 -43 9.5 -105.5t31 -121.5t53 -108.5t78.5 -67.5q53 -23 111.5 -32t115.5 -9q74 0 138.5 31.5t117.5 78.5q74 68 118 145 t67.5 159.5t32 172t10.5 183.5q6 209 6 420q0 43 -1 85t-3 85q-2 35 -14.5 65.5t-45.5 50.5h-77q-35 0 -35 37q0 14 2 17q-10 14 8 23t29 14l327 -17q0 -258 -7 -502.5t-7 -502.5q0 -113 2 -225.5t8 -225.5v-35q0 -12 4 -33q6 -25 28 -29.5t46.5 -6.5t45 -8.5t22.5 -32.5 q0 -4 -1 -10.5t-3 -16.5l-318 -12l-20 20q0 33 2 75t2 85q0 45 -3 86t-12 72h-12q-45 -70 -99 -131.5t-118.5 -106.5t-140.5 -71.5t-164 -26.5h-21q-49 0 -101 7t-101 24.5t-92 44t-76 67.5q-31 35 -44.5 73t-19.5 77q-25 119 -34 238.5t-9 242.5v162q0 41 1 82t3 82 q4 117 8.5 231.5t-16.5 226.5q-18 31 -55 29t-67.5 -5t-43 9zM580 1765v2q92 59 165.5 113.5t139.5 120.5l63 -84q-43 -29 -81 -52.5t-76.5 -45t-78.5 -42t-85 -42.5z" />
<glyph unicode="&#xdb;" horiz-adv-x="1652" d="M55.5 1581q12.5 -12 43 -9t67.5 5t55 -29q20 -113 16 -227.5t-8 -230.5q-2 -41 -3 -82t-1 -82v-162q0 -123 9.5 -243t33.5 -238q6 -39 19.5 -77t44.5 -73q33 -41 76 -67.5t92 -44t101 -24.5t101 -7h21q88 0 164 26.5t140.5 71.5t118.5 106.5t99 131.5h12q8 -31 11.5 -72 t3.5 -86q0 -43 -2 -85t-2 -75l20 -20l318 12q2 10 3 16.5t1 10.5q-2 27 -22.5 33t-45 8t-46 7t-28.5 29q-4 20 -4 33v35q-6 113 -8 225.5t-2 225.5q0 258 7 502.5t7 502.5l-327 17q-10 -4 -28.5 -13.5t-8.5 -23.5q-2 -2 -2 -17q0 -37 35 -37h77q33 -20 45.5 -50.5 t14.5 -65.5q2 -43 3 -85t1 -85q0 -211 -6 -420q-2 -94 -10.5 -183.5t-32 -172t-67.5 -159.5t-118 -145q-53 -47 -117.5 -78.5t-138.5 -31.5q-57 0 -115.5 9t-111.5 32q-47 18 -78.5 67.5t-53 108.5t-31 121.5t-9.5 105.5v463q0 168 6 321.5t21 321.5l-17 23 q-23 -12 -58.5 -13.5t-75.5 1.5t-77.5 8.5t-64.5 5.5q-10 0 -24.5 1t-24.5 -3q-31 -58 -18.5 -70zM436 1841q31 14 76 38t92 52.5t90 58t70 58.5q39 -37 82 -67.5t86 -56.5t82 -47.5t69 -41.5l2 -2l-145 -117q-23 14 -47.5 43t-49 61.5t-45 64.5t-32.5 54 q-10 -16 -28.5 -46.5t-41 -64.5t-46 -63.5t-44.5 -44.5z" />
<glyph unicode="&#xdc;" horiz-adv-x="1652" d="M55.5 1581q-12.5 12 18.5 70q10 4 24.5 3t24.5 -1q27 0 64.5 -5.5t77.5 -8.5t76 -2t58 14l17 -23q-14 -168 -20.5 -321.5t-6.5 -321.5v-463q0 -43 9.5 -105.5t31 -121.5t53 -108.5t78.5 -67.5q53 -23 111.5 -32t115.5 -9q74 0 138.5 31.5t117.5 78.5q74 68 118 145 t67.5 159.5t32 172t10.5 183.5q6 209 6 420q0 43 -1 85t-3 85q-2 35 -14.5 65.5t-45.5 50.5h-77q-35 0 -35 37q0 14 2 17q-10 14 8 23t29 14l327 -17q0 -258 -7 -502.5t-7 -502.5q0 -113 2 -225.5t8 -225.5v-35q0 -12 4 -33q6 -25 28 -29.5t46.5 -6.5t45 -8.5t22.5 -32.5 q0 -4 -1 -10.5t-3 -16.5l-318 -12l-20 20q0 33 2 75t2 85q0 45 -3 86t-12 72h-12q-45 -70 -99 -131.5t-118.5 -106.5t-140.5 -71.5t-164 -26.5h-21q-49 0 -101 7t-101 24.5t-92 44t-76 67.5q-31 35 -44.5 73t-19.5 77q-25 119 -34 238.5t-9 242.5v162q0 41 1 82t3 82 q4 117 8.5 231.5t-16.5 226.5q-18 31 -55 29t-67.5 -5t-43 9zM463 1839q0 37 23.5 55.5t54.5 30.5q8 4 24.5 10.5t24.5 6.5q18 0 33.5 -11.5t27.5 -23.5q10 -10 22.5 -26.5t12.5 -33.5q0 -4 -3 -13t-7 -18.5t-8 -17.5t-6 -10q-10 -29 -42 -40t-67 -5t-62.5 29.5t-27.5 66.5z M864 1841q0 37 23.5 55.5t54.5 30.5q8 4 24.5 10.5t24.5 6.5q18 0 33.5 -11.5t28.5 -23.5q10 -10 22 -26.5t12 -33.5q0 -4 -3 -13t-7 -18.5t-8 -17.5t-6 -10q-10 -29 -42 -40t-66.5 -5t-62.5 29.5t-28 66.5z" />
<glyph unicode="&#xdd;" horiz-adv-x="1581" d="M3 1611.5q-13 16.5 11 59.5q39 -12 85 -14t94.5 -1t96.5 5t89 4q14 0 31.5 1t29.5 -3q20 -16 12 -42t-32.5 -30t-55 -5t-45.5 -36l-2 -659q0 -55 10.5 -118.5t47.5 -108.5q41 -47 102.5 -62.5t120.5 -15.5q68 0 135.5 16t129 44t114.5 66t92 81q74 88 99.5 189t25.5 237 v344q-6 12 -23.5 24t-31.5 2q-6 -2 -22.5 -5t-22.5 1q-10 -4 -22.5 9.5t-4.5 23.5v39q23 2 46.5 4t45.5 2q31 2 60.5 0t60.5 -2q29 0 73 -3t79 -3h24q14 0 21 2q4 -16 17 -25.5t13 -23.5q0 -8 -14 -17q-10 0 -28.5 -2t-37 -7t-33 -15.5t-14.5 -24.5v-291q0 -115 -3 -237.5 t-10 -240.5t-20.5 -224.5t-33.5 -188.5q-33 -123 -111 -200.5t-188 -126.5q-49 -23 -114.5 -28t-119.5 -5q-55 0 -116.5 9t-110.5 38q-68 39 -68 119q0 39 32 62.5t70 26.5t69.5 -16.5t31.5 -64.5q0 -23 -24.5 -50.5t-38.5 -41.5q8 -16 28.5 -26.5t45 -16.5t48 -9t39.5 -3 q23 0 45.5 6t45.5 10q94 23 166.5 71t105.5 146q25 72 31 147.5t6 151.5q0 78 -1 155t7 150q-70 -84 -135.5 -152.5t-139 -119.5t-162.5 -79t-206 -28q-55 0 -110.5 8.5t-103.5 29t-87 57t-62 92.5q-8 23 -16 50.5t-8 49.5l-21 778q-10 20 -39.5 26.5t-57.5 12.5t-41 22.5z M598 1767v2q92 59 166 113.5t139 120.5l64 -84q-43 -29 -81 -52.5t-77 -45t-79 -42t-85 -42.5z" />
<glyph unicode="&#xde;" horiz-adv-x="1236" d="M41 1634h528q2 0 12.5 -3t12.5 -3q4 -10 -3 -28.5t-11 -28.5q-16 -8 -52 -8h-41q-29 0 -58.5 -11.5t-41.5 -40.5v-32q0 -23 -1 -48.5t-1 -50.5v-43q25 -2 46.5 -5t46 -5t53 -3t67.5 -1q49 0 96 -12.5t90 -28.5t84 -35.5t78 -34.5q137 -61 209 -194q6 -14 13.5 -27.5 t11.5 -27.5q8 -29 10 -53.5t2 -53.5q0 -92 -26.5 -172t-88.5 -145q-80 -84 -153.5 -127t-152.5 -64.5t-168 -30t-197 -22.5q-4 -18 -7.5 -31.5t-5.5 -28t-3 -33t-1 -46.5q2 10 7 0.5t5 -33.5q12 -29 42 -40t59 -11h41q35 0 51 -9q4 -10 11 -28.5t3 -28.5q-2 0 -12 -3t-12 -3 h-529q0 20 3 47t28 31q4 0 7 -2t7 -2q10 -2 18.5 -3t14.5 -1q33 0 63.5 17t36.5 52q8 25 11.5 23t4.5 -7t0 -1t-1 39q0 186 -1 364t-5 365q0 55 -1 86.5t-2 65.5t-3.5 81t-4.5 135q-2 18 -3 46t-3 57.5t-3 56.5t-3 45q-6 35 -36.5 52.5t-63.5 17.5q-6 0 -14.5 -1t-18.5 -3 q-4 0 -7 -2.5t-7 -2.5q-25 4 -28 31t-3 47zM387 1063q0 -10 2 -40t5 -86t9 -155q0 -47 2.5 -93t2.5 -93t-1 -95t-1 -95q0 -18 17 -27.5t34 -11.5q12 -2 27.5 0t29.5 4q43 6 71.5 3t53.5 -3t51.5 6t63.5 29q121 72 194.5 172t73.5 245q0 86 -29.5 152.5t-81.5 132.5l-161 90 q-78 25 -133.5 39t-118.5 14q-41 0 -92 -6q-10 -41 -14.5 -81t-4.5 -81v-20z" />
<glyph unicode="&#xdf;" horiz-adv-x="1124" d="M74 1319v55v96v160l391 4q125 0 249 -29.5t224 -109.5q10 -8 32.5 -28.5t28.5 -30.5q23 -35 36.5 -65t13.5 -71q0 -57 -26 -101t-63.5 -80t-84 -64.5t-87.5 -57.5q94 -27 148.5 -72.5t105.5 -133.5q18 -35 25.5 -73t7.5 -77q0 -96 -14 -168t-72 -143q-10 -12 -22.5 -26.5 t-24.5 -27.5q-16 -16 -35.5 -31.5t-40.5 -21.5q-111 -31 -178 -27.5t-108 25t-62.5 55t-40 65.5t-40 53.5t-62.5 19.5v55q47 0 84 -27.5t73.5 -60.5t79.5 -60.5t103 -27.5q47 0 112 31q55 25 85 73.5t37 108t-4 123t-36 119.5q-35 72 -79 113.5t-125 58.5q-18 4 -37 5t-37 3 q-20 2 -38 4t-38 2h-76q-45 0 -76 8q-4 4 -4 12q0 16 4.5 36t14.5 28h22q92 0 186.5 21.5t164.5 86.5q8 6 22 21.5t18 23.5q12 25 20.5 68t8.5 74q0 27 -3 44t-11 30.5t-19.5 28t-29.5 36.5q-4 4 -13.5 15.5t-13.5 13.5q-12 6 -34.5 14t-47 16.5t-47.5 16.5t-33 12 q-10 2 -38.5 5t-62.5 6t-65.5 5.5t-46.5 2.5q-16 0 -31.5 1t-31.5 3q-31 -2 -59.5 -11.5t-41.5 -40.5v-32q0 -23 -1 -48.5t-1 -50.5v-43q2 0 5.5 -4t4.5 -28.5t0 -75.5t-8 -146v-20v-27q0 -16 1 -49t4.5 -82t7.5 -123q0 -47 2 -93t2 -93t-1 -95t-1 -95q0 -12 4 -31t-4 -80 l-7 -31.5t-5.5 -28t-3.5 -33t-1 -46.5q2 4 7.5 -5.5t5.5 -27.5q12 -29 41.5 -40t58.5 -11h41q35 0 51 -9q4 -10 11.5 -28.5t3.5 -28.5q-2 0 -12.5 -3t-12.5 -3h-346l10 193q0 186 -1 364t-5 365v86v65q0 35 -2 82t-4 135q-2 9 -2 29z" />
<glyph unicode="&#xe0;" horiz-adv-x="1038" d="M71 169q-1 48 11 95t35.5 91t52.5 77q86 92 197.5 132t234.5 40q23 35 23 82q0 31 -10.5 72t-28.5 67q-16 25 -51 34t-76 9q-39 0 -77 -7t-60 -17q-10 -4 -21.5 -12.5t-11.5 -20.5q4 -10 9 -17.5t11 -15.5q4 -6 12.5 -17t8.5 -20q0 -18 -12.5 -29.5t-29 -18.5t-34.5 -10 t-33 -7q-4 6 -12 17.5t-16.5 24.5t-14.5 25.5t-6 20.5q0 6 3 15t7 14q8 10 21.5 20t23.5 18q125 94 277 95q55 0 106.5 -15.5t91.5 -54.5q33 -61 44.5 -134t13.5 -150.5t-2 -153.5t-4 -144v-36q0 -31 3 -73t7 -56q6 -23 28.5 -30t41.5 -7q33 0 53 17t33.5 41t23.5 44.5 t23 26.5q18 -16 18 -35q0 -27 -18.5 -52.5t-28.5 -54.5q-35 -37 -89 -54t-104 -21q-55 -4 -88.5 33.5t-54.5 82.5q-78 -63 -173 -91.5t-196 -24.5q-16 0 -35.5 11t-40 26.5t-39 32t-28.5 26.5q-18 41 -19 89zM220 253q1 -38 14.5 -72t39 -61.5t60.5 -39.5q2 -2 14 -2h17 q47 0 91 13t79 48q57 59 73.5 137t5.5 156q-4 37 -27.5 59.5t-57 33t-70.5 11.5t-68 -4q-23 -14 -46 -39.5t-44.5 -55t-39 -59.5t-28.5 -54q-14 -33 -13 -71zM281 1204l63 84q66 -66 139.5 -120t165.5 -113v-2l-47 -31q-47 23 -87 43t-78 41.5t-75.5 45t-80.5 52.5z" />
<glyph unicode="&#xe1;" horiz-adv-x="1038" d="M71 169q-1 48 11 95t35.5 91t52.5 77q86 92 197.5 132t234.5 40q23 35 23 82q0 31 -10.5 72t-28.5 67q-16 25 -51 34t-76 9q-39 0 -77 -7t-60 -17q-10 -4 -21.5 -12.5t-11.5 -20.5q4 -10 9 -17.5t11 -15.5q4 -6 12.5 -17t8.5 -20q0 -18 -12.5 -29.5t-29 -18.5t-34.5 -10 t-33 -7q-4 6 -12 17.5t-16.5 24.5t-14.5 25.5t-6 20.5q0 6 3 15t7 14q8 10 21.5 20t23.5 18q125 94 277 95q55 0 106.5 -15.5t91.5 -54.5q33 -61 44.5 -134t13.5 -150.5t-2 -153.5t-4 -144v-36q0 -31 3 -73t7 -56q6 -23 28.5 -30t41.5 -7q33 0 53 17t33.5 41t23.5 44.5 t23 26.5q18 -16 18 -35q0 -27 -18.5 -52.5t-28.5 -54.5q-35 -37 -89 -54t-104 -21q-55 -4 -88.5 33.5t-54.5 82.5q-78 -63 -173 -91.5t-196 -24.5q-16 0 -35.5 11t-40 26.5t-39 32t-28.5 26.5q-18 41 -19 89zM220 253q1 -38 14.5 -72t39 -61.5t60.5 -39.5q2 -2 14 -2h17 q47 0 91 13t79 48q57 59 73.5 137t5.5 156q-4 37 -27.5 59.5t-57 33t-70.5 11.5t-68 -4q-23 -14 -46 -39.5t-44.5 -55t-39 -59.5t-28.5 -54q-14 -33 -13 -71zM289 1053v2q92 59 165.5 113.5t139.5 119.5l63 -84q-43 -29 -80.5 -52.5t-76.5 -45t-79 -42t-85 -42.5z" />
<glyph unicode="&#xe2;" horiz-adv-x="1038" d="M71 169q1 -48 19 -89q10 -10 28.5 -26.5t39 -32t40 -26.5t35.5 -11q100 -4 195.5 24.5t173.5 91.5q20 -45 54 -82.5t89 -33.5q49 4 103.5 21.5t89.5 53.5q10 29 28.5 54.5t18.5 52.5q0 18 -18 35q-12 -6 -22.5 -26.5t-24 -44.5t-34 -41t-52.5 -17q-18 0 -41 7t-29 30 q-4 14 -7 56t-3 73v36q0 68 4 144t2 153.5t-13.5 150.5t-44.5 134q-41 39 -92 54.5t-106 15.5q-152 0 -277 -95q-10 -8 -23.5 -18t-21.5 -20q-4 -4 -7 -13.5t-3 -15.5q0 -8 6 -20.5t14.5 -25.5t16.5 -24.5t12 -17.5q14 4 32.5 7t35 10t29 18.5t12.5 29.5q0 8 -8.5 19.5 t-12.5 17.5q-6 8 -11 15.5t-9 17.5q0 12 11 20.5t22 12.5q23 10 60.5 17t76.5 7q41 0 75.5 -9t51.5 -34q18 -27 28.5 -67.5t10.5 -71.5q0 -47 -23 -82q-123 0 -234.5 -40t-197.5 -132q-29 -33 -52.5 -77t-35.5 -91t-11 -95zM137 1079q31 14 76 32.5t92 40.5t90 46.5t70 52.5 q39 -37 82 -61.5t86 -44t82 -35.5t69 -37l2 -2l-145 -117q-23 14 -47.5 43t-49 62t-45 64.5t-32.5 54.5q-10 -16 -28.5 -47t-41 -65t-46 -63.5t-44.5 -44.5zM220 253q-1 38 13 71q10 25 28 54.5t39.5 59t45 55t45.5 39.5q31 4 68 3.5t70.5 -11t57 -33t27.5 -59.5 q10 -78 -6 -155.5t-73 -137.5q-35 -35 -79 -48t-91 -13h-17q-12 0 -14 2q-35 12 -60.5 39.5t-39 61.5t-14.5 72z" />
<glyph unicode="&#xe3;" horiz-adv-x="1038" d="M71 169q-1 48 11 95t35.5 91t52.5 77q86 92 197.5 132t234.5 40q23 35 23 82q0 31 -10.5 72t-28.5 67q-16 25 -51 34t-76 9q-39 0 -77 -7t-60 -17q-10 -4 -21.5 -12.5t-11.5 -20.5q4 -10 9 -17.5t11 -15.5q4 -6 12.5 -17t8.5 -20q0 -18 -12.5 -29.5t-29 -18.5t-34.5 -10 t-33 -7q-4 6 -12 17.5t-16.5 24.5t-14.5 25.5t-6 20.5q0 6 3 15t7 14q8 10 21.5 20t23.5 18q125 94 277 95q55 0 106.5 -15.5t91.5 -54.5q33 -61 44.5 -134t13.5 -150.5t-2 -153.5t-4 -144v-36q0 -31 3 -73t7 -56q6 -23 28.5 -30t41.5 -7q33 0 53 17t33.5 41t23.5 44.5 t23 26.5q18 -16 18 -35q0 -27 -18.5 -52.5t-28.5 -54.5q-35 -37 -89 -54t-104 -21q-55 -4 -88.5 33.5t-54.5 82.5q-78 -63 -173 -91.5t-196 -24.5q-16 0 -35.5 11t-40 26.5t-39 32t-28.5 26.5q-18 41 -19 89zM150 1163q45 66 87 91.5t80 25.5q39 0 75 -18.5t70 -40t67.5 -39 t68.5 -14.5t69.5 33t73.5 102l58 -66q-61 -106 -121 -140t-115 -27t-106 37t-96.5 50.5t-84 13t-69.5 -72.5zM220 253q1 -38 14.5 -72t39 -61.5t60.5 -39.5q2 -2 14 -2h17q47 0 91 13t79 48q57 59 73.5 137t5.5 156q-4 37 -27.5 59.5t-57 33t-70.5 11.5t-68 -4 q-23 -14 -46 -39.5t-44.5 -55t-39 -59.5t-28.5 -54q-14 -33 -13 -71z" />
<glyph unicode="&#xe4;" horiz-adv-x="1038" d="M71 169q-1 48 11 95t35.5 91t52.5 77q86 92 197.5 132t234.5 40q23 35 23 82q0 31 -10.5 72t-28.5 67q-16 25 -51 34t-76 9q-39 0 -77 -7t-60 -17q-10 -4 -21.5 -12.5t-11.5 -20.5q4 -10 9 -17.5t11 -15.5q4 -6 12.5 -17t8.5 -20q0 -18 -12.5 -29.5t-29 -18.5t-34.5 -10 t-33 -7q-4 6 -12 17.5t-16.5 24.5t-14.5 25.5t-6 20.5q0 6 3 15t7 14q8 10 21.5 20t23.5 18q125 94 277 95q55 0 106.5 -15.5t91.5 -54.5q33 -61 44.5 -134t13.5 -150.5t-2 -153.5t-4 -144v-36q0 -31 3 -73t7 -56q6 -23 28.5 -30t41.5 -7q33 0 53 17t33.5 41t23.5 44.5 t23 26.5q18 -16 18 -35q0 -27 -18.5 -52.5t-28.5 -54.5q-35 -37 -89 -54t-104 -21q-55 -4 -88.5 33.5t-54.5 82.5q-78 -63 -173 -91.5t-196 -24.5q-16 0 -35.5 11t-40 26.5t-39 32t-28.5 26.5q-18 41 -19 89zM160 1143q0 37 23.5 55.5t54.5 30.5q8 4 24.5 10t24.5 6 q18 0 33.5 -11t27.5 -24q10 -10 22.5 -26.5t12.5 -32.5q0 -4 -3 -13.5t-7 -18.5t-8.5 -17t-6.5 -10q-10 -29 -41.5 -40.5t-66.5 -5t-62.5 30t-27.5 66.5zM220 253q1 -38 14.5 -72t39 -61.5t60.5 -39.5q2 -2 14 -2h17q47 0 91 13t79 48q57 59 73.5 137t5.5 156 q-4 37 -27.5 59.5t-57 33t-70.5 11.5t-68 -4q-23 -14 -46 -39.5t-44.5 -55t-39 -59.5t-28.5 -54q-14 -33 -13 -71zM561 1145q0 37 23.5 55.5t54.5 30.5q8 4 24.5 10t24.5 6q18 0 33.5 -11t28.5 -24q10 -10 22 -26.5t12 -32.5q0 -4 -3 -13.5t-7 -18.5t-8 -17t-6 -10 q-10 -29 -42 -40.5t-67 -5t-62.5 30t-27.5 66.5z" />
<glyph unicode="&#xe5;" horiz-adv-x="1038" d="M71 169q-1 48 11 95t35.5 91t52.5 77q86 92 197.5 132t234.5 40q23 35 23 82q0 31 -10.5 72t-28.5 67q-16 25 -51 34t-76 9q-39 0 -77 -7t-60 -17q-10 -4 -21.5 -12.5t-11.5 -20.5q4 -10 9 -17.5t11 -15.5q4 -6 12.5 -17t8.5 -20q0 -18 -12.5 -29.5t-29 -18.5t-34.5 -10 t-33 -7q-4 6 -12 17.5t-16.5 24.5t-14.5 25.5t-6 20.5q0 6 3 15t7 14q8 10 21.5 20t23.5 18q35 25 70 44.5t72 29.5q-20 10 -38 22.5t-34 35.5q-18 25 -26.5 54.5t-8.5 59.5q0 98 70 160q59 53 135 53q57 0 106.5 -27.5t73.5 -78.5q23 -49 14.5 -105.5t-36.5 -101.5 q-20 -37 -52 -57q35 -8 68 -22.5t61 -41.5q33 -61 44.5 -134t13.5 -150.5t-2 -153.5t-4 -144v-36q0 -31 3 -73t7 -56q6 -23 28.5 -30t41.5 -7q33 0 53 17t33.5 41t23.5 44.5t23 26.5q18 -16 18 -35q0 -27 -18.5 -52.5t-28.5 -54.5q-35 -37 -89 -54t-104 -21 q-55 -4 -88.5 33.5t-54.5 82.5q-78 -63 -173 -91.5t-196 -24.5q-16 0 -35.5 11t-40 26.5t-39 32t-28.5 26.5q-18 41 -19 89zM220 253q1 -38 14.5 -72t39 -61.5t60.5 -39.5q2 -2 14 -2h17q47 0 91 13t79 48q57 59 73.5 137t5.5 156q-4 37 -27.5 59.5t-57 33t-70.5 11.5 t-68 -4q-23 -14 -46 -39.5t-44.5 -55t-39 -59.5t-28.5 -54q-14 -33 -13 -71zM354 1100q0 -55 27 -94q31 -53 94 -54q47 0 78 39q27 33 23.5 78t-19.5 84q-10 23 -29.5 43.5t-48.5 24.5q-6 0 -13 1t-13 1q-18 0 -37 -6.5t-31 -22.5q-31 -41 -31 -94z" />
<glyph unicode="&#xe6;" horiz-adv-x="1497" d="M71 169q-1 48 11 95t35.5 91t52.5 77q86 92 197.5 132t234.5 40q23 35 23 82q0 31 -10.5 72t-28.5 67q-16 25 -51 34t-76 9q-39 0 -77 -7t-60 -17q-10 -4 -21.5 -12.5t-11.5 -20.5q4 -10 9 -17.5t11 -15.5q4 -6 12.5 -17t8.5 -20q0 -18 -12.5 -29.5t-29 -18.5t-34.5 -10 t-33 -7q-4 6 -12 17.5t-16.5 24.5t-14.5 25.5t-6 20.5q0 6 3 15t7 14q8 10 21.5 20t23.5 18q125 94 277 95q55 0 106.5 -15.5t91.5 -54.5q20 -37 33 -88l17 16q72 74 155.5 114t188.5 40q63 0 125.5 -20.5t107.5 -58.5t64.5 -95t-0.5 -131q-57 -53 -138 -93t-153 -69 q-31 -12 -74 -28.5t-87 -35t-84 -39t-64 -40.5q0 -61 22.5 -109.5t62.5 -80.5t91 -48t110 -16q47 0 98.5 14t92.5 37q27 14 40 43t25.5 55.5t30.5 43t57 3.5q-14 -66 -50 -118t-87 -88.5t-112.5 -57t-124.5 -20.5q-25 0 -66 2t-90 22.5t-102.5 65.5t-102.5 129 q2 -51 -21.5 -88t-63.5 -61.5t-90 -40t-101.5 -23.5t-98.5 -9t-80 1q-16 0 -35.5 11t-40 26.5t-39 32t-28.5 26.5q-18 41 -19 89zM220 253q1 -38 14.5 -72t39 -61.5t60.5 -39.5q2 -2 14 -2h17q47 0 91 13t79 48q57 59 73.5 137t5.5 156q-4 37 -27.5 59.5t-57 33t-70.5 11.5 t-68 -4q-23 -14 -46 -39.5t-44.5 -55t-39 -59.5t-28.5 -54q-14 -33 -13 -71zM758 469q0 -10 1 -22.5t3 -24.5h22q35 20 82 33.5t96.5 27t96.5 30.5t84 46q80 57 80 164q0 41 -10.5 67.5t-45.5 51.5q-25 16 -55.5 23t-58.5 7q-47 0 -85 -12t-75 -43q-74 -61 -101.5 -131 t-31.5 -151v-33v-17q0 -8 -2 -16z" />
<glyph unicode="&#xe7;" horiz-adv-x="845" d="M6 426q0 86 22.5 173t65.5 162t106.5 134t145.5 90q125 29 212 -5t147 -120q14 -18 27 -42.5t13 -49.5q0 -43 -18 -73.5t-65 -30.5q-49 0 -75 20.5t-29 49t14.5 58t52.5 46.5q-61 63 -150 63q-72 0 -132 -43t-102 -107.5t-63.5 -139t-17.5 -138.5q4 -76 20.5 -146.5 t52 -126t94 -88t148.5 -32.5q150 0 225 119q6 12 16.5 28.5t23 34t25.5 31.5t26 22q2 -10 3 -18t1 -12q0 -20 -7.5 -45t-19.5 -49.5t-25.5 -46t-25.5 -38.5q-35 -53 -98.5 -75.5t-122.5 -32.5q-16 -23 -34 -45.5t-34 -44.5q37 2 65.5 -7.5t55.5 -35.5q25 -25 30 -54.5 t-2.5 -59.5t-22.5 -58.5t-32 -50.5q-27 -35 -56.5 -59.5t-70.5 -41.5q-18 -8 -48 -16t-62.5 -13.5t-63.5 -7.5t-51 0q-2 6 3 11.5t12.5 9.5t13.5 6t6 0q8 0 10 2q12 4 24.5 7t24.5 7q45 18 83 45t69 66q4 8 10 15.5t10 17.5q8 10 10.5 31.5t2.5 35.5q0 45 -25 76 q-6 10 -28.5 18.5t-33.5 12.5q-8 0 -21 -4t-27.5 -9.5t-27 -10.5t-18.5 -7q-8 12 -5 21.5t11 19.5q4 8 9.5 13.5t9.5 11.5l69 94q-66 8 -129 43q-117 61 -172 159.5t-55 229.5z" />
<glyph unicode="&#xe8;" horiz-adv-x="886" d="M0 406q0 111 42 207t118 175q72 74 155.5 114t188.5 40q63 0 125.5 -20.5t107.5 -58.5t64.5 -95t-0.5 -131q-57 -53 -138 -93t-153 -69q-31 -12 -74 -28.5t-87 -35t-84 -39t-64 -40.5q0 -61 22.5 -109.5t62.5 -80t91 -48t110 -16.5q47 0 98.5 14t92.5 37q27 14 40 43 t25.5 55.5t31 43t56.5 3.5q-14 -66 -50 -118t-87 -88.5t-112.5 -57t-124.5 -20.5q-27 0 -62 4t-70.5 11t-68.5 18.5t-55 25.5q-16 10 -29.5 23.5t-28.5 25.5q-66 63 -104.5 139.5t-38.5 168.5zM168 539.5q-2 -54.5 2 -113.5h23q35 20 82 33.5t96 27t96 31t84 45.5 q80 57 80 164q0 41 -10.5 67.5t-45.5 51.5q-25 16 -55.5 23.5t-58.5 7.5q-47 0 -85 -12.5t-75 -43.5q-49 -41 -76.5 -85t-41 -93t-15.5 -103.5zM207 1212l63 84q66 -66 139.5 -120t165.5 -113v-2l-47 -31q-47 23 -87 43.5t-77.5 42t-75.5 44.5t-81 52z" />
<glyph unicode="&#xe9;" horiz-adv-x="886" d="M0 406q0 111 42 207t118 175q72 74 155.5 114t188.5 40q63 0 125.5 -20.5t107.5 -58.5t64.5 -95t-0.5 -131q-57 -53 -138 -93t-153 -69q-31 -12 -74 -28.5t-87 -35t-84 -39t-64 -40.5q0 -61 22.5 -109.5t62.5 -80t91 -48t110 -16.5q47 0 98.5 14t92.5 37q27 14 40 43 t25.5 55.5t31 43t56.5 3.5q-14 -66 -50 -118t-87 -88.5t-112.5 -57t-124.5 -20.5q-27 0 -62 4t-70.5 11t-68.5 18.5t-55 25.5q-16 10 -29.5 23.5t-28.5 25.5q-66 63 -104.5 139.5t-38.5 168.5zM168 539.5q-2 -54.5 2 -113.5h23q35 20 82 33.5t96 27t96 31t84 45.5 q80 57 80 164q0 41 -10.5 67.5t-45.5 51.5q-25 16 -55.5 23.5t-58.5 7.5q-47 0 -85 -12.5t-75 -43.5q-49 -41 -76.5 -85t-41 -93t-15.5 -103.5zM248 1055v2q92 59 165.5 113.5t139.5 119.5l63 -84q-43 -29 -80.5 -52.5t-76.5 -45t-79 -41.5t-85 -43z" />
<glyph unicode="&#xea;" horiz-adv-x="886" d="M0 406q0 -92 39 -168t104 -140q14 -12 27.5 -25.5t30.5 -23.5q23 -14 55.5 -25.5t68 -18.5t70.5 -11t62 -4q63 0 124.5 20.5t112.5 57t87 89t50 117.5q-39 12 -57 -4t-30.5 -42.5t-25.5 -55.5t-40 -43q-41 -23 -92 -37t-99 -14q-59 0 -110 16.5t-91 48t-62.5 79.5 t-22.5 110q25 20 64.5 40.5t83.5 39t87 35t74 28.5q72 29 152.5 69t138.5 93q20 74 0.5 131t-64.5 95t-107.5 58.5t-125.5 20.5q-104 0 -188.5 -40t-155.5 -114q-76 -80 -118 -175.5t-42 -206.5zM123 1079q31 14 76 32.5t92 40.5t90 46.5t70 52.5q39 -37 81.5 -61.5t86 -44 t82 -35.5t69.5 -37l2 -2l-145 -117q-23 14 -47.5 43t-49 62t-45 64.5t-32.5 54.5q-10 -16 -28.5 -47t-41.5 -65t-46.5 -63.5t-43.5 -44.5zM168 539.5q2 54.5 15.5 103.5t41 93t76.5 85q37 31 75 43.5t85 12.5q29 0 59.5 -7.5t54.5 -23.5q35 -25 45.5 -51.5t10.5 -67.5 q0 -106 -80 -164q-37 -29 -84 -46t-96 -30.5t-96.5 -27t-81.5 -33.5h-23q-4 59 -2 113.5z" />
<glyph unicode="&#xeb;" horiz-adv-x="886" d="M0 406q0 111 42 207t118 175q72 74 155.5 114t188.5 40q63 0 125.5 -20.5t107.5 -58.5t64.5 -95t-0.5 -131q-57 -53 -138 -93t-153 -69q-31 -12 -74 -28.5t-87 -35t-84 -39t-64 -40.5q0 -61 22.5 -109.5t62.5 -80t91 -48t110 -16.5q47 0 98.5 14t92.5 37q27 14 40 43 t25.5 55.5t31 43t56.5 3.5q-14 -66 -50 -118t-87 -88.5t-112.5 -57t-124.5 -20.5q-27 0 -62 4t-70.5 11t-68.5 18.5t-55 25.5q-16 10 -29.5 23.5t-28.5 25.5q-66 63 -104.5 139.5t-38.5 168.5zM106 1124q0 37 24 55.5t54 30.5q8 4 24.5 10.5t24.5 6.5q18 0 34 -11.5 t28 -23.5q10 -10 22.5 -26.5t12.5 -32.5q0 -4 -3 -13.5t-7.5 -18.5t-8.5 -17.5t-6 -10.5q-10 -29 -42 -40t-66.5 -5t-62.5 29.5t-28 66.5zM168 539.5q-2 -54.5 2 -113.5h23q35 20 82 33.5t96 27t96 31t84 45.5q80 57 80 164q0 41 -10.5 67.5t-45.5 51.5q-25 16 -55.5 23.5 t-58.5 7.5q-47 0 -85 -12.5t-75 -43.5q-49 -41 -76.5 -85t-41 -93t-15.5 -103.5zM508 1126q0 37 23.5 55.5t54.5 30.5q8 4 24.5 10.5t24.5 6.5q18 0 33.5 -11.5t27.5 -23.5q10 -10 22.5 -26.5t12.5 -32.5q0 -4 -3 -13.5t-7 -18.5t-8 -17.5t-6 -10.5q-10 -29 -42 -40t-67 -5 t-62.5 29.5t-27.5 66.5z" />
<glyph unicode="&#xec;" horiz-adv-x="516" d="M-2 1206l63 84q66 -66 139.5 -120t166.5 -113v-2l-48 -31q-47 23 -86.5 43t-77.5 41.5t-76 45t-81 52.5zM0 6v33q16 10 35 10h35q2 -2 12 -2h14q10 0 20.5 2t16.5 12q8 16 11 77t3 130q0 72 -2 134.5t-2 82.5q-2 18 -2 37v37v74v74v36q0 18 -2 37q-10 16 -22.5 13.5 t-26.5 -12t-27.5 -18.5t-23.5 -5q-16 43 8.5 68.5t63.5 43t80.5 33t62.5 39.5l45 -22q-14 -106 -20.5 -213t-6.5 -218q0 -217 25 -428q10 -16 36.5 -21t43.5 1q47 0 57 -6t10 -53q-25 2 -54.5 5t-60 6t-60 4t-52.5 -1q-51 -4 -109.5 -5t-107.5 15z" />
<glyph unicode="&#xed;" horiz-adv-x="516" d="M0 6v33q16 10 35 10h35q2 -2 12 -2h14q10 0 20.5 2t16.5 12q8 16 11 77t3 130q0 72 -2 134.5t-2 82.5q-2 18 -2 37v37v74v74v36q0 18 -2 37q-10 16 -22.5 13.5t-26.5 -12t-27.5 -18.5t-23.5 -5q-16 43 8.5 68.5t63.5 43t80.5 33t62.5 39.5l45 -22q-14 -106 -20.5 -213 t-6.5 -218q0 -217 25 -428q10 -16 36.5 -21t43.5 1q47 0 57 -6t10 -53q-25 2 -54.5 5t-60 6t-60 4t-52.5 -1q-51 -4 -109.5 -5t-107.5 15zM10 1059v2q92 59 166 113.5t139 119.5l64 -84q-43 -29 -81 -52t-77 -44.5t-79 -42t-85 -43.5z" />
<glyph unicode="&#xee;" horiz-adv-x="516" d="M-115 1073q31 14 76 38t92 52.5t90 58t70 58.5q39 -37 82 -67.5t86 -56.5t82 -47.5t69 -41.5l3 -2l-146 -117q-23 14 -47.5 43t-49 61.5t-45 64.5t-32.5 54q-10 -16 -28.5 -46.5t-41 -64.5t-46 -63.5t-44.5 -44.5zM0 6q49 -16 107.5 -15t109.5 5q23 2 52.5 1t60 -4 t60.5 -6t54 -5q0 47 -10 53t-57 6q-16 -6 -43 -1t-37 21q-25 211 -25 428q0 111 6.5 217.5t20.5 213.5l-45 22q-20 -25 -62 -40t-81 -32.5t-63.5 -43t-8.5 -68.5q10 -4 23.5 5t27.5 18.5t26.5 12.5t22.5 -14q2 -18 2 -37v-36v-74v-74v-37q0 -18 2 -37q0 -20 2 -82.5 t2 -134.5q0 -70 -3 -130t-11 -77q-6 -10 -16.5 -12t-20.5 -2h-14q-10 0 -12 2h-35q-18 0 -35 -10v-33z" />
<glyph unicode="&#xef;" horiz-adv-x="516" d="M-90 1135q0 37 23.5 55t54.5 31q8 4 24.5 10t24.5 6q18 0 33.5 -11.5t27.5 -23.5q10 -10 22.5 -26.5t12.5 -32.5q0 -4 -3 -13.5t-7 -18.5t-8 -17.5t-6 -10.5q-10 -29 -42 -40t-67 -5t-62.5 30t-27.5 67zM0 6v33q16 10 35 10h35q2 -2 12 -2h14q10 0 20.5 2t16.5 12 q8 16 11 77t3 130q0 72 -2 134.5t-2 82.5q-2 18 -2 37v37v74v74v36q0 18 -2 37q-10 16 -22.5 13.5t-26.5 -12t-27.5 -18.5t-23.5 -5q-16 43 8.5 68.5t63.5 43t80.5 33t62.5 39.5l45 -22q-14 -106 -20.5 -213t-6.5 -218q0 -217 25 -428q10 -16 36.5 -21t43.5 1q47 0 57 -6 t10 -53q-25 2 -54.5 5t-60 6t-60 4t-52.5 -1q-51 -4 -109.5 -5t-107.5 15zM311 1137q0 37 23.5 55t54.5 31q8 4 24.5 10t24.5 6q18 0 33.5 -11t28.5 -24q10 -10 22.5 -26.5t12.5 -32.5q0 -4 -3.5 -13.5t-7.5 -18.5t-8 -17.5t-6 -10.5q-10 -29 -42 -40t-66.5 -4.5t-62.5 30 t-28 66.5z" />
<glyph unicode="&#xf0;" horiz-adv-x="1122" d="M61 434q0 117 39 210t110 158.5t166 101.5t210 36q96 0 162.5 -19.5t138.5 -82.5q6 -6 12 -11.5t12 -11.5q-16 113 -55 217.5t-96 202.5q-12 -6 -21.5 -12t-17.5 -11l-35 -22q-16 -10 -30.5 -24.5t-16.5 -35.5q-6 -2 -16 5q-4 0 -13.5 20.5t-19.5 44t-18.5 44t-10.5 20.5 q35 6 70 24.5t69 42.5q-31 45 -64.5 87t-70.5 83q-12 12 -27.5 23.5t-30.5 24t-26.5 26.5t-13.5 33l12 16q92 -39 162 -102.5t129 -139.5q49 39 78 60q14 10 27.5 16t27.5 15q23 -4 31 -17l22 -41l33 -49q4 -8 5 -11l1 -3l-92 -47q-8 0 -23.5 -21.5t-35.5 -32.5 q135 -195 187 -409.5t1 -472.5q-63 -186 -186 -277.5t-320 -95.5q-129 -4 -221 35t-166 149q-37 57 -57.5 121.5t-20.5 132.5zM200.5 432q12.5 -96 61.5 -182t135 -141q35 -23 74 -40.5t80 -21.5q86 -6 151.5 36t108.5 109.5t64.5 148.5t21.5 155q0 133 -59 252 q-43 80 -115 111.5t-160 31.5q-72 0 -138.5 -19.5t-115.5 -74.5q-68 -76 -94.5 -172.5t-14 -192.5z" />
<glyph unicode="&#xf1;" horiz-adv-x="1153" d="M0 0q4 8 5 15.5t5 15.5q2 8 18.5 10t35 6t33 13.5t14.5 31.5q0 55 -1 109.5t1 109.5q4 113 5 229.5t-18 229.5l-12 4q-10 -2 -21.5 -9t-21.5 -11t-18.5 -2t-14.5 18v21q66 33 131.5 64.5t130.5 59.5q-8 -20 -17 -48.5t-5 -51.5q33 2 68.5 28.5t71.5 58.5t72 57.5t70 25.5 h39h39q25 -2 56.5 -16.5t63.5 -34t59.5 -42t46.5 -40.5q45 -47 68.5 -106.5t33.5 -125t11 -132t1 -128.5q0 -37 -3 -73.5t-3 -73.5q0 -59 23.5 -105.5t93.5 -46.5q49 0 41 -49q0 -12 -8 -12q-98 0 -193.5 -1t-193.5 -3q-10 10 -9.5 25.5t0.5 29.5q10 6 25.5 5t30.5 -1 q14 0 26.5 7.5t18.5 29.5q-8 53 -6 104.5t6 104.5q4 55 6 114.5t-2 119t-17.5 117t-40.5 108.5q-39 70 -97 98.5t-120.5 22t-121 -44t-97.5 -101.5q-80 -129 -73 -282q4 -92 7 -180.5t-14 -180.5q10 -18 33 -24.5t45.5 -9.5t40 -8t17.5 -19q0 -20 -15 -35zM201 1161 q45 66 87 91.5t81 25.5t74.5 -18.5t69.5 -40t67.5 -39t68.5 -14.5t70 33t74 101l57 -65q-61 -106 -120.5 -140t-115 -27t-106.5 37t-96 50.5t-84 13t-70 -72.5z" />
<glyph unicode="&#xf2;" horiz-adv-x="1021" d="M0 434q0 117 39 210t109.5 158.5t166 101.5t209.5 36q96 0 163 -19.5t138 -82.5q33 -29 60.5 -59.5t44.5 -71.5q23 -55 32 -117t9 -121q0 -111 -40 -198t-108.5 -147.5t-161 -93t-196.5 -34.5q-129 -4 -221 35t-166 149q-37 57 -57.5 121.5t-20.5 132.5zM139.5 432 q12.5 -96 61.5 -182t135 -141q35 -23 74 -40.5t79 -21.5q86 -6 152 36t109 109.5t64.5 148.5t21.5 155q0 133 -60 252q-43 80 -114.5 111.5t-159.5 31.5q-72 0 -138.5 -19.5t-115.5 -74.5q-68 -76 -94.5 -172.5t-14 -192.5zM311 1206l64 84q66 -66 139.5 -120t165.5 -113v-2 l-47 -31q-47 23 -87 43t-78 41.5t-76 45t-81 52.5z" />
<glyph unicode="&#xf3;" horiz-adv-x="1021" d="M0 434q0 117 39 210t109.5 158.5t166 101.5t209.5 36q96 0 163 -19.5t138 -82.5q33 -29 60.5 -59.5t44.5 -71.5q23 -55 32 -117t9 -121q0 -111 -40 -198t-108.5 -147.5t-161 -93t-196.5 -34.5q-129 -4 -221 35t-166 149q-37 57 -57.5 121.5t-20.5 132.5zM139.5 432 q12.5 -96 61.5 -182t135 -141q35 -23 74 -40.5t79 -21.5q86 -6 152 36t109 109.5t64.5 148.5t21.5 155q0 133 -60 252q-43 80 -114.5 111.5t-159.5 31.5q-72 0 -138.5 -19.5t-115.5 -74.5q-68 -76 -94.5 -172.5t-14 -192.5zM307 1057v2q92 59 166 113.5t139 119.5l64 -84 q-43 -29 -81 -52t-77 -44.5t-79 -42t-85 -43.5z" />
<glyph unicode="&#xf4;" horiz-adv-x="1021" d="M0 434q0 -68 20.5 -132t57.5 -122q74 -111 166 -149.5t221 -34.5q104 2 196.5 34.5t161 93t108.5 147.5t40 198q0 59 -9.5 120.5t-31.5 117.5q-16 41 -44 71.5t-61 59.5q-72 63 -138 82.5t-163 19.5q-115 0 -210 -36t-165.5 -101.5t-109.5 -158.5t-39 -210zM139.5 432 q-12.5 96 14 192.5t94.5 172.5q49 55 115.5 74.5t138.5 19.5q88 0 159.5 -32t114.5 -111q59 -119 60 -252q0 -74 -21.5 -155t-64.5 -148.5t-109 -109.5t-152 -36q-41 4 -79.5 21.5t-73.5 40.5q-86 55 -135 141t-61.5 182zM164 1077q31 14 76 32.5t92 41.5t90 47.5t70 52.5 q39 -37 81.5 -62.5t85.5 -45t82 -35.5t70 -37l2 -2l-145 -117q-23 14 -47.5 43t-49 62t-45 64.5t-32.5 54.5q-10 -16 -29 -47t-41.5 -65t-46 -63.5t-43.5 -44.5z" />
<glyph unicode="&#xf5;" horiz-adv-x="1021" d="M0 434q0 117 39 210t109.5 158.5t166 101.5t209.5 36q96 0 163 -19.5t138 -82.5q33 -29 60.5 -59.5t44.5 -71.5q23 -55 32 -117t9 -121q0 -111 -40 -198t-108.5 -147.5t-161 -93t-196.5 -34.5q-129 -4 -221 35t-166 149q-37 57 -57.5 121.5t-20.5 132.5zM139.5 432 q12.5 -96 61.5 -182t135 -141q35 -23 74 -40.5t79 -21.5q86 -6 152 36t109 109.5t64.5 148.5t21.5 155q0 133 -60 252q-43 80 -114.5 111.5t-159.5 31.5q-72 0 -138.5 -19.5t-115.5 -74.5q-68 -76 -94.5 -172.5t-14 -192.5zM147 1171q45 66 87 91.5t81 25.5t75 -18.5t70 -40 t67.5 -38.5t68.5 -14t69.5 32.5t73.5 101.5l58 -66q-61 -106 -121 -140t-115 -27t-106.5 37t-96.5 50.5t-83.5 13t-69.5 -72.5z" />
<glyph unicode="&#xf6;" horiz-adv-x="1021" d="M0 434q0 117 39 210t109.5 158.5t166 101.5t209.5 36q96 0 163 -19.5t138 -82.5q33 -29 60.5 -59.5t44.5 -71.5q23 -55 32 -117t9 -121q0 -111 -40 -198t-108.5 -147.5t-161 -93t-196.5 -34.5q-129 -4 -221 35t-166 149q-37 57 -57.5 121.5t-20.5 132.5zM139.5 432 q12.5 -96 61.5 -182t135 -141q35 -23 74 -40.5t79 -21.5q86 -6 152 36t109 109.5t64.5 148.5t21.5 155q0 133 -60 252q-43 80 -114.5 111.5t-159.5 31.5q-72 0 -138.5 -19.5t-115.5 -74.5q-68 -76 -94.5 -172.5t-14 -192.5zM172 1128q0 37 23.5 55.5t54.5 30.5 q8 4 24.5 10.5t24.5 6.5q18 0 33.5 -11.5t27.5 -23.5q10 -10 22.5 -26.5t12.5 -32.5q0 -4 -3 -13.5t-7 -18.5t-8 -17.5t-6 -10.5q-10 -29 -42 -40t-67 -5t-62.5 29.5t-27.5 66.5zM573 1130q0 37 24 55.5t54 31.5q8 4 24.5 10t24.5 6q18 0 34 -11.5t28 -23.5 q10 -10 22.5 -26.5t12.5 -32.5q0 -4 -3 -13.5t-7.5 -18.5t-8.5 -17.5t-6 -10.5q-10 -29 -42 -40t-66.5 -5t-62.5 29.5t-28 66.5z" />
<glyph unicode="&#xf7;" horiz-adv-x="995" d="M104 516q12 18 16.5 40t5.5 44.5t5 44t16 39.5q20 -2 54.5 -6t75 -7t88 -7.5t94.5 -6.5l102 -4q37 2 86 8.5t99.5 12.5t95.5 12t76 8q-12 -16 -16.5 -36.5t-4.5 -43.5q0 -20 -1 -40.5t-9 -38.5q-25 0 -63 2t-82 5t-91 6t-90 3q-18 2 -31 2h-16h-8q2 0 10 -1l8 -1h-14h-53 q-47 -2 -101.5 -8t-103.5 -12.5t-89.5 -10.5t-58.5 -4zM391 305q0 37 23.5 55.5t54.5 30.5q8 4 24.5 10.5t24.5 6.5q18 0 33.5 -11.5t28.5 -23.5q10 -10 22 -26.5t12 -33.5q0 -4 -3 -13t-7 -18.5t-8 -17.5t-6 -10q-10 -29 -42 -40t-67 -5t-62.5 29.5t-27.5 66.5zM399 905 q0 37 23.5 55.5t54.5 30.5q8 4 24.5 10.5t24.5 6.5q18 0 33.5 -11.5t28.5 -23.5q10 -10 22.5 -26.5t12.5 -33.5q0 -4 -3.5 -13t-7.5 -18.5t-8 -17.5t-6 -10q-10 -29 -42 -40t-66.5 -5t-62.5 29.5t-28 66.5z" />
<glyph unicode="&#xf8;" horiz-adv-x="1021" d="M0 434q0 117 39 210t109.5 158.5t166 101.5t209.5 36q59 0 106.5 -6t88.5 -25q25 49 51.5 107.5t48.5 109.5q0 -27 6 -40t17.5 -18t23.5 -5h25q18 0 31 -14q-8 -16 -41 -67.5t-80 -125.5l24 -18q33 -29 60.5 -59.5t44.5 -71.5q23 -55 32 -117t9 -121q0 -111 -40 -198 t-108.5 -147.5t-161 -93t-196.5 -34.5q-102 -4 -178 18q-14 -35 -28.5 -70.5t-27 -69.5t-22.5 -60.5t-16 -40.5q-8 41 -24.5 58t-74.5 34q6 12 37 62t76 122q-72 43 -129 131q-37 57 -57.5 121.5t-20.5 132.5zM135 472q4 -87 39 -170t98 -144q57 94 121 197.5t121 198.5 t103.5 172t68.5 118q-74 47 -184 47q-72 0 -138.5 -19.5t-115.5 -74.5q-61 -68 -89 -153t-24 -172zM330 113q4 -4 6 -4q35 -23 74 -40.5t79 -21.5q86 -6 152 36t109 109.5t64.5 148.5t21.5 155q0 133 -60 252q-14 23 -22 34q-61 -96 -132 -205.5t-132.5 -205t-104.5 -164 t-51 -86.5q-4 -4 -4 -8z" />
<glyph unicode="&#xf9;" horiz-adv-x="1136" d="M0 817q33 8 67.5 37t69.5 58.5t71 52t71 20.5q0 -23 2 -59.5t2 -69.5v-37q0 -66 -4.5 -163t-2 -199.5t14.5 -194.5t45 -145q37 -59 103.5 -70.5t127.5 8.5q139 51 211 174q8 10 13.5 20.5t9.5 20.5q2 10 3 19.5t1 19.5v21q0 14 2 20q4 49 6 98.5t2 98.5q0 59 -4 119.5 t-18 119.5q-16 0 -32 -6t-31 -9t-28.5 -2t-25.5 17v43q39 6 74.5 28t69.5 46.5t68 48t68 33.5q-4 -74 -9 -165t-5 -165q0 -129 1 -259t9 -259q18 -39 40 -33.5t42.5 17.5t33.5 15t17 -42q-63 -31 -127.5 -57.5t-130.5 -50.5q-16 10 -19 28.5t-2 39t3 39t-4 30.5 q-100 -86 -222 -114.5t-251 -22.5q-74 33 -115 88t-60.5 123.5t-22.5 145.5t-3 155q0 80 -2 153.5t-18 134.5q-16 -10 -37 -19t-39 -9q-16 0 -27.5 12t-7.5 47zM305 1206l64 84q66 -66 139.5 -120t165.5 -113v-2l-47 -31q-47 23 -87 43t-78 41.5t-76 45t-81 52.5z" />
<glyph unicode="&#xfa;" horiz-adv-x="1136" d="M0 817q33 8 67.5 37t69.5 58.5t71 52t71 20.5q0 -23 2 -59.5t2 -69.5v-37q0 -66 -4.5 -163t-2 -199.5t14.5 -194.5t45 -145q37 -59 103.5 -70.5t127.5 8.5q139 51 211 174q8 10 13.5 20.5t9.5 20.5q2 10 3 19.5t1 19.5v21q0 14 2 20q4 49 6 98.5t2 98.5q0 59 -4 119.5 t-18 119.5q-16 0 -32 -6t-31 -9t-28.5 -2t-25.5 17v43q39 6 74.5 28t69.5 46.5t68 48t68 33.5q-4 -74 -9 -165t-5 -165q0 -129 1 -259t9 -259q18 -39 40 -33.5t42.5 17.5t33.5 15t17 -42q-63 -31 -127.5 -57.5t-130.5 -50.5q-16 10 -19 28.5t-2 39t3 39t-4 30.5 q-100 -86 -222 -114.5t-251 -22.5q-74 33 -115 88t-60.5 123.5t-22.5 145.5t-3 155q0 80 -2 153.5t-18 134.5q-16 -10 -37 -19t-39 -9q-16 0 -27.5 12t-7.5 47zM348 1055v2q92 59 166 113.5t139 119.5l64 -84q-43 -29 -81 -52.5t-77 -45t-79 -41.5t-85 -43z" />
<glyph unicode="&#xfb;" horiz-adv-x="1136" d="M0 817q-4 -35 7 -47t28 -12q18 0 38.5 9t37.5 19q16 -61 18 -134.5t2 -153.5q0 -78 3 -155t22.5 -145.5t60.5 -124t115 -87.5q129 -6 251 22.5t222 114.5q6 -12 4 -30.5t-3 -39t2 -39t19 -28.5q66 25 130.5 51t127.5 57q-4 45 -17 42t-33.5 -15t-42 -17.5t-40.5 33.5 q-8 129 -9 259t-1 259q0 74 5 165t9 165q-35 -10 -68.5 -33.5t-67.5 -48t-69.5 -46t-74.5 -28.5v-43q12 -16 25.5 -17t28.5 2t30.5 9t32.5 6q14 -59 18 -119.5t4 -119.5q0 -49 -2 -98.5t-6 -98.5q-2 -6 -2 -20v-21q0 -10 -1 -19t-3 -20q-4 -10 -9.5 -20t-13.5 -21 q-72 -123 -211 -174q-61 -20 -127.5 -9t-103.5 71q-33 53 -45 145t-14.5 194.5t2 200t4.5 162.5v37q0 33 -2 70t-2 59q-35 2 -71 -20.5t-71 -52t-69.5 -58.5t-67.5 -37zM205 1079q31 14 76 32.5t92 40.5t90 46.5t69 52.5q39 -37 82 -61.5t86 -44t82 -35.5t70 -37l2 -2 l-145 -117q-23 14 -47.5 43t-49 62t-45 64.5t-32.5 54.5q-10 -16 -29 -47t-41.5 -65t-46 -63.5t-43.5 -44.5z" />
<glyph unicode="&#xfc;" horiz-adv-x="1136" d="M0 817q33 8 67.5 37t69.5 58.5t71 52t71 20.5q0 -23 2 -59.5t2 -69.5v-37q0 -66 -4.5 -163t-2 -199.5t14.5 -194.5t45 -145q37 -59 103.5 -70.5t127.5 8.5q139 51 211 174q8 10 13.5 20.5t9.5 20.5q2 10 3 19.5t1 19.5v21q0 14 2 20q4 49 6 98.5t2 98.5q0 59 -4 119.5 t-18 119.5q-16 0 -32 -6t-31 -9t-28.5 -2t-25.5 17v43q39 6 74.5 28t69.5 46.5t68 48t68 33.5q-4 -74 -9 -165t-5 -165q0 -129 1 -259t9 -259q18 -39 40 -33.5t42.5 17.5t33.5 15t17 -42q-63 -31 -127.5 -57.5t-130.5 -50.5q-16 10 -19 28.5t-2 39t3 39t-4 30.5 q-100 -86 -222 -114.5t-251 -22.5q-74 33 -115 88t-60.5 123.5t-22.5 145.5t-3 155q0 80 -2 153.5t-18 134.5q-16 -10 -37 -19t-39 -9q-16 0 -27.5 12t-7.5 47zM193 1139q0 37 23.5 55t53.5 31q8 4 24.5 10t24.5 6q18 0 34 -11t28 -24q10 -10 22.5 -26.5t12.5 -32.5 q0 -4 -3 -13.5t-7.5 -18.5l-8.5 -17t-6 -11q-10 -29 -42 -40t-66.5 -4.5t-62 30t-27.5 66.5zM594 1141q0 37 23.5 55t54.5 31q8 4 24.5 10t24.5 6q18 0 33.5 -11t27.5 -24q10 -10 22.5 -26.5t12.5 -32.5q0 -4 -3 -13.5t-7 -18.5t-8 -17t-6 -10q-10 -29 -42 -40.5t-67 -5 t-62.5 30t-27.5 66.5z" />
<glyph unicode="&#xfd;" horiz-adv-x="1013" d="M-12 903q0 16 5 32.5t9 27.5q35 -14 71 -17.5t71.5 -1.5t71.5 6t71 4q16 0 31.5 -1t31.5 -3q16 -16 13 -33.5t-13 -35.5l-102 -13q12 -68 9 -139.5t-7 -138.5q-2 -39 2 -76t4 -74q0 -63 11.5 -125.5t39.5 -119.5q29 -59 75 -97.5t116 -38.5q47 0 92 18.5t86 45.5 q2 4 13 11t13 9q16 23 33 47l33 50q23 31 27 80t4 86q0 98 -2 194t-15 195q0 29 -6 51t-26 22q-12 2 -27.5 0t-30 -1t-24 7.5t-9.5 24.5q0 4 1.5 16.5t1.5 26.5t1 26.5t1 16.5q8 6 16 2t16.5 -12t16.5 -15.5t18 -7.5q27 0 57 -4l62 -8q31 -4 59.5 -5t53.5 7l-39 -229 q-16 -98 -17.5 -199.5t2.5 -200.5q4 -135 2 -268t-51 -262q-20 -51 -55 -103.5t-81 -95.5t-101.5 -69.5t-114.5 -26.5q-20 0 -43 2t-43.5 9t-36.5 21.5t-23 37.5q-4 23 5.5 41t26 31.5t37 20.5t40.5 7q14 0 28.5 -11.5t26 -27.5t20.5 -33.5t15 -27.5q47 23 89 59.5t73 81.5 t48 97t17 106v90q0 23 -2 46t-10 46q-14 -4 -33.5 -14.5t-31.5 -16.5q-35 -18 -61.5 -32.5t-53.5 -23.5t-57.5 -14.5t-69.5 -5.5q-76 -2 -157 30t-134 85q-35 35 -53.5 74t-24.5 80t-5 85t3 91q2 29 -2 55.5t-4 54.5q0 82 4 164l8 164q-18 18 -41.5 25.5t-44.5 -17.5 q-18 0 -24 10.5t-6 24.5zM299 1057v2q92 59 166 113.5t139 119.5l64 -84q-43 -29 -81 -52t-77 -44.5t-79 -42t-85 -43.5z" />
<glyph unicode="&#xfe;" horiz-adv-x="1236" d="M55 -522q0 20 3 46.5t28 31.5q4 0 7 -2.5t7 -2.5q10 -2 18.5 -3t14.5 -1q33 0 63.5 17.5t36.5 52.5q8 25 11.5 23t4.5 -8q-1 3 -1 38v217v189q0 98 -1 193.5t-2 183.5t-3 157q0 41 1 69t3 52.5t3 50t1 62.5v55q0 35 -2 80q-2 12 -3 52t-1 91v113q0 61 -1 113.5t-3 91.5 t-4 51q-6 35 -37 52.5t-64 17.5q-6 0 -14 -1t-19 -4q-4 0 -7 -2t-7 -2q-25 4 -28 31t-3 47h529q2 0 12 -3t12 -3q4 -10 -3 -28.5t-11 -28.5q-16 -8 -51 -8h-41q-29 0 -58.5 -11.5t-42.5 -40.5q0 -8 -1 -42.5t-3 -84t-5 -106.5t-5 -108.5t-3 -89.5t-1 -50q25 -2 46.5 -5 t46 -5t53 -3t67.5 -1q49 0 96 -12.5t90 -29t84 -36t78 -33.5q137 -61 209 -194q6 -14 13.5 -27.5t11.5 -28.5q8 -29 10 -53.5t2 -52.5q0 -92 -26.5 -172t-88.5 -146q-80 -84 -153.5 -127t-152.5 -64.5t-168 -29.5t-197 -22q-4 -18 -7.5 -65.5t-5.5 -101t-3 -104.5t-1 -80 q2 10 7 1t5 -33q12 -29 42 -40.5t59 -11.5h41q35 0 51 -8q4 -10 11 -28.5t3 -28.5q-2 0 -12 -3t-12 -3h-529zM387 752q0 -10 2 -40t5 -86.5t9 -154.5q0 -47 2.5 -93t2.5 -93t-1 -95.5t-1 -95.5q0 -18 17 -27.5t34 -11.5q12 -2 27.5 0t29.5 4q43 6 71.5 3t53.5 -3t51.5 6.5 t63.5 28.5q121 72 194.5 172.5t73.5 245.5q0 86 -29.5 152.5t-81.5 132.5l-161 90q-78 25 -133.5 39t-118.5 14q-41 0 -92 -6q-10 -41 -14.5 -81t-4.5 -81v-20z" />
<glyph unicode="&#xff;" horiz-adv-x="1013" d="M-12 903q0 16 5 32.5t9 27.5q35 -14 71 -17.5t71.5 -1.5t71.5 6t71 4q16 0 31.5 -1t31.5 -3q16 -16 13 -33.5t-13 -35.5l-102 -13q12 -68 9 -139.5t-7 -138.5q-2 -39 2 -76t4 -74q0 -63 11.5 -125.5t39.5 -119.5q29 -59 75 -97.5t116 -38.5q47 0 92 18.5t86 45.5 q2 4 13 11t13 9q16 23 33 47l33 50q23 31 27 80t4 86q0 98 -2 194t-15 195q0 29 -6 51t-26 22q-12 2 -27.5 0t-30 -1t-24 7.5t-9.5 24.5q0 4 1.5 16.5t1.5 26.5t1 26.5t1 16.5q8 6 16 2t16.5 -12t16.5 -15.5t18 -7.5q27 0 57 -4l62 -8q31 -4 59.5 -5t53.5 7l-39 -229 q-16 -98 -17.5 -199.5t2.5 -200.5q4 -135 2 -268t-51 -262q-20 -51 -55 -103.5t-81 -95.5t-101.5 -69.5t-114.5 -26.5q-20 0 -43 2t-43.5 9t-36.5 21.5t-23 37.5q-4 23 5.5 41t26 31.5t37 20.5t40.5 7q14 0 28.5 -11.5t26 -27.5t20.5 -33.5t15 -27.5q47 23 89 59.5t73 81.5 t48 97t17 106v90q0 23 -2 46t-10 46q-14 -4 -33.5 -14.5t-31.5 -16.5q-35 -18 -61.5 -32.5t-53.5 -23.5t-57.5 -14.5t-69.5 -5.5q-76 -2 -157 30t-134 85q-35 35 -53.5 74t-24.5 80t-5 85t3 91q2 29 -2 55.5t-4 54.5q0 82 4 164l8 164q-18 18 -41.5 25.5t-44.5 -17.5 q-18 0 -24 10.5t-6 24.5zM172 1130q0 37 23.5 55.5t54.5 31.5q8 4 24.5 10t24.5 6q18 0 33.5 -11.5t27.5 -23.5q10 -10 22.5 -26.5t12.5 -32.5q0 -4 -3 -13.5t-7 -18.5t-8 -17.5t-6 -10.5q-10 -29 -42 -40t-67 -5t-62.5 29.5t-27.5 66.5zM573 1133q0 37 24 55t54 31 q8 4 24.5 10t24.5 6q18 0 34 -11.5t28 -23.5q10 -10 22.5 -26.5t12.5 -32.5q0 -4 -3 -13.5t-7.5 -18.5t-8.5 -17.5t-6 -10.5q-10 -29 -42 -40t-66.5 -5t-62.5 30t-28 67z" />
<glyph unicode="&#x152;" horiz-adv-x="3055" d="M0 797q0 135 35 258t115 233q143 199 340.5 290t439.5 91q96 0 187 -26.5t174 -73.5t157 -109.5t137 -134.5q0 51 -1 101.5t-3 101.5q-10 20 -29.5 35.5t-42 21.5t-46 2t-40.5 -20q-23 10 -18.5 36.5t12.5 43.5l1108 -21q14 -35 36 -67.5t43.5 -64.5t39.5 -65.5t29 -70.5 q-25 8 -55.5 38.5t-62.5 64.5t-62.5 61.5t-57.5 29.5q-25 2 -73 6.5t-106 8.5t-124 8t-125 5t-108.5 0t-75.5 -7q-29 -6 -49.5 -34t-24.5 -56.5t-2 -60t0 -60.5q0 -57 -1 -114.5t-1 -117.5q0 -45 1 -89t3 -89q98 -37 201.5 -40t203.5 1q37 2 91.5 4.5t89.5 -4.5 q20 10 32.5 38t12.5 57q0 12 -4 28v27q0 25 7 46t32 21q20 0 28 -8v-479q-2 -2 -8 -2h-8q-39 0 -51.5 29.5t16.5 54.5q-8 31 -23.5 66.5t-44.5 52.5q-2 0 -7 3t-7 3h-545q-12 -29 -18 -55q-2 -27 -6 -54.5t-10 -58.5q-2 -47 -1 -94t-1 -92q-2 -49 -3.5 -97.5t-1.5 -95.5 t3.5 -94t7.5 -96l37 -33q428 -31 858 0q45 29 84 73t75.5 89t75.5 84t88 59l15 -14q-78 -72 -118 -173.5t-61 -201.5q-92 6 -189 3t-190 -3q-47 0 -94 2t-94 2h-162h-80h-41q-18 0 -38 -2q-129 -2 -256 -5t-256 3q-20 18 -17.5 45t10.5 49q12 2 26.5 -6t31 -17.5t33 -13.5 t34.5 6l52 60l4 102q2 51 6 103q-68 -78 -153 -138.5t-179 -101.5t-196.5 -62.5t-202.5 -21.5h-37q-123 0 -232.5 36t-210.5 101q-358 230 -358 660zM167 756.5q13 -156.5 87 -302t205 -257.5q86 -72 191.5 -94.5t209.5 -22.5q78 0 140.5 7t116.5 27.5t104.5 56.5t105.5 93 q104 104 170 223t86 261q0 49 1 99t1 101q-14 137 -70.5 257t-146.5 209t-212 139.5t-269 50.5q-162 0 -294 -58.5t-237 -187.5q-109 -133 -155.5 -289t-33.5 -312.5z" />
<glyph unicode="&#x153;" horiz-adv-x="1710" d="M0 434q0 117 39 210t109.5 158.5t166 101.5t209.5 36q96 0 163 -19.5t138 -82.5l57 -57q28 -28 44 -64q25 37 59 71q72 74 156 114t188 40q63 0 126 -20.5t108 -58.5t64.5 -95t-1.5 -131q-57 -53 -138 -93t-153 -69q-31 -12 -73.5 -28.5t-87 -35t-84 -39t-64.5 -40.5 q0 -61 22.5 -109.5t62.5 -80t91 -48t111 -16.5q47 0 98 14t92 37q27 14 40 43t25.5 55.5t31 43t57.5 3.5q-14 -66 -50 -118t-87.5 -88.5t-112.5 -57t-125 -20.5q-27 0 -61.5 4t-70.5 11t-68.5 18.5t-55.5 25.5q-16 10 -29.5 23.5t-27.5 25.5q-25 23 -45.5 47.5t-36.5 49.5 q-70 -94 -178.5 -144.5t-243.5 -54.5q-129 -4 -221 35t-166 149q-37 57 -57.5 121.5t-20.5 132.5zM139.5 432q12.5 -96 61.5 -182t135 -141q35 -23 74 -40.5t79 -21.5q70 -6 127.5 22.5t99.5 78t69.5 113t39.5 126.5v19q0 27 3 52t8 50q-2 63 -16.5 122.5t-43.5 117.5 q-43 80 -114.5 111.5t-159.5 31.5q-72 0 -138.5 -19.5t-115.5 -74.5q-68 -76 -94.5 -172.5t-14 -192.5zM971 410l47 16q35 20 82 33.5t96 27t96 31t84 45.5q80 57 80 164q0 41 -10 67.5t-45 51.5q-25 16 -55.5 23.5t-59.5 7.5q-47 0 -85 -12.5t-75 -43.5 q-98 -82 -130.5 -185t-24.5 -226z" />
<glyph unicode="&#x178;" horiz-adv-x="1581" d="M3 1611.5q-13 16.5 11 59.5q39 -12 85 -14t94.5 -1t96.5 5t89 4q14 0 31.5 1t29.5 -3q20 -16 12 -42t-32.5 -30t-55 -5t-45.5 -36l-2 -659q0 -55 10.5 -118.5t47.5 -108.5q41 -47 102.5 -62.5t120.5 -15.5q68 0 135.5 16t129 44t114.5 66t92 81q74 88 99.5 189t25.5 237 v344q-6 12 -23.5 24t-31.5 2q-6 -2 -22.5 -5t-22.5 1q-10 -4 -22.5 9.5t-4.5 23.5v39q23 2 46.5 4t45.5 2q31 2 60.5 0t60.5 -2q29 0 73 -3t79 -3h24q14 0 21 2q4 -16 17 -25.5t13 -23.5q0 -8 -14 -17q-10 0 -28.5 -2t-37 -7t-33 -15.5t-14.5 -24.5v-291q0 -115 -3 -237.5 t-10 -240.5t-20.5 -224.5t-33.5 -188.5q-33 -123 -111 -200.5t-188 -126.5q-49 -23 -114.5 -28t-119.5 -5q-55 0 -116.5 9t-110.5 38q-68 39 -68 119q0 39 32 62.5t70 26.5t69.5 -16.5t31.5 -64.5q0 -23 -24.5 -50.5t-38.5 -41.5q8 -16 28.5 -26.5t45 -16.5t48 -9t39.5 -3 q23 0 45.5 6t45.5 10q94 23 166.5 71t105.5 146q25 72 31 147.5t6 151.5q0 78 -1 155t7 150q-70 -84 -135.5 -152.5t-139 -119.5t-162.5 -79t-206 -28q-55 0 -110.5 8.5t-103.5 29t-87 57t-62 92.5q-8 23 -16 50.5t-8 49.5l-21 778q-10 20 -39.5 26.5t-57.5 12.5t-41 22.5z M438 1845q0 37 23.5 55.5t54.5 30.5q8 4 24.5 10.5t24.5 6.5q18 0 33.5 -11.5t28.5 -23.5q10 -10 22.5 -26.5t12.5 -33.5q0 -4 -3.5 -13t-7.5 -18.5t-8 -17.5t-6 -10q-10 -29 -42 -40t-66.5 -5t-62.5 29.5t-28 66.5zM840 1847q0 37 23.5 55.5t54.5 30.5q8 4 24 10.5t25 6.5 q18 0 33.5 -11.5t27.5 -23.5q10 -10 22.5 -26.5t12.5 -33.5q0 -4 -3 -13t-7 -18t-8.5 -17.5t-6.5 -10.5q-10 -29 -41.5 -40t-66.5 -5t-62.5 29.5t-27.5 66.5z" />
<glyph unicode="&#x2c6;" horiz-adv-x="776" d="M59 1419q31 14 76 38t92 52.5t90 58t70 58.5q39 -37 82 -67.5t86 -56t82 -47t70 -42.5l2 -2l-146 -117q-23 14 -47 43t-49 62t-45.5 64.5t-32.5 54.5q-10 -16 -28.5 -47t-41 -65t-46 -63.5t-44.5 -44.5z" />
<glyph unicode="&#x2dc;" horiz-adv-x="774" d="M59 1450q45 66 87 91.5t81 25.5t75 -18.5t70 -40t67.5 -39t68.5 -14.5t69.5 33t73.5 101l58 -65q-61 -106 -121 -140t-115 -27t-106.5 36.5t-96.5 50t-84 13.5t-69 -73z" />
<glyph unicode="&#x2000;" horiz-adv-x="1024" />
<glyph unicode="&#x2001;" horiz-adv-x="2048" />
<glyph unicode="&#x2002;" horiz-adv-x="1024" />
<glyph unicode="&#x2003;" horiz-adv-x="2048" />
<glyph unicode="&#x2004;" horiz-adv-x="681" />
<glyph unicode="&#x2005;" horiz-adv-x="512" />
<glyph unicode="&#x2006;" horiz-adv-x="339" />
<glyph unicode="&#x2007;" horiz-adv-x="339" />
<glyph unicode="&#x2008;" horiz-adv-x="256" />
<glyph unicode="&#x2009;" horiz-adv-x="409" />
<glyph unicode="&#x200a;" horiz-adv-x="112" />
<glyph unicode="&#x2010;" horiz-adv-x="634" d="M61 561q12 18 16.5 40t5.5 44.5t5 44t16 39.5q53 -4 121 -23.5t135 -19.5q57 0 102.5 14.5t110.5 18.5q-12 -16 -16 -36.5t-4 -43.5q0 -20 -1 -40.5t-9 -39.5q-59 2 -125 14.5t-125 12.5q-63 0 -124 -11.5t-108 -13.5z" />
<glyph unicode="&#x2011;" horiz-adv-x="634" d="M61 561q12 18 16.5 40t5.5 44.5t5 44t16 39.5q53 -4 121 -23.5t135 -19.5q57 0 102.5 14.5t110.5 18.5q-12 -16 -16 -36.5t-4 -43.5q0 -20 -1 -40.5t-9 -39.5q-59 2 -125 14.5t-125 12.5q-63 0 -124 -11.5t-108 -13.5z" />
<glyph unicode="&#x2012;" horiz-adv-x="634" d="M61 561q12 18 16.5 40t5.5 44.5t5 44t16 39.5q53 -4 121 -23.5t135 -19.5q57 0 102.5 14.5t110.5 18.5q-12 -16 -16 -36.5t-4 -43.5q0 -20 -1 -40.5t-9 -39.5q-59 2 -125 14.5t-125 12.5q-63 0 -124 -11.5t-108 -13.5z" />
<glyph unicode="&#x2013;" horiz-adv-x="1099" d="M61 561q12 18 16.5 40t5.5 44.5t5 44t16 39.5q27 -2 90.5 -9t135 -14.5t138.5 -12.5t101 -5q29 0 93.5 5t136 12.5t137 14.5t98.5 9q-12 -16 -16 -36.5t-4 -43.5q0 -20 -1 -40.5t-9 -39.5q-29 0 -93.5 3t-135 6.5t-135.5 6.5t-95 3q-31 0 -101.5 -4t-147.5 -9.5 t-143.5 -9.5t-91.5 -4z" />
<glyph unicode="&#x2014;" horiz-adv-x="1431" d="M61 561q12 18 16.5 40t5.5 44.5t5 44t16 39.5q18 -2 75 -5t132.5 -7t161.5 -9.5t163 -8.5t136 -5t82 -2q29 0 102.5 5t156.5 12.5t159 13.5t108 8q-12 -16 -16 -36.5t-4 -43.5q0 -20 -1 -40.5t-9 -39.5q-20 0 -80 1t-138.5 2t-169 3.5t-170 3.5t-139 2t-80.5 1 q-31 0 -106.5 -3t-157.5 -8.5t-152.5 -8.5t-95.5 -3z" />
<glyph unicode="&#x2018;" horiz-adv-x="292" d="M41 1385.5q-6 27.5 0 57.5t20.5 58.5t30.5 52.5q18 29 47 63t64 44q-8 -18 -14.5 -37.5t-14.5 -38.5q-6 -16 -12 -30.5t-12 -30.5l-3 -7q-2 -7 0 -8q45 0 75 -19.5t38 -66.5q4 -29 -5 -47t-26.5 -31.5t-40 -21.5t-43.5 -14q-20 -4 -37.5 3t-33.5 21q-27 25 -33 52.5z" />
<glyph unicode="&#x2019;" horiz-adv-x="292" d="M39 1546q-4 27 5 46.5t26.5 32.5t39 21.5t44.5 14.5q16 2 35.5 -6t36 -21.5t26.5 -31t10 -35.5q0 -39 -17.5 -79t-37.5 -71q-16 -29 -46 -64.5t-65 -43.5q8 18 14.5 37.5t14.5 37.5q6 16 12 31t13 31l2 7q2 7 0 7q-45 0 -75 19.5t-38 66.5z" />
<glyph unicode="&#x201a;" horiz-adv-x="321" d="M39 70q-8 49 24.5 79.5t75.5 33.5t80 -23.5t37 -91.5q0 -10 -9 -23l-16 -20q-27 -33 -36 -65t-19 -73q0 -8 -7 -31.5t-13 -39.5q-8 -20 -12.5 -11t-4.5 17q-6 18 -11 36.5t-9 37.5l-25 98q-6 29 -31 39q-22 8 -24 37z" />
<glyph unicode="&#x201c;" horiz-adv-x="604" d="M41 1385.5q-6 27.5 0 57.5t20.5 58.5t30.5 52.5q18 29 47 63t64 44q-8 -18 -14.5 -37.5t-14.5 -38.5q-6 -16 -12 -30.5t-12 -30.5l-3 -7q-2 -7 0 -8q45 0 75 -19.5t38 -66.5q4 -29 -5 -47t-26.5 -31.5t-40 -21.5t-43.5 -14q-20 -4 -37.5 3t-33.5 21q-27 25 -33 52.5z M323.5 1393.5q-6.5 27.5 0 57.5t20.5 58.5t31 53.5q18 29 47 62.5t63 43.5q-8 -18 -14 -37.5t-14 -38.5q-6 -16 -12.5 -30.5t-12.5 -30.5l-2 -7q-2 -7 0 -7q45 0 75 -19.5t38 -66.5q4 -29 -5.5 -47.5t-26.5 -32t-39.5 -21.5t-43.5 -14q-20 -4 -37.5 3t-34.5 21 q-26 25 -32.5 52.5z" />
<glyph unicode="&#x201d;" horiz-adv-x="587" d="M39 1546q-4 27 5 46.5t26.5 32.5t39 21.5t44.5 14.5q16 2 35.5 -6t36 -21.5t26.5 -31t10 -35.5q0 -39 -17.5 -79t-37.5 -71q-16 -29 -46 -64.5t-65 -43.5q8 18 14.5 37.5t14.5 37.5q6 16 12 31t13 31l2 7q2 7 0 7q-45 0 -75 19.5t-38 66.5zM307 1546q-4 27 5.5 46.5 t26.5 32.5t38.5 21.5t44.5 14.5q16 2 35.5 -6t36 -21.5t26.5 -31t10 -35.5q0 -39 -17 -79t-38 -71q-16 -29 -46 -64.5t-64 -43.5q8 18 14 37.5t14 37.5q6 16 12.5 31t12.5 31l2 7q2 7 0 7q-45 0 -75 19.5t-38 66.5z" />
<glyph unicode="&#x201e;" horiz-adv-x="587" d="M39 76q-8 49 24.5 79.5t75.5 34t80 -23.5t37 -92q0 -10 -9 -23l-16 -20q-27 -33 -36 -65t-19 -72q0 -8 -7 -32t-13 -40q-8 -20 -12.5 -11t-4.5 17q-6 18 -11 36.5t-9 37.5l-25 98q-6 29 -31 39q-22 8 -24 37zM307 88q0 43 32 69.5t71 32t74.5 -13t43.5 -67.5q0 -4 1 -6.5 t1 -6.5q2 -10 -5 -25.5t-13 -25.5q-8 -10 -14 -21.5t-15 -23.5q-4 -6 -13 -31.5t-19.5 -55.5t-19.5 -57l-13 -40q-4 -2 -7 8t-3 12q-6 16 -10.5 34.5t-8.5 35.5q-6 23 -11 47t-13 47q-4 14 -14.5 25.5t-19.5 20.5t-16.5 18.5t-7.5 23.5z" />
<glyph unicode="&#x2022;" horiz-adv-x="555" d="M53 727q0 41 24.5 87t63.5 84t83 62.5t85 24.5q47 0 93.5 -42t73 -100.5t25.5 -119.5t-48 -100l4 2q-14 -39 -50 -61.5t-80 -31t-93.5 0t-89.5 33t-65.5 64.5t-25.5 97z" />
<glyph unicode="&#x2026;" horiz-adv-x="1112" d="M6 92q0 37 23.5 55.5t54.5 30.5q8 4 24.5 10.5t24.5 6.5q18 0 33.5 -11.5t28.5 -23.5q10 -10 22 -26.5t12 -33.5q0 -4 -3 -13t-7 -18.5t-8 -17.5t-6 -10q-10 -29 -42 -40t-67 -5t-62.5 29.5t-27.5 66.5zM408 94q0 37 23.5 55.5t53.5 30.5q8 4 24.5 10.5t25.5 6.5 q18 0 33.5 -11.5t27.5 -23.5q10 -10 22.5 -26.5t12.5 -33.5q0 -4 -3 -13t-7.5 -18.5t-8.5 -17.5t-6 -10q-10 -29 -42 -40t-66.5 -5t-62 29.5t-27.5 66.5zM809 96q0 37 23.5 55.5t54.5 30.5q8 4 24.5 10.5t24.5 6.5q18 0 33.5 -11.5t27.5 -23.5q10 -10 22.5 -26.5t12.5 -33.5 q0 -4 -3 -13t-7 -18.5t-8 -17.5t-6 -10q-10 -29 -42 -40t-67 -5t-62.5 29.5t-27.5 66.5z" />
<glyph unicode="&#x202f;" horiz-adv-x="409" />
<glyph unicode="&#x2039;" horiz-adv-x="464" d="M45 512q27 27 63.5 70t71.5 88t65.5 88t47.5 73l121 -169q-14 -20 -50 -44t-78 -45.5t-79 -38t-53 -24.5q20 -12 58 -30.5t78 -38t74.5 -42t49.5 -43.5l-117 -145l-2 2q-41 59 -107.5 140t-142.5 159z" />
<glyph unicode="&#x203a;" horiz-adv-x="464" d="M45 356q14 20 48 43t74 43.5t78 38t60 29.5q-16 8 -53 24.5t-79 38t-78 45t-50 44.5l121 169q14 -31 44 -74.5t65.5 -89.5t72.5 -88t66 -67q-76 -78 -142.5 -159t-107.5 -140l-2 -2z" />
<glyph unicode="&#x205f;" horiz-adv-x="512" />
<glyph unicode="&#x2122;" horiz-adv-x="2590" d="M25 1444q0 41 20.5 64.5t52.5 43.5q84 55 194.5 74t228.5 15.5t232.5 -21.5t207.5 -39q18 6 36.5 14.5t28.5 24.5q6 -35 -3 -61.5t-26 -55.5q-10 -18 -28.5 -52t-34.5 -48q-4 -4 -17.5 4t-19.5 8q14 23 7 46.5t-25.5 43t-42 34.5t-41.5 22q-55 20 -107.5 17t-99.5 -24.5 t-87 -57.5t-71 -81q-78 -115 -78 -252q0 -123 43 -219t150 -160q49 -29 104.5 -45t114.5 -16q72 0 127 9t98 32.5t79 65.5t69 108l30 -2q-4 -41 -28.5 -77t-46.5 -66q-10 -10 -23.5 -20.5t-24.5 -20.5q-127 -96 -288 -97q-29 0 -54.5 3.5t-54.5 7.5q-63 8 -122.5 33.5 t-109.5 65.5t-87 91t-56 113q-12 39 -17 78.5t-5 82.5q0 88 23.5 163t82.5 145q10 12 18.5 24.5t18.5 22.5q23 29 53.5 49t63.5 39l29 16q-4 4 -29 6t-59 2q-29 0 -55.5 -1t-35.5 -3q-23 -2 -42 -4t-39 -6q-29 -6 -57.5 -13t-57.5 -20q-23 -10 -44.5 -22t-35.5 -35 q-6 -12 -5 -23.5t1 -23.5q0 -14 -8.5 -28.5t-18.5 -14.5q-12 0 -20 15.5t-8 25.5zM1122 1599v19q12 6 33 7t43.5 -1t44 -4t35.5 -2q18 0 41 6q4 -14 -1 -42t-5 -56q0 -18 6 -33q66 66 141.5 101.5t167.5 35.5q31 0 78 -9t76 -26q20 -16 39.5 -35.5t27.5 -46.5 q14 10 27.5 16.5t28.5 16.5q61 35 120.5 63.5t131.5 28.5q66 0 122 -22.5t97 -73.5q18 -23 23 -39t14 -35q16 -70 20 -140.5t4 -139.5v-37v-18q0 -10 -2 -17q-2 -63 -3 -125.5t-1 -124.5q0 -35 -1 -69.5t5 -69.5q12 -16 35.5 -20.5t44.5 -4.5h27q6 -6 6 -20v-18 q-10 -12 -27.5 -7t-28.5 5h-118h-31q-6 0 -14.5 -2.5t-12.5 -2.5h-12q-10 0 -26.5 1t-20.5 4q-2 0 -3 12t-1 18v8q18 0 38.5 -1t39.5 10l12 39l-19 659q0 43 -29.5 86t-62.5 66q-12 8 -19 12t-26 8q-14 4 -33.5 5t-27.5 1q-78 0 -142.5 -28.5t-117.5 -79.5q8 -41 10 -84 t2 -84v-578q25 -25 55 -31q23 4 35 1t12 -31l-18 -8q-129 2 -258 0q-8 6 -8 18q0 10 4 22q25 -4 40 2.5t36 18.5l14 27q-2 23 -3 42t-1 39v80q0 123 -1 244t-16 244l-6 8q-133 -121 -235.5 -246t-190.5 -280q-10 -16 -18 -41t-10 -50.5t4 -48t24 -34.5q8 -2 13.5 -3.5 t13.5 -1.5q16 0 29.5 -4t13.5 -32h-266q-10 10 -5 20t11 21q16 -4 14 -5q20 0 36.5 10.5t16.5 32.5l-4 789q0 20 -8 40.5t-31 20.5q-10 0 -19 -3t-19 -3q-11 0 -11 10zM1313 905q100 147 208.5 279.5t231.5 255.5q-4 25 -22.5 59.5t-34.5 50.5q-23 23 -56.5 34t-60.5 11 q-78 0 -140.5 -47t-90.5 -116q-23 -45 -27 -88.5t-4 -96.5t1 -114.5t1 -108.5q0 -29 -1 -59.5t-5 -59.5z" />
<glyph unicode="&#xe000;" horiz-adv-x="925" d="M0 925h925v-925h-925v925z" />
<glyph unicode="&#xfb01;" horiz-adv-x="1402" d="M887 6v33q16 10 35 10h35q2 -2 12 -2h14q10 0 20.5 2t16.5 12q8 16 11 77t3 130q0 72 -2 134.5t-2 82.5q-2 18 -2 37v37v74v74v36q0 18 -2 37q-10 16 -22.5 13.5t-26.5 -12t-27.5 -18.5t-23.5 -5q-7 17 -7 31q0 22 15 37q25 26 64 43.5t80.5 33t62.5 39.5l45 -22 q-14 -106 -20.5 -213t-6.5 -218q0 -217 25 -428q10 -16 36.5 -21t43.5 1q47 0 57 -6t10 -53q-25 2 -54.5 5t-60 6t-60 4t-52.5 -1q-51 -4 -109 -5h-7q-55 0 -101 15zM973 1432q0 14 8 25t19 22q23 23 38 27.5t46 4.5q25 0 49 -9t28 -38q2 -13 2 -24q0 -40 -22 -62 q-29 -29 -66 -31q-5 0 -9 -1q-32 0 -60 19q-33 22 -33 67zM-6 936q16 16 48 16q8 0 16 -1q44 -5 92 -7h10q41 0 77 13q40 15 52 75q14 150 73.5 304.5t159 277.5t239.5 196q126 66 281 67q17 0 35 -1q25 -2 53.5 -7t58.5 -12.5t56.5 -18.5t44.5 -26q2 -2 11.5 -21t11.5 -24 q4 -4 12 -22.5t8 -24.5q0 -18 -12 -33.5t-30.5 -26.5t-39 -17.5t-34.5 -6.5q-37 0 -54.5 19.5t-19.5 46.5t9 55.5t34 46.5q2 8 -8.5 12.5t-25.5 6.5t-34.5 3t-34.5 1h-26q-86 -4 -179.5 -32t-158.5 -87q-59 -53 -113.5 -142t-97.5 -192.5t-68.5 -206t-25.5 -182.5 q55 -23 110.5 -35t114.5 -12q23 0 47.5 -1t46.5 -1q8 6 13.5 21.5t11.5 31t15 28.5t26 15q9 -54 9 -104q0 -57 -9 -125q-8 -10 -20.5 -9t-22.5 1q-10 66 -48 81q-30 12 -68 12q-10 0 -20 -1q-50 -4 -104 -13q-16 -3 -32 -2q-34 0 -62 13q-16 -29 -21.5 -68t-5.5 -74 q0 -53 -2 -104t-6 -104q-2 -35 -4 -98q-1 -42 -1 -85v-45q1 -68 8 -127t24 -86q10 -16 36.5 -22t56.5 -9.5t57.5 -6.5t39.5 -13v-49q-135 4 -270 5t-271 1q-10 10 -11 34.5t-1 37.5q25 0 60 -1h8q30 0 57 6q31 7 52.5 25.5t21.5 55.5v710q-6 14 -31.5 18.5t-56.5 2.5 t-59.5 -7t-43.5 -8q-31 -4 -46 14.5t-19 47.5z" />
<glyph unicode="&#xfb02;" horiz-adv-x="1353" d="M888 1476q0 18 3 31l277 154q-10 -193 -14.5 -382t-6.5 -382q-2 -104 -3 -204.5t-1 -200.5q0 -199 6 -404q8 -16 24.5 -23.5t36 -9.5t39 -1t33.5 1q10 -16 10 -29q0 -6 -2 -12q-6 -18 -36 -18h-351q-16 25 -10 40t0 27q9 -1 18 -1q23 0 50 8q37 10 45 47q2 10 0 25.5 t-2 25.5v133q2 297 4 584v44q0 265 -23 539l-71 -26q-26 0 -26 34zM-6 936q16 16 48 16q8 0 16 -1q44 -5 92 -7h10q41 0 77 13q40 15 52 75q14 150 73.5 304.5t159 277.5t239.5 196q126 66 281 67q17 0 35 -1q25 -2 53.5 -7t58.5 -12.5t56.5 -18.5t44.5 -26q2 -2 11.5 -21 t11.5 -24q4 -4 12 -22.5t8 -24.5q0 -18 -12 -33.5t-30.5 -26.5t-39 -17.5t-34.5 -6.5q-37 0 -54.5 19.5t-19.5 46.5t9 55.5t34 46.5q2 8 -8.5 12.5t-25.5 6.5t-34.5 3t-34.5 1h-26q-86 -4 -179.5 -32t-158.5 -87q-59 -53 -113.5 -142t-97.5 -192.5t-68.5 -206t-25.5 -182.5 q55 -23 110.5 -35t114.5 -12q23 0 47.5 -1t46.5 -1q8 6 13.5 21.5t11.5 31t15 28.5t26 15q9 -54 9 -104q0 -57 -9 -125q-8 -10 -20.5 -9t-22.5 1q-10 66 -48 81q-30 12 -68 12q-10 0 -20 -1q-50 -4 -104 -13q-16 -3 -32 -2q-34 0 -62 13q-16 -29 -21.5 -68t-5.5 -74 q0 -53 -2 -104t-6 -104q-2 -35 -4 -98q-1 -42 -1 -85v-45q1 -68 8 -127t24 -86q10 -16 36.5 -22t56.5 -9.5t57.5 -6.5t39.5 -13v-49q-135 4 -270 5t-271 1q-10 10 -11 34.5t-1 37.5q25 0 60 -1h8q30 0 57 6q31 7 52.5 25.5t21.5 55.5v710q-6 14 -31.5 18.5t-56.5 2.5 t-59.5 -7t-43.5 -8q-31 -4 -46 14.5t-19 47.5z" />
<glyph unicode="&#xfb03;" horiz-adv-x="2289" d="M1774 6v33q16 10 35 10h35q2 -2 12 -2h14q10 0 20.5 2t16.5 12q8 16 11 77t3 130q0 72 -2 134.5t-2 82.5q-2 18 -2 37v37v74v74v36q0 18 -2 37q-10 16 -22.5 13.5t-26.5 -12t-27.5 -18.5t-23.5 -5q-7 17 -7 31q0 22 15 37q25 26 64 43.5t80.5 33t62.5 39.5l45 -22 q-14 -106 -20.5 -213t-6.5 -218q0 -217 25 -428q10 -16 36.5 -21t43.5 1q47 0 57 -6t10 -53q-25 2 -54.5 5t-60 6t-60 4t-52.5 -1q-51 -4 -109 -5h-7q-55 0 -101 15zM1860 1432q0 14 8 25t19 22q23 23 38 27.5t46 4.5q25 0 49 -9t28 -38q2 -13 2 -24q0 -40 -22 -62 q-29 -29 -66 -31q-5 0 -9 -1q-32 0 -60 19q-33 22 -33 67zM881 936q16 16 48 16q8 0 16 -1q44 -5 92 -7h10q41 0 77 13q40 15 52 75q14 150 73.5 304.5t159 277.5t239.5 196q126 66 281 67q17 0 35 -1q25 -2 53.5 -7t58.5 -12.5t56.5 -18.5t44.5 -26q2 -2 11.5 -21t11.5 -24 q4 -4 12 -22.5t8 -24.5q0 -18 -12 -33.5t-30.5 -26.5t-39 -17.5t-34.5 -6.5q-37 0 -54.5 19.5t-19.5 46.5t9 55.5t34 46.5q2 8 -8.5 12.5t-25.5 6.5t-34.5 3t-34.5 1h-26q-86 -4 -179.5 -32t-158.5 -87q-59 -53 -113.5 -142t-97.5 -192.5t-68.5 -206t-25.5 -182.5 q55 -23 110.5 -35t114.5 -12q23 0 47.5 -1t46.5 -1q8 6 13.5 21.5t11.5 31t15 28.5t26 15q9 -54 9 -104q0 -57 -9 -125q-8 -10 -20.5 -9t-22.5 1q-10 66 -48 81q-30 12 -68 12q-10 0 -20 -1q-50 -4 -104 -13q-16 -3 -32 -2q-34 0 -62 13q-16 -29 -21.5 -68t-5.5 -74 q0 -53 -2 -104t-6 -104q-2 -35 -4 -98q-1 -42 -1 -85v-45q1 -68 8 -127t24 -86q10 -16 36.5 -22t56.5 -9.5t57.5 -6.5t39.5 -13v-49q-135 4 -270 5t-271 1q-10 10 -11 34.5t-1 37.5q25 0 60 -1h8q30 0 57 6q31 7 52.5 25.5t21.5 55.5v710q-6 14 -31.5 18.5t-56.5 2.5 t-59.5 -7t-43.5 -8q-31 -4 -46 14.5t-19 47.5zM-6 936q16 16 48 16q8 0 16 -1q44 -5 92 -7h10q41 0 77 13q40 15 52 75q14 150 73.5 304.5t159 277.5t239.5 196q126 66 281 67q17 0 35 -1q25 -2 53.5 -7t58.5 -12.5t56.5 -18.5t44.5 -26q2 -2 11.5 -21t11.5 -24 q4 -4 12 -22.5t8 -24.5q0 -18 -12 -33.5t-30.5 -26.5t-39 -17.5t-34.5 -6.5q-37 0 -54.5 19.5t-19.5 46.5t9 55.5t34 46.5q2 8 -8.5 12.5t-25.5 6.5t-34.5 3t-34.5 1h-26q-86 -4 -179.5 -32t-158.5 -87q-59 -53 -113.5 -142t-97.5 -192.5t-68.5 -206t-25.5 -182.5 q55 -23 110.5 -35t114.5 -12q23 0 47.5 -1t46.5 -1q8 6 13.5 21.5t11.5 31t15 28.5t26 15q9 -54 9 -104q0 -57 -9 -125q-8 -10 -20.5 -9t-22.5 1q-10 66 -48 81q-30 12 -68 12q-10 0 -20 -1q-50 -4 -104 -13q-16 -3 -32 -2q-34 0 -62 13q-16 -29 -21.5 -68t-5.5 -74 q0 -53 -2 -104t-6 -104q-2 -35 -4 -98q-1 -42 -1 -85v-45q1 -68 8 -127t24 -86q10 -16 36.5 -22t56.5 -9.5t57.5 -6.5t39.5 -13v-49q-135 4 -270 5t-271 1q-10 10 -11 34.5t-1 37.5q25 0 60 -1h8q30 0 57 6q31 7 52.5 25.5t21.5 55.5v710q-6 14 -31.5 18.5t-56.5 2.5 t-59.5 -7t-43.5 -8q-31 -4 -46 14.5t-19 47.5z" />
<glyph unicode="&#xfb04;" horiz-adv-x="2240" d="M1775 1476q0 18 3 31l277 154q-10 -193 -14.5 -382t-6.5 -382q-2 -104 -3 -204.5t-1 -200.5q0 -199 6 -404q8 -16 24.5 -23.5t36 -9.5t39 -1t33.5 1q10 -16 10 -29q0 -6 -2 -12q-6 -18 -36 -18h-351q-16 25 -10 40t0 27q9 -1 18 -1q23 0 50 8q37 10 45 47q2 10 0 25.5 t-2 25.5v133q2 297 4 584v44q0 265 -23 539l-71 -26q-26 0 -26 34zM881 936q16 16 48 16q8 0 16 -1q44 -5 92 -7h10q41 0 77 13q40 15 52 75q14 150 73.5 304.5t159 277.5t239.5 196q126 66 281 67q17 0 35 -1q25 -2 53.5 -7t58.5 -12.5t56.5 -18.5t44.5 -26q2 -2 11.5 -21 t11.5 -24q4 -4 12 -22.5t8 -24.5q0 -18 -12 -33.5t-30.5 -26.5t-39 -17.5t-34.5 -6.5q-37 0 -54.5 19.5t-19.5 46.5t9 55.5t34 46.5q2 8 -8.5 12.5t-25.5 6.5t-34.5 3t-34.5 1h-26q-86 -4 -179.5 -32t-158.5 -87q-59 -53 -113.5 -142t-97.5 -192.5t-68.5 -206t-25.5 -182.5 q55 -23 110.5 -35t114.5 -12q23 0 47.5 -1t46.5 -1q8 6 13.5 21.5t11.5 31t15 28.5t26 15q9 -54 9 -104q0 -57 -9 -125q-8 -10 -20.5 -9t-22.5 1q-10 66 -48 81q-30 12 -68 12q-10 0 -20 -1q-50 -4 -104 -13q-16 -3 -32 -2q-34 0 -62 13q-16 -29 -21.5 -68t-5.5 -74 q0 -53 -2 -104t-6 -104q-2 -35 -4 -98q-1 -42 -1 -85v-45q1 -68 8 -127t24 -86q10 -16 36.5 -22t56.5 -9.5t57.5 -6.5t39.5 -13v-49q-135 4 -270 5t-271 1q-10 10 -11 34.5t-1 37.5q25 0 60 -1h8q30 0 57 6q31 7 52.5 25.5t21.5 55.5v710q-6 14 -31.5 18.5t-56.5 2.5 t-59.5 -7t-43.5 -8q-31 -4 -46 14.5t-19 47.5zM-6 936q16 16 48 16q8 0 16 -1q44 -5 92 -7h10q41 0 77 13q40 15 52 75q14 150 73.5 304.5t159 277.5t239.5 196q126 66 281 67q17 0 35 -1q25 -2 53.5 -7t58.5 -12.5t56.5 -18.5t44.5 -26q2 -2 11.5 -21t11.5 -24 q4 -4 12 -22.5t8 -24.5q0 -18 -12 -33.5t-30.5 -26.5t-39 -17.5t-34.5 -6.5q-37 0 -54.5 19.5t-19.5 46.5t9 55.5t34 46.5q2 8 -8.5 12.5t-25.5 6.5t-34.5 3t-34.5 1h-26q-86 -4 -179.5 -32t-158.5 -87q-59 -53 -113.5 -142t-97.5 -192.5t-68.5 -206t-25.5 -182.5 q55 -23 110.5 -35t114.5 -12q23 0 47.5 -1t46.5 -1q8 6 13.5 21.5t11.5 31t15 28.5t26 15q9 -54 9 -104q0 -57 -9 -125q-8 -10 -20.5 -9t-22.5 1q-10 66 -48 81q-30 12 -68 12q-10 0 -20 -1q-50 -4 -104 -13q-16 -3 -32 -2q-34 0 -62 13q-16 -29 -21.5 -68t-5.5 -74 q0 -53 -2 -104t-6 -104q-2 -35 -4 -98q-1 -42 -1 -85v-45q1 -68 8 -127t24 -86q10 -16 36.5 -22t56.5 -9.5t57.5 -6.5t39.5 -13v-49q-135 4 -270 5t-271 1q-10 10 -11 34.5t-1 37.5q25 0 60 -1h8q30 0 57 6q31 7 52.5 25.5t21.5 55.5v710q-6 14 -31.5 18.5t-56.5 2.5 t-59.5 -7t-43.5 -8q-31 -4 -46 14.5t-19 47.5z" />
</font>
</defs>
</svg>
