<!DOCTYPE svg PUBLIC "-//W3C//DTD SVG 1.1//EN" "http://www.w3.org/Graphics/SVG/1.1/DTD/svg11.dtd">
<svg version="1.1" xmlns="http://www.w3.org/2000/svg" xmlns:xlink="http://www.w3.org/1999/xlink" viewBox="0 0 30 30">
        <path id='geolocation' d="M11,0.421C5.167,0.421,0.421,5.167,0.421,11S5.167,21.579,11,21.579S21.579,16.833,21.579,11S16.833,0.421,11,0.421z
             M2.421,11c0-0.682,0.089-1.343,0.24-1.979c0.003,0.007,0.004,0.017,0.008,0.024c0.237,0.475,0.593,0.34,1.127,1.15
            c0.534,0.81,0.653,1.166,0.712,1.463c0.059,0.297,0.192,1.978-0.119,2.197c-0.547,0.385-0.623,1.106-0.56,1.843
            C2.942,14.346,2.421,12.734,2.421,11z M7.404,18.779c0.128-0.319,0.306-0.676,0.548-1.006c0.653-0.891,1.841-3.206,1.425-3.859
            c-0.416-0.653-3.028-0.95-3.206-1.366c-0.178-0.416-1.069-2.316-0.95-2.612s0.653-0.891,0.831-1.009
            C6.23,8.807,6.824,9.045,6.883,9.638c0.059,0.594,0.375,0.712,0.485,0c0.109-0.713-0.169-2.197,0-2.969
            c0.169-0.772,1.119-0.713,1.475-0.891c0.356-0.178,0.712-0.297,0.356-0.831C8.843,4.413,8.961,3.998,9.08,3.226
            c0.06-0.392,0.193-0.536,0.203-0.632C9.838,2.481,10.412,2.421,11,2.421c0.945,0,1.853,0.16,2.704,0.443
            c0.003,0.101,0.008,0.186,0.008,0.302c0,0.95-0.237,0.95-0.632,1.603s0.216,0.713,0.038,1.425c-0.178,0.713,0.297,1.069,0.749,1.247
            c0.452,0.178,0.914-0.534,1.745-1.247c0.831-0.712,0.891-0.297,1.128,0s1.188,1.247,1.544,1.663
            c0.356,0.416-0.119,1.366-0.831,1.425c-0.713,0.059-0.831,0.475-1.785,0.534s-1.362,0.416-1.599,0.772
            c-0.237,0.356-0.297,0.534,0,2.078c0.297,1.544,0.831,1.009,1.221,2.434c0.39,1.425,0.619,1.247-0.034,2.138
            c-0.414,0.565-0.184,0.961,0.04,1.176c-1.265,0.736-2.729,1.164-4.295,1.164C9.715,19.579,8.5,19.287,7.404,18.779z"/>
</svg>
