<!DOCTYPE svg PUBLIC "-//W3C//DTD SVG 1.1//EN" "http://www.w3.org/Graphics/SVG/1.1/DTD/svg11.dtd">
<svg version="1.1" xmlns="http://www.w3.org/2000/svg" xmlns:xlink="http://www.w3.org/1999/xlink" viewBox="0 0 30 30">
        <path id='matrix' d="M19.665,10.312l0.151-7.273L18.14,4.498c-0.032-0.043-0.061-0.087-0.093-0.13c-0.461-0.646-1.145-1.338-2.006-2.016
            c-0.867-0.673-1.969-1.275-3.255-1.665c-1.281-0.395-2.761-0.543-4.273-0.321C7.756,0.467,6.994,0.674,6.258,0.973L5.98,1.08
            C5.793,1.164,5.791,1.173,5.688,1.223l-0.48,0.244C4.874,1.654,4.476,1.906,4.14,2.143C2.828,3.128,1.698,4.456,1.031,6.02
            c-0.701,1.547-0.968,3.29-0.799,4.978c0.166,1.705,0.792,3.281,1.722,4.658c0.953,1.345,2.211,2.419,3.597,3.105
            c1.39,0.676,2.879,1.006,4.28,0.974c1.404-0.034,2.696-0.388,3.781-0.932c0.527-0.244,1.012-0.579,1.465-0.898
            c0.414-0.358,0.826-0.675,1.133-1.054c0.673-0.702,1.088-1.448,1.41-2.054c0.287-0.627,0.485-1.131,0.568-1.491
            c0.099-0.354,0.152-0.542,0.152-0.542s-0.064,0.185-0.184,0.532c-0.103,0.352-0.331,0.841-0.65,1.441
            c-0.354,0.578-0.803,1.281-1.495,1.922c-0.683,0.662-1.508,1.28-2.603,1.722c-1.04,0.446-2.28,0.705-3.57,0.658
            c-1.292-0.047-2.629-0.435-3.841-1.116c-1.208-0.69-2.263-1.717-3.022-2.934c-0.723-1.218-1.206-2.675-1.248-4.1
            C1.673,9.452,1.987,8.016,2.638,6.786c0.619-1.247,1.599-2.244,2.671-2.957c0.276-0.165,0.5-0.297,0.802-0.448l0.494-0.215
            C6.662,3.142,6.82,3.07,6.796,3.085l0.223-0.068c0.585-0.198,1.179-0.321,1.761-0.362c1.162-0.099,2.269,0.08,3.212,0.436
            c0.945,0.352,1.738,0.849,2.345,1.386c0.564,0.509,1.01,1.004,1.313,1.471l-2.253,0.74L19.665,10.312z"/>
</svg>
