<!DOCTYPE svg PUBLIC "-//W3C//DTD SVG 1.1//EN" "http://www.w3.org/Graphics/SVG/1.1/DTD/svg11.dtd">
<svg version="1.1" xmlns="http://www.w3.org/2000/svg" xmlns:xlink="http://www.w3.org/1999/xlink" viewBox="0 0 30 30">
        <g id='motion'>
            <g>
                <path d="M18.807,4.273L8.685,0.183C8.429,0.08,8.138,0.204,8.034,0.46L0.917,18.076c-0.103,0.256,0.02,0.547,0.276,0.651
                    l10.122,4.089c0.256,0.103,0.547-0.02,0.651-0.276l7.118-17.616C19.187,4.668,19.063,4.376,18.807,4.273z M7.588,20.057
                    l-1.796-0.726c-0.24-0.097-0.356-0.37-0.259-0.61c0.097-0.24,0.37-0.356,0.61-0.259l1.796,0.726c0.24,0.097,0.356,0.37,0.259,0.61
                    C8.101,20.038,7.828,20.154,7.588,20.057z M12.053,18.987c-0.093,0.231-0.356,0.343-0.587,0.249l-7.74-3.127
                    c-0.231-0.093-0.343-0.356-0.249-0.587L8.66,2.692C8.754,2.461,9.016,2.35,9.248,2.443l7.74,3.127
                    c0.231,0.093,0.343,0.356,0.249,0.587L12.053,18.987z"/>
            </g>
            <g>
                <path d="M14.618,22.438c-0.063,0-0.126-0.012-0.188-0.036c-0.256-0.104-0.38-0.396-0.276-0.651l2.817-6.973
                    c0.104-0.257,0.396-0.379,0.651-0.276c0.256,0.104,0.38,0.396,0.276,0.651l-2.817,6.973
                    C15.003,22.319,14.815,22.438,14.618,22.438z"/>
            </g>
            <g>
                <path d="M16.641,22.438c-0.063,0-0.126-0.012-0.188-0.036c-0.256-0.104-0.38-0.396-0.276-0.651l1.96-4.852
                    c0.104-0.256,0.396-0.379,0.651-0.276c0.256,0.104,0.38,0.396,0.276,0.651l-1.96,4.852C17.025,22.319,16.838,22.438,16.641,22.438
                    z"/>
            </g>
            <g>
                <path d="M2.565,8.535c-0.063,0-0.126-0.012-0.188-0.036C2.122,8.396,1.998,8.104,2.102,7.848l2.817-6.973
                    C5.022,0.62,5.313,0.498,5.57,0.599C5.826,0.702,5.949,0.994,5.846,1.25L3.028,8.223C2.95,8.417,2.763,8.535,2.565,8.535z"/>
            </g>
            <g>
                <path d="M1.399,6.414c-0.063,0-0.126-0.012-0.188-0.036C0.956,6.274,0.833,5.982,0.936,5.727l1.96-4.852
                    C3,0.62,3.291,0.498,3.547,0.599C3.803,0.702,3.926,0.994,3.823,1.25l-1.96,4.852C1.784,6.296,1.597,6.414,1.399,6.414z"/>
            </g>
        </g>
</svg>
