<!DOCTYPE svg PUBLIC "-//W3C//DTD SVG 1.1//EN" "http://www.w3.org/Graphics/SVG/1.1/DTD/svg11.dtd">
<svg version="1.1" xmlns="http://www.w3.org/2000/svg" xmlns:xlink="http://www.w3.org/1999/xlink" viewBox="0 0 30 30">
        <g id='music'>
            <g>
                <path d="M4.006,6.622V5.02l0.018-0.014h-3.25c-0.306,0-0.554,0.248-0.554,0.554v8.865c0,0.306,0.248,0.554,0.554,0.554h3.232
                    v-1.602V6.622z"/>
            </g>
            <g>
                <path d="M9.687,1.428L5.114,5.02v1.602v6.755v1.602l4.573,3.593c0.72,0.482,1.152,0.049,1.152-0.54v-4.655V6.622V1.967
                    C10.839,1.379,10.407,0.946,9.687,1.428z"/>
            </g>
            <g>
                <path d="M14.792,13.984c-0.098,0-0.197-0.019-0.292-0.06c-0.382-0.161-0.561-0.602-0.398-0.983
                    c0.383-0.905,0.577-1.867,0.577-2.859c0-1.049-0.216-2.061-0.642-3.008c-0.17-0.378-0.002-0.822,0.376-0.992
                    c0.375-0.169,0.82-0.002,0.991,0.376c0.514,1.142,0.774,2.361,0.774,3.624c0,1.194-0.234,2.354-0.696,3.444
                    C15.361,13.813,15.084,13.984,14.792,13.984z"/>
            </g>
            <g>
                <path d="M16.296,19.206c-0.155,0-0.312-0.048-0.446-0.147c-0.332-0.247-0.402-0.717-0.155-1.049
                    c1.691-2.281,2.586-4.991,2.586-7.837c0-2.995-0.98-5.818-2.835-8.163c-0.257-0.325-0.202-0.796,0.123-1.054
                    c0.325-0.259,0.798-0.201,1.053,0.123c2.066,2.612,3.159,5.757,3.159,9.093c0,3.171-0.996,6.19-2.881,8.731
                    C16.752,19.101,16.525,19.206,16.296,19.206z"/>
            </g>
            <g>
                <path d="M12.502,11.137c-0.414,0-0.75-0.336-0.75-0.75V9.613c0-0.414,0.336-0.75,0.75-0.75s0.75,0.336,0.75,0.75v0.774
                    C13.252,10.801,12.916,11.137,12.502,11.137z"/>
            </g>
        </g>
</svg>
