<!DOCTYPE svg PUBLIC "-//W3C//DTD SVG 1.1//EN" "http://www.w3.org/Graphics/SVG/1.1/DTD/svg11.dtd">
<svg version="1.1" xmlns="http://www.w3.org/2000/svg" xmlns:xlink="http://www.w3.org/1999/xlink" viewBox="0 0 30 30">
        <g id='object'>
            <g>
                <path d="M9.609,15.473l-1.371,1.345c-0.704,0.703-1.639,1.091-2.633,1.091c-0.995,0-1.93-0.387-2.634-1.091
                    c-1.452-1.452-1.452-3.815,0-5.267L4.92,9.603l0.782-0.782l0.085-0.085c0.704-0.703,1.639-1.091,2.634-1.091
                    c0.148,0,0.291,0.026,0.436,0.043c0.828,0.097,1.599,0.45,2.197,1.048c0.617,0.617,0.955,1.399,1.048,2.205
                    c0.012,0.107-0.001,0.215,0.003,0.323c0.699-0.141,1.346-0.46,1.863-0.973c-0.205-1.072-0.714-2.097-1.543-2.926
                    c-1.07-1.07-2.492-1.659-4.005-1.659c-0.773,0-1.521,0.156-2.212,0.449C5.813,6.322,5.438,6.54,5.086,6.798
                    c-0.234,0.172-0.46,0.357-0.67,0.566L1.6,10.18c-0.993,0.993-1.536,2.267-1.635,3.569c-0.122,1.592,0.421,3.226,1.635,4.441
                    c1.07,1.07,2.492,1.659,4.005,1.659c0.147,0,0.291-0.01,0.436-0.021c1.348-0.102,2.603-0.672,3.569-1.638l2.288-2.263
                    c0.17-0.17,0.323-0.351,0.467-0.537C11.868,15.53,10.003,15.558,9.609,15.473z"/>
            </g>
            <g>
                <path d="M10.391,4.527l1.371-1.345c0.704-0.703,1.639-1.091,2.633-1.091c0.995,0,1.93,0.387,2.634,1.091
                    c1.452,1.452,1.452,3.815,0,5.267l-1.949,1.949l-0.782,0.782l-0.085,0.085c-0.704,0.703-1.639,1.091-2.634,1.091
                    c-0.148,0-0.291-0.026-0.436-0.043c-0.828-0.097-1.599-0.45-2.197-1.048C8.329,10.648,7.99,9.866,7.898,9.06
                    C7.885,8.953,7.898,8.845,7.895,8.737C7.196,8.878,6.549,9.197,6.031,9.71c0.205,1.072,0.714,2.097,1.543,2.926
                    c1.07,1.07,2.492,1.659,4.005,1.659c0.773,0,1.521-0.156,2.212-0.449c0.397-0.168,0.772-0.387,1.123-0.644
                    c0.234-0.172,0.46-0.357,0.67-0.566L18.4,9.82c0.993-0.993,1.536-2.267,1.635-3.569c0.122-1.592-0.421-3.226-1.635-4.441
                    c-1.07-1.07-2.492-1.659-4.005-1.659c-0.147,0-0.291,0.01-0.436,0.021c-1.348,0.102-2.603,0.672-3.569,1.638L8.102,4.073
                    c-0.17,0.17-0.323,0.351-0.467,0.537C8.132,4.47,9.997,4.442,10.391,4.527z"/>
            </g>
        </g>
</svg>
