<?xml version="1.0" standalone="no"?>
<!DOCTYPE svg PUBLIC "-//W3C//DTD SVG 20010904//EN"
 "http://www.w3.org/TR/2001/REC-SVG-20010904/DTD/svg10.dtd">
<svg version="1.0" xmlns="http://www.w3.org/2000/svg"
 width="300.000000pt" height="300.000000pt" viewBox="0 0 300.000000 300.000000"
 preserveAspectRatio="xMidYMid meet">
<metadata>
Created by potrace 1.13, written by Peter Selinger 2001-2015
</metadata>
<g transform="translate(0.000000,300.000000) scale(0.100000,-0.100000)"
fill="#000000" stroke="none">
<path d="M1690 2921 c-42 -42 -132 -130 -200 -195 -69 -66 -126 -123 -128
-127 -2 -5 7 -19 20 -31 49 -47 227 -217 341 -326 64 -62 117 -115 117 -117 0
-3 -243 -5 -539 -5 -349 0 -542 -4 -546 -10 -3 -5 -26 -10 -50 -10 -24 0 -47
-4 -50 -10 -3 -5 -17 -10 -30 -10 -13 0 -27 -4 -30 -10 -3 -5 -17 -10 -31 -10
-13 0 -24 -4 -24 -10 0 -5 -6 -10 -13 -10 -18 0 -67 -24 -67 -32 0 -5 -5 -8
-11 -8 -21 0 -136 -86 -200 -149 -105 -106 -161 -200 -218 -368 l-32 -92 3
-288 3 -288 32 -83 c41 -106 77 -173 129 -242 43 -58 137 -149 183 -178 14 -9
28 -19 31 -23 3 -4 43 -26 90 -49 47 -23 93 -46 102 -51 10 -5 27 -9 37 -9 11
0 22 -4 25 -9 10 -16 89 -23 309 -28 l217 -4 -2 278 -3 278 -150 6 c-162 7
-187 11 -253 40 -59 27 -107 72 -132 126 -20 42 -21 59 -18 262 3 191 5 221
23 256 26 53 81 106 138 133 46 22 52 22 557 22 280 0 510 -2 510 -4 0 -3 -56
-59 -330 -324 l-145 -140 76 -73 c192 -188 333 -319 343 -319 6 0 54 41 106
91 52 51 138 133 190 183 52 50 205 197 340 326 550 527 570 547 570 559 0 6
-6 14 -14 18 -8 4 -128 118 -268 253 -139 135 -298 288 -352 340 -55 52 -129
124 -166 160 -150 147 -408 391 -412 389 -2 -1 -37 -35 -78 -78z"/>
</g>
</svg>
