<svg xmlns="http://www.w3.org/2000/svg" xmlns:xlink="http://www.w3.org/1999/xlink" version="1.1" x="0px" y="0px" viewBox="0 0 30 37.5" enable-background="new 0 0 30 30" xml:space="preserve"><rect x="-131" y="-29" display="none" fill="#000000" width="198" height="87"/><path d="M-89.562-16c15.323,0,20.256,11.675,20.857,13.264l10.103-9.526v34.928l-35.445-11.228l12.513-5.865  c-1.783-2.515-5.753-5.132-8.668-5.132c-3.417,0-10.462,0.213-11.103,15.801S-91.27,37.808-90.203,44  c-12.812-2.562-25.195-22.419-25.195-34.88S-106.003-16-89.562-16z"/><path d="M-29.708-7c10.215,0,13.504,7.784,13.905,8.843l6.735-6.351v23.286l-23.63-7.485l8.342-3.91  c-1.188-1.676-3.836-3.421-5.779-3.421c-2.278,0-6.975,0.142-7.401,10.535c-0.427,10.393,6.69,14.376,7.401,18.504  c-8.541-1.707-16.796-14.946-16.796-23.253C-46.932,1.439-40.669-7-29.708-7z"/><path d="M13.719,0c7.662,0,10.128,5.838,10.429,6.632l5.051-4.763v17.464L11.477,13.72l6.256-2.933  c-0.891-1.257-2.877-2.566-4.334-2.566c-1.708,0-5.231,0.106-5.551,7.901C7.527,23.916,12.865,26.904,13.398,30  C6.993,28.72,0.801,18.791,0.801,12.56S5.498,0,13.719,0z"/><path d="M45.146,4c5.107,0,6.752,3.892,6.952,4.421l3.368-3.175v11.643l-11.815-3.743l4.171-1.955  c-0.594-0.838-1.918-1.71-2.89-1.71c-1.139,0-3.487,0.071-3.7,5.267c-0.214,5.196,3.345,7.188,3.7,9.252  c-4.271-0.854-8.398-7.473-8.398-11.626C36.534,8.22,39.666,4,45.146,4z"/><text x="0" y="45" fill="#000000" font-size="5px" font-weight="bold" font-family="'Helvetica Neue', Helvetica, Arial-Unicode, Arial, Sans-serif">Created by Alex Auda Samora</text><text x="0" y="50" fill="#000000" font-size="5px" font-weight="bold" font-family="'Helvetica Neue', Helvetica, Arial-Unicode, Arial, Sans-serif">from the Noun Project</text></svg>