<!DOCTYPE svg PUBLIC "-//W3C//DTD SVG 1.1//EN" "http://www.w3.org/Graphics/SVG/1.1/DTD/svg11.dtd">
<svg version="1.1" xmlns="http://www.w3.org/2000/svg" xmlns:xlink="http://www.w3.org/1999/xlink" viewBox="0 0 30 30">
        <path id='sizes' d="M24.063,1.571H1.938c-0.827,0-1.5,0.673-1.5,1.5v13.857c0,0.827,0.673,1.5,1.5,1.5h22.125c0.827,0,1.5-0.673,1.5-1.5V3.071
            C25.563,2.244,24.89,1.571,24.063,1.571z M23.563,16.429H2.438V3.571h2.625v8.149c0,0.553,0.448,1,1,1s1-0.447,1-1V3.571h2.625
            v4.149c0,0.553,0.448,1,1,1s1-0.447,1-1V3.571h2.625v8.149c0,0.553,0.448,1,1,1s1-0.447,1-1V3.571h2.625v4.149c0,0.553,0.448,1,1,1
            s1-0.447,1-1V3.571h2.625V16.429z"/>
</svg>
