<!DOCTYPE svg PUBLIC "-//W3C//DTD SVG 1.1//EN" "http://www.w3.org/Graphics/SVG/1.1/DTD/svg11.dtd">
<svg version="1.1" xmlns="http://www.w3.org/2000/svg" xmlns:xlink="http://www.w3.org/1999/xlink" viewBox="0 0 30 30">
        <g id='string'>
            <path d="M4.82,1.672c-2.654,0-4.805,2.151-4.805,4.805c0,1.627,0.863,3.028,2.05,3.928c0.97,0.736,2.449,1.116,2.755,1.58
                c1.812,2.74-3.061,5.18-3.061,5.18l0.535,1.162c4.873-1.118,7.843-7.399,7.331-11.85C9.322,3.841,7.474,1.672,4.82,1.672z"/>
            <path d="M16.123,1.672c-2.654,0-4.805,2.151-4.805,4.805c0,1.627,0.863,3.028,2.05,3.928c0.97,0.736,2.449,1.116,2.755,1.58
                c1.812,2.74-3.061,5.18-3.061,5.18l0.535,1.162c4.873-1.118,7.843-7.399,7.331-11.85C20.625,3.841,18.777,1.672,16.123,1.672z"/>
        </g>
</svg>
