<?xml version="1.0" standalone="no"?>
<!DOCTYPE svg PUBLIC "-//W3C//DTD SVG 20010904//EN"
 "http://www.w3.org/TR/2001/REC-SVG-20010904/DTD/svg10.dtd">
<svg version="1.0" xmlns="http://www.w3.org/2000/svg"
 width="300.000000pt" height="300.000000pt" viewBox="0 0 300.000000 300.000000"
 preserveAspectRatio="xMidYMid meet">
<metadata>
Created by potrace 1.13, written by Peter Selinger 2001-2015
</metadata>
<g transform="translate(0.000000,300.000000) scale(0.100000,-0.100000)"
fill="#000000" stroke="none">
<path d="M1218 2992 c-1 -4 -39 -41 -83 -81 -44 -41 -190 -181 -325 -310 -135
-130 -290 -279 -344 -331 -55 -52 -132 -126 -171 -165 -39 -38 -117 -114 -173
-168 -56 -54 -102 -100 -102 -103 0 -7 67 -72 570 -554 135 -129 288 -276 340
-326 52 -50 138 -132 190 -183 52 -50 100 -91 106 -91 10 0 151 131 343 319
l76 73 -145 140 c-274 265 -330 321 -330 324 0 2 230 4 510 4 505 0 511 0 557
-22 57 -27 112 -80 138 -133 18 -35 20 -65 23 -256 3 -203 2 -220 -18 -262
-25 -54 -73 -99 -132 -126 -66 -29 -91 -33 -253 -40 l-150 -6 -3 -278 -2 -278
217 4 c220 5 299 12 309 28 3 5 14 9 25 9 10 0 27 4 37 9 9 5 55 28 102 51 47
23 87 45 90 49 3 4 17 14 31 23 46 29 140 120 183 178 52 69 88 136 129 242
l32 83 3 288 3 288 -32 92 c-57 168 -113 262 -218 368 -64 63 -179 149 -200
149 -6 0 -11 3 -11 8 0 8 -49 32 -67 32 -7 0 -13 5 -13 10 0 6 -11 10 -24 10
-14 0 -28 5 -31 10 -3 6 -17 10 -30 10 -13 0 -27 5 -30 10 -3 6 -26 10 -50 10
-24 0 -47 5 -50 10 -4 6 -197 10 -546 10 -296 0 -539 2 -539 5 0 2 53 55 117
117 120 115 298 285 340 325 13 12 23 25 23 29 0 3 -55 58 -122 123 -67 64
-159 153 -206 199 -87 86 -88 87 -94 74z"/>
</g>
</svg>
