<?xml version="1.0" encoding="utf-8"?>
<!-- Generator: Adobe Illustrator 17.0.0, SVG Export Plug-In . SVG Version: 6.00 Build 0)  -->
<!DOCTYPE svg PUBLIC "-//W3C//DTD SVG 1.1//EN" "http://www.w3.org/Graphics/SVG/1.1/DTD/svg11.dtd">
<svg version="1.1" xmlns="http://www.w3.org/2000/svg" xmlns:xlink="http://www.w3.org/1999/xlink" x="0px" y="0px"
	 enable-background="new 0 0 20 21" xml:space="preserve">
     <defs>
        <symbol id="arrays" viewBox="0 0 40 40">
            <path d="M9.965,0.185c-3.287,0-5.952,2.665-5.952,5.952c0,2.015,1.069,3.751,2.539,4.866c1.202,0.911,3.033,1.383,3.413,1.957
        	c2.244,3.394-3.792,6.415-3.792,6.415l0.663,1.439c6.036-1.385,9.715-9.165,9.081-14.677C15.541,2.872,13.252,0.185,9.965,0.185z"/>
        </symbol>
        <g id='boolean'>
        	<g>
        		<circle cx="9.1" cy="10" r="3.769"/>
        	</g>
        	<g>
        		<path d="M16.482,18.028H8.518c-4.427,0-8.028-3.602-8.028-8.028s3.602-8.028,8.028-8.028h7.964c4.427,0,8.028,3.602,8.028,8.028
        			S20.909,18.028,16.482,18.028z M8.518,4.972C5.746,4.972,3.49,7.228,3.49,10s2.256,5.028,5.028,5.028h7.964
        			c2.772,0,5.028-2.256,5.028-5.028s-2.256-5.028-5.028-5.028H8.518z"/>
        	</g>
        </g>
        <g id='canvas'>
        	<path d="M0,0v20h20V0H0z M17.496,17.496H2.504V2.504h14.991V17.496z"/>
        	<path d="M3.917,3.917v12.167h12.167V3.917H3.917z M15.162,15.162H4.838V4.838h10.325V15.162z"/>
        </g>
        <g id='color'>
        	<path d="M9.08,2.622c0,0-5.852,4.854-6.964,7.205c-0.889,1.879-0.805,8.184-1.468,8.183c-1.123-0.002-0.422-9.706,0.379-10.533
        		C4.571,3.816,8.141,2.965,9.08,2.622z"/>
        	<polygon points="14.172,1.345 13.321,0.493 3.987,9.827 4.838,10.678 5.084,10.433 13.927,1.59 	"/>
        	<path d="M17.907,5.635h-2.651c-0.181,0.257-0.466,0.436-0.804,0.436c-0.553,0-1.001-0.448-1.001-1.001
        		c0-0.115,0.03-0.222,0.066-0.325c-0.036-0.103-0.066-0.21-0.066-0.325c0-0.062,0.025-0.116,0.035-0.175
        		c0.086,0.466,0.475,0.825,0.965,0.825c0.339,0,0.623-0.179,0.804-0.436h5.653V3.506h-5.132L14.57,2.297L5.727,11.14l8.367,8.367
        		l8.843-8.843L17.907,5.635z"/>
        </g>
        <symbol id="controls" viewBox="0 0 40 40">
        	<path d="M7.828,20.003H5.953L0.203,4.466c-0.271-0.688,1.375-1.479,1.562-0.938L7.828,20.003z"/>
        	<path d="M3.115,3.309c0,0,4.713-4.218,8.692-3.134c1.356,0.369,4.667,8.75,4.667,8.75s-5.604-0.542-9.539,4.764L3.115,3.309z"/>
        	<path d="M19.719,0.197c-0.37,1.117-3.612,1.788-5.278,2.063c1.479,2.557,2.977,6.362,2.977,6.362
        		c0.362,1.086-2.637,3.055-2.637,3.055C20.999,8.832,19.719,0.197,19.719,0.197z"/>
        </symbol>
        <path id='geolocation' d="M11,0.421C5.167,0.421,0.421,5.167,0.421,11S5.167,21.579,11,21.579S21.579,16.833,21.579,11S16.833,0.421,11,0.421z
        	 M2.421,11c0-0.682,0.089-1.343,0.24-1.979c0.003,0.007,0.004,0.017,0.008,0.024c0.237,0.475,0.593,0.34,1.127,1.15
        	c0.534,0.81,0.653,1.166,0.712,1.463c0.059,0.297,0.192,1.978-0.119,2.197c-0.547,0.385-0.623,1.106-0.56,1.843
        	C2.942,14.346,2.421,12.734,2.421,11z M7.404,18.779c0.128-0.319,0.306-0.676,0.548-1.006c0.653-0.891,1.841-3.206,1.425-3.859
        	c-0.416-0.653-3.028-0.95-3.206-1.366c-0.178-0.416-1.069-2.316-0.95-2.612s0.653-0.891,0.831-1.009
        	C6.23,8.807,6.824,9.045,6.883,9.638c0.059,0.594,0.375,0.712,0.485,0c0.109-0.713-0.169-2.197,0-2.969
        	c0.169-0.772,1.119-0.713,1.475-0.891c0.356-0.178,0.712-0.297,0.356-0.831C8.843,4.413,8.961,3.998,9.08,3.226
        	c0.06-0.392,0.193-0.536,0.203-0.632C9.838,2.481,10.412,2.421,11,2.421c0.945,0,1.853,0.16,2.704,0.443
        	c0.003,0.101,0.008,0.186,0.008,0.302c0,0.95-0.237,0.95-0.632,1.603s0.216,0.713,0.038,1.425c-0.178,0.713,0.297,1.069,0.749,1.247
        	c0.452,0.178,0.914-0.534,1.745-1.247c0.831-0.712,0.891-0.297,1.128,0s1.188,1.247,1.544,1.663
        	c0.356,0.416-0.119,1.366-0.831,1.425c-0.713,0.059-0.831,0.475-1.785,0.534s-1.362,0.416-1.599,0.772
        	c-0.237,0.356-0.297,0.534,0,2.078c0.297,1.544,0.831,1.009,1.221,2.434c0.39,1.425,0.619,1.247-0.034,2.138
        	c-0.414,0.565-0.184,0.961,0.04,1.176c-1.265,0.736-2.729,1.164-4.295,1.164C9.715,19.579,8.5,19.287,7.404,18.779z"/>
        <g id='image'>
        	<path d="M0,0v20h20V0H0z M18.182,1.818v7.738l-2.273-2.582l-5.887,6.059l-2.9-2.966l-5.303,4.733V1.818H18.182z"/>
        	<g>
        		<circle cx="8.446" cy="5.235" r="2.859"/>
        	</g>
        </g>
        <path id='math' d="M13.646,19.65l-6.375-0.025l4.354-8.65L7.646,1.85l6,0.025c0,0,1.948,0.078,2.546,3.734l1.725,0.049l-0.5-5.308h-0.583
        	H2.083L9.312,11L2.083,21.65h15.333l0.5-5.713h-1.604C16.313,19.65,13.646,19.65,13.646,19.65z"/>
        <path id='matrix' d="M19.665,10.312l0.151-7.273L18.14,4.498c-0.032-0.043-0.061-0.087-0.093-0.13c-0.461-0.646-1.145-1.338-2.006-2.016
        	c-0.867-0.673-1.969-1.275-3.255-1.665c-1.281-0.395-2.761-0.543-4.273-0.321C7.756,0.467,6.994,0.674,6.258,0.973L5.98,1.08
        	C5.793,1.164,5.791,1.173,5.688,1.223l-0.48,0.244C4.874,1.654,4.476,1.906,4.14,2.143C2.828,3.128,1.698,4.456,1.031,6.02
        	c-0.701,1.547-0.968,3.29-0.799,4.978c0.166,1.705,0.792,3.281,1.722,4.658c0.953,1.345,2.211,2.419,3.597,3.105
        	c1.39,0.676,2.879,1.006,4.28,0.974c1.404-0.034,2.696-0.388,3.781-0.932c0.527-0.244,1.012-0.579,1.465-0.898
        	c0.414-0.358,0.826-0.675,1.133-1.054c0.673-0.702,1.088-1.448,1.41-2.054c0.287-0.627,0.485-1.131,0.568-1.491
        	c0.099-0.354,0.152-0.542,0.152-0.542s-0.064,0.185-0.184,0.532c-0.103,0.352-0.331,0.841-0.65,1.441
        	c-0.354,0.578-0.803,1.281-1.495,1.922c-0.683,0.662-1.508,1.28-2.603,1.722c-1.04,0.446-2.28,0.705-3.57,0.658
        	c-1.292-0.047-2.629-0.435-3.841-1.116c-1.208-0.69-2.263-1.717-3.022-2.934c-0.723-1.218-1.206-2.675-1.248-4.1
        	C1.673,9.452,1.987,8.016,2.638,6.786c0.619-1.247,1.599-2.244,2.671-2.957c0.276-0.165,0.5-0.297,0.802-0.448l0.494-0.215
        	C6.662,3.142,6.82,3.07,6.796,3.085l0.223-0.068c0.585-0.198,1.179-0.321,1.761-0.362c1.162-0.099,2.269,0.08,3.212,0.436
        	c0.945,0.352,1.738,0.849,2.345,1.386c0.564,0.509,1.01,1.004,1.313,1.471l-2.253,0.74L19.665,10.312z"/>
        <g id='motion'>
        	<g>
        		<path d="M18.807,4.273L8.685,0.183C8.429,0.08,8.138,0.204,8.034,0.46L0.917,18.076c-0.103,0.256,0.02,0.547,0.276,0.651
        			l10.122,4.089c0.256,0.103,0.547-0.02,0.651-0.276l7.118-17.616C19.187,4.668,19.063,4.376,18.807,4.273z M7.588,20.057
        			l-1.796-0.726c-0.24-0.097-0.356-0.37-0.259-0.61c0.097-0.24,0.37-0.356,0.61-0.259l1.796,0.726c0.24,0.097,0.356,0.37,0.259,0.61
        			C8.101,20.038,7.828,20.154,7.588,20.057z M12.053,18.987c-0.093,0.231-0.356,0.343-0.587,0.249l-7.74-3.127
        			c-0.231-0.093-0.343-0.356-0.249-0.587L8.66,2.692C8.754,2.461,9.016,2.35,9.248,2.443l7.74,3.127
        			c0.231,0.093,0.343,0.356,0.249,0.587L12.053,18.987z"/>
        	</g>
        	<g>
        		<path d="M14.618,22.438c-0.063,0-0.126-0.012-0.188-0.036c-0.256-0.104-0.38-0.396-0.276-0.651l2.817-6.973
        			c0.104-0.257,0.396-0.379,0.651-0.276c0.256,0.104,0.38,0.396,0.276,0.651l-2.817,6.973
        			C15.003,22.319,14.815,22.438,14.618,22.438z"/>
        	</g>
        	<g>
        		<path d="M16.641,22.438c-0.063,0-0.126-0.012-0.188-0.036c-0.256-0.104-0.38-0.396-0.276-0.651l1.96-4.852
        			c0.104-0.256,0.396-0.379,0.651-0.276c0.256,0.104,0.38,0.396,0.276,0.651l-1.96,4.852C17.025,22.319,16.838,22.438,16.641,22.438
        			z"/>
        	</g>
        	<g>
        		<path d="M2.565,8.535c-0.063,0-0.126-0.012-0.188-0.036C2.122,8.396,1.998,8.104,2.102,7.848l2.817-6.973
        			C5.022,0.62,5.313,0.498,5.57,0.599C5.826,0.702,5.949,0.994,5.846,1.25L3.028,8.223C2.95,8.417,2.763,8.535,2.565,8.535z"/>
        	</g>
        	<g>
        		<path d="M1.399,6.414c-0.063,0-0.126-0.012-0.188-0.036C0.956,6.274,0.833,5.982,0.936,5.727l1.96-4.852
        			C3,0.62,3.291,0.498,3.547,0.599C3.803,0.702,3.926,0.994,3.823,1.25l-1.96,4.852C1.784,6.296,1.597,6.414,1.399,6.414z"/>
        	</g>
        </g>
        <g id='music'>
        	<g>
        		<path d="M4.006,6.622V5.02l0.018-0.014h-3.25c-0.306,0-0.554,0.248-0.554,0.554v8.865c0,0.306,0.248,0.554,0.554,0.554h3.232
        			v-1.602V6.622z"/>
        	</g>
        	<g>
        		<path d="M9.687,1.428L5.114,5.02v1.602v6.755v1.602l4.573,3.593c0.72,0.482,1.152,0.049,1.152-0.54v-4.655V6.622V1.967
        			C10.839,1.379,10.407,0.946,9.687,1.428z"/>
        	</g>
        	<g>
        		<path d="M14.792,13.984c-0.098,0-0.197-0.019-0.292-0.06c-0.382-0.161-0.561-0.602-0.398-0.983
        			c0.383-0.905,0.577-1.867,0.577-2.859c0-1.049-0.216-2.061-0.642-3.008c-0.17-0.378-0.002-0.822,0.376-0.992
        			c0.375-0.169,0.82-0.002,0.991,0.376c0.514,1.142,0.774,2.361,0.774,3.624c0,1.194-0.234,2.354-0.696,3.444
        			C15.361,13.813,15.084,13.984,14.792,13.984z"/>
        	</g>
        	<g>
        		<path d="M16.296,19.206c-0.155,0-0.312-0.048-0.446-0.147c-0.332-0.247-0.402-0.717-0.155-1.049
        			c1.691-2.281,2.586-4.991,2.586-7.837c0-2.995-0.98-5.818-2.835-8.163c-0.257-0.325-0.202-0.796,0.123-1.054
        			c0.325-0.259,0.798-0.201,1.053,0.123c2.066,2.612,3.159,5.757,3.159,9.093c0,3.171-0.996,6.19-2.881,8.731
        			C16.752,19.101,16.525,19.206,16.296,19.206z"/>
        	</g>
        	<g>
        		<path d="M12.502,11.137c-0.414,0-0.75-0.336-0.75-0.75V9.613c0-0.414,0.336-0.75,0.75-0.75s0.75,0.336,0.75,0.75v0.774
        			C13.252,10.801,12.916,11.137,12.502,11.137z"/>
        	</g>
        </g>
        <g id='object'>
        	<g>
        		<path d="M9.609,15.473l-1.371,1.345c-0.704,0.703-1.639,1.091-2.633,1.091c-0.995,0-1.93-0.387-2.634-1.091
        			c-1.452-1.452-1.452-3.815,0-5.267L4.92,9.603l0.782-0.782l0.085-0.085c0.704-0.703,1.639-1.091,2.634-1.091
        			c0.148,0,0.291,0.026,0.436,0.043c0.828,0.097,1.599,0.45,2.197,1.048c0.617,0.617,0.955,1.399,1.048,2.205
        			c0.012,0.107-0.001,0.215,0.003,0.323c0.699-0.141,1.346-0.46,1.863-0.973c-0.205-1.072-0.714-2.097-1.543-2.926
        			c-1.07-1.07-2.492-1.659-4.005-1.659c-0.773,0-1.521,0.156-2.212,0.449C5.813,6.322,5.438,6.54,5.086,6.798
        			c-0.234,0.172-0.46,0.357-0.67,0.566L1.6,10.18c-0.993,0.993-1.536,2.267-1.635,3.569c-0.122,1.592,0.421,3.226,1.635,4.441
        			c1.07,1.07,2.492,1.659,4.005,1.659c0.147,0,0.291-0.01,0.436-0.021c1.348-0.102,2.603-0.672,3.569-1.638l2.288-2.263
        			c0.17-0.17,0.323-0.351,0.467-0.537C11.868,15.53,10.003,15.558,9.609,15.473z"/>
        	</g>
        	<g>
        		<path d="M10.391,4.527l1.371-1.345c0.704-0.703,1.639-1.091,2.633-1.091c0.995,0,1.93,0.387,2.634,1.091
        			c1.452,1.452,1.452,3.815,0,5.267l-1.949,1.949l-0.782,0.782l-0.085,0.085c-0.704,0.703-1.639,1.091-2.634,1.091
        			c-0.148,0-0.291-0.026-0.436-0.043c-0.828-0.097-1.599-0.45-2.197-1.048C8.329,10.648,7.99,9.866,7.898,9.06
        			C7.885,8.953,7.898,8.845,7.895,8.737C7.196,8.878,6.549,9.197,6.031,9.71c0.205,1.072,0.714,2.097,1.543,2.926
        			c1.07,1.07,2.492,1.659,4.005,1.659c0.773,0,1.521-0.156,2.212-0.449c0.397-0.168,0.772-0.387,1.123-0.644
        			c0.234-0.172,0.46-0.357,0.67-0.566L18.4,9.82c0.993-0.993,1.536-2.267,1.635-3.569c0.122-1.592-0.421-3.226-1.635-4.441
        			c-1.07-1.07-2.492-1.659-4.005-1.659c-0.147,0-0.291,0.01-0.436,0.021c-1.348,0.102-2.603,0.672-3.569,1.638L8.102,4.073
        			c-0.17,0.17-0.323,0.351-0.467,0.537C8.132,4.47,9.997,4.442,10.391,4.527z"/>
        	</g>
        </g>
        <path id='paths' d="M20.969,9.269l-6.022-6.071V0.144h-3.749v3.749h0.066L2.712,17.107H0.375v3.749h3.749v-1.783l15.751-6.511v0.456h3.749
        	V9.269H20.969z M4.125,17.99v-0.883H3.903l8.553-13.214h1.773l5.647,5.693v1.893L4.125,17.99z"/>
        <g id='points'>
        	<circle cx="3.625" cy="3.625" r="3.625"/>
        	<circle cx="16.375" cy="16.375" r="3.625"/>
        </g>
        <g id='rects'>
        	<path d="M18.981,15.979h-7.327V9.02c0-0.276-0.224-0.5-0.5-0.5H4.193V1.019c0-0.553-0.448-1-1-1s-1,0.447-1,1v14.961H1.019
        		c-0.552,0-1,0.447-1,1s0.448,1,1,1h1.175v1.002c0,0.553,0.448,1,1,1s1-0.447,1-1v-1.002h14.788c0.552,0,1-0.447,1-1
        		S19.534,15.979,18.981,15.979z M4.193,9.52h6.461v6.46H4.193V9.52z"/>
        	<circle cx="7.174" cy="13" r="1"/>
        </g>
        <g id='sensing'>
        	<g>
        		<path d="M18.107,9.856L8.376,0.702C8.191,0.528,7.918,0.483,7.687,0.59S7.313,0.934,7.326,1.188l0.676,13.343
        			c0.012,0.232,0.151,0.437,0.361,0.535c0.211,0.097,0.458,0.071,0.642-0.072l2.169-1.667l2.452,5.3
        			c0.145,0.313,0.515,0.449,0.828,0.304l2.83-1.309c0.313-0.145,0.449-0.515,0.304-0.828l-2.452-5.3l2.675-0.574
        			c0.229-0.048,0.408-0.219,0.47-0.443S18.276,10.015,18.107,9.856z"/>
        	</g>
        	<g>
        		<path d="M6.09,1.511H3.113c-0.276,0-0.5-0.224-0.5-0.5s0.224-0.5,0.5-0.5H6.09c0.276,0,0.5,0.224,0.5,0.5S6.366,1.511,6.09,1.511z
        			"/>
        	</g>
        	<g>
        		<path d="M6.291,6.005H3.113c-0.276,0-0.5-0.224-0.5-0.5s0.224-0.5,0.5-0.5h3.178c0.276,0,0.5,0.224,0.5,0.5
        			S6.568,6.005,6.291,6.005z"/>
        	</g>
        	<g>
        		<path d="M12.603,19.489H9.481c-0.276,0-0.5-0.224-0.5-0.5s0.224-0.5,0.5-0.5h3.122c0.276,0,0.5,0.224,0.5,0.5
        			S12.879,19.489,12.603,19.489z"/>
        	</g>
        	<g>
        		<path d="M6.748,14.995H2.196c-0.276,0-0.5-0.224-0.5-0.5s0.224-0.5,0.5-0.5h4.552c0.276,0,0.5,0.224,0.5,0.5
        			S7.025,14.995,6.748,14.995z"/>
        	</g>
        	<g>
        		<path d="M6.446,10.5h-4c-0.276,0-0.5-0.224-0.5-0.5s0.224-0.5,0.5-0.5h4c0.276,0,0.5,0.224,0.5,0.5S6.723,10.5,6.446,10.5z"/>
        	</g>
        </g>
        <g id='shapes'>
        	<circle cx="24.467" cy="13.036" r="5.167"/>
        	<path d="M24.561,6.349V1.797H8.728V13.13h9.052C17.78,9.385,20.816,6.349,24.561,6.349z"/>
        	<polygon points="7.394,14.38 7.394,7.834 6.311,5.958 0.366,16.255 12.256,16.255 11.174,14.38 	"/>
        </g>
        <path id='sizes' d="M24.063,1.571H1.938c-0.827,0-1.5,0.673-1.5,1.5v13.857c0,0.827,0.673,1.5,1.5,1.5h22.125c0.827,0,1.5-0.673,1.5-1.5V3.071
        	C25.563,2.244,24.89,1.571,24.063,1.571z M23.563,16.429H2.438V3.571h2.625v8.149c0,0.553,0.448,1,1,1s1-0.447,1-1V3.571h2.625
        	v4.149c0,0.553,0.448,1,1,1s1-0.447,1-1V3.571h2.625v8.149c0,0.553,0.448,1,1,1s1-0.447,1-1V3.571h2.625v4.149c0,0.553,0.448,1,1,1
        	s1-0.447,1-1V3.571h2.625V16.429z"/>
        <g id='sounds'>
        	<path d="M18.888,0.205c-5.162,0-8.888,1.227-12.735,1.227v13.259c-0.542-0.139-1.36-0.169-2.495,0.267
        		c-2.286,0.879-2.973,2.685-2.302,3.74c0.167,0.262,0.457,0.511,0.827,0.706c1.121,0.591,2.978,0.679,4.368-0.93
        		c0.397-0.459,0.633-0.889,0.761-1.278l0,0c0,0,0.259-0.546,0.3-2.642c0.006-0.331,0-9.594,0-9.594
        		c2.979-0.211,6.014-0.963,9.81-1.131v0.087v9.628c-0.541-0.142-1.364-0.177-2.508,0.263c-2.286,0.879-2.973,2.685-2.302,3.74
        		c0.167,0.262,0.457,0.511,0.827,0.706c1.121,0.591,2.978,0.679,4.368-0.93c0.403-0.466,0.64-0.902,0.767-1.296l0.007,0.019
        		c0,0,0.263-0.549,0.301-2.676C18.889,13.048,18.888,0.205,18.888,0.205z"/>
        </g>
        <g id='sprite'>
        	<path d="M16.036,10.164l3.75-1.065L19.37,7.858l-3.406,0.465l-2.197-2.618l-0.001,0.003c-0.077-0.086-0.178-0.15-0.312-0.184
        		c0,0-2.825-0.886-3.786-0.595L5.804,6.203L3.905,9.607l1.173,0.584l1.833-2.292l1.122-0.337l0.159,0.014
        		c-0.304,0.839-0.584,1.759-0.787,2.591l-0.003-0.003l-1.294,3.643l-3.755,0.657l0.625,1.416l4.078-0.126c0,0,2.258-2.43,2.45-2.446
        		l3.073,3.03l1.742,3.03l1.342-0.863l-1.342-2.75l-2.821-4.27c0.467-0.708,0.988-1.557,1.431-2.392L12.929,9.1L16.036,10.164z"/>
        	<path d="M14.056,3.61c-0.198,0.891-1.081,1.452-1.972,1.254l0,0c-0.891-0.198-1.452-1.081-1.254-1.972l0.215-0.968
        		c0.198-0.891,1.081-1.452,1.972-1.254l0,0c0.891,0.198,1.452,1.081,1.254,1.972L14.056,3.61z"/>

        		<line fill="none" stroke="#000000" stroke-width="0.5" stroke-linecap="round" stroke-linejoin="round" stroke-miterlimit="10" x1="9.79" y1="0.639" x2="11.81" y2="0.639"/>

        		<line fill="none" stroke="#000000" stroke-width="0.5" stroke-linecap="round" stroke-linejoin="round" stroke-miterlimit="10" x1="8.37" y1="2.72" x2="9.868" y2="2.72"/>

        		<line fill="none" stroke="#000000" stroke-width="0.5" stroke-linecap="round" stroke-linejoin="round" stroke-miterlimit="10" x1="7.246" y1="4.801" x2="8.666" y2="4.801"/>

        		<line fill="none" stroke="#000000" stroke-width="0.5" stroke-linecap="round" stroke-linejoin="round" stroke-miterlimit="10" x1="3.005" y1="6.882" x2="4.62" y2="6.882"/>

        		<line fill="none" stroke="#000000" stroke-width="0.5" stroke-linecap="round" stroke-linejoin="round" stroke-miterlimit="10" x1="1.844" y1="8.964" x2="3.263" y2="8.964"/>

        		<line fill="none" stroke="#000000" stroke-width="0.5" stroke-linecap="round" stroke-linejoin="round" stroke-miterlimit="10" x1="6.75" y1="8.964" x2="6.75" y2="8.964"/>

        		<line fill="none" stroke="#000000" stroke-width="0.5" stroke-linecap="round" stroke-linejoin="round" stroke-miterlimit="10" x1="4.668" y1="11.045" x2="6.04" y2="11.045"/>

        		<line fill="none" stroke="#000000" stroke-width="0.5" stroke-linecap="round" stroke-linejoin="round" stroke-miterlimit="10" x1="3.929" y1="13.126" x2="5.313" y2="13.126"/>

        		<line fill="none" stroke="#000000" stroke-width="0.5" stroke-linecap="round" stroke-linejoin="round" stroke-miterlimit="10" x1="0.214" y1="15.207" x2="1.679" y2="15.207"/>

        		<line fill="none" stroke="#000000" stroke-width="0.5" stroke-linecap="round" stroke-linejoin="round" stroke-miterlimit="10" x1="9.119" y1="15.207" x2="10.429" y2="15.207"/>

        		<line fill="none" stroke="#000000" stroke-width="0.5" stroke-linecap="round" stroke-linejoin="round" stroke-miterlimit="10" x1="10.518" y1="17.288" x2="12.122" y2="17.288"/>

        		<line fill="none" stroke="#000000" stroke-width="0.5" stroke-linecap="round" stroke-linejoin="round" stroke-miterlimit="10" x1="11.777" y1="19.369" x2="13.196" y2="19.369"/>
        </g>
        <g id='string'>
        	<path d="M4.82,1.672c-2.654,0-4.805,2.151-4.805,4.805c0,1.627,0.863,3.028,2.05,3.928c0.97,0.736,2.449,1.116,2.755,1.58
        		c1.812,2.74-3.061,5.18-3.061,5.18l0.535,1.162c4.873-1.118,7.843-7.399,7.331-11.85C9.322,3.841,7.474,1.672,4.82,1.672z"/>
        	<path d="M16.123,1.672c-2.654,0-4.805,2.151-4.805,4.805c0,1.627,0.863,3.028,2.05,3.928c0.97,0.736,2.449,1.116,2.755,1.58
        		c1.812,2.74-3.061,5.18-3.061,5.18l0.535,1.162c4.873-1.118,7.843-7.399,7.331-11.85C20.625,3.841,18.777,1.672,16.123,1.672z"/>
        </g>
        <g id='text'>
        	<path d="M17.286,7.303c-0.311-2.141-0.878-3.53-1.701-4.171c-0.842-0.677-1.875-1.015-3.101-1.015H11.77v15.766h2.881v0.686H5.404
        		v-0.686h2.881V2.117H7.516c-1.226,0-2.26,0.329-3.101,0.987C3.593,3.782,3.025,5.181,2.714,7.303H1.836l0.302-5.872h15.724
        		l0.302,5.872H17.286z"/>
        </g>
        <path id='vector' d="M20,19.849l-0.542-6.459l-1.849,2.678l-7.529-7.374C10.66,7.822,11,6.777,11,5.651c0-3.038-2.462-5.5-5.5-5.5
        	c-3.037,0-5.5,2.462-5.5,5.5c0,3.037,2.462,5.5,5.5,5.5c1.189,0,2.287-0.381,3.187-1.023l7.503,7.349l-2.649,1.829L20,19.849z"/>
    </defs>
</svg>
