<!DOCTYPE svg PUBLIC "-//W3C//DTD SVG 1.1//EN" "http://www.w3.org/Graphics/SVG/1.1/DTD/svg11.dtd">
<svg version="1.1" xmlns="http://www.w3.org/2000/svg" xmlns:xlink="http://www.w3.org/1999/xlink" viewBox="0 0 30 30">
        <g id='color'>
            <path d="M9.08,2.622c0,0-5.852,4.854-6.964,7.205c-0.889,1.879-0.805,8.184-1.468,8.183c-1.123-0.002-0.422-9.706,0.379-10.533
                C4.571,3.816,8.141,2.965,9.08,2.622z"/>
            <polygon points="14.172,1.345 13.321,0.493 3.987,9.827 4.838,10.678 5.084,10.433 13.927,1.59    "/>
            <path d="M17.907,5.635h-2.651c-0.181,0.257-0.466,0.436-0.804,0.436c-0.553,0-1.001-0.448-1.001-1.001
                c0-0.115,0.03-0.222,0.066-0.325c-0.036-0.103-0.066-0.21-0.066-0.325c0-0.062,0.025-0.116,0.035-0.175
                c0.086,0.466,0.475,0.825,0.965,0.825c0.339,0,0.623-0.179,0.804-0.436h5.653V3.506h-5.132L14.57,2.297L5.727,11.14l8.367,8.367
                l8.843-8.843L17.907,5.635z"/>
        </g>
</svg>
