<!DOCTYPE svg PUBLIC "-//W3C//DTD SVG 1.1//EN" "http://www.w3.org/Graphics/SVG/1.1/DTD/svg11.dtd">
<svg version="1.1" xmlns="http://www.w3.org/2000/svg" xmlns:xlink="http://www.w3.org/1999/xlink" viewBox="0 0 30 30">
        <g id='sensing'>
            <g>
                <path d="M18.107,9.856L8.376,0.702C8.191,0.528,7.918,0.483,7.687,0.59S7.313,0.934,7.326,1.188l0.676,13.343
                    c0.012,0.232,0.151,0.437,0.361,0.535c0.211,0.097,0.458,0.071,0.642-0.072l2.169-1.667l2.452,5.3
                    c0.145,0.313,0.515,0.449,0.828,0.304l2.83-1.309c0.313-0.145,0.449-0.515,0.304-0.828l-2.452-5.3l2.675-0.574
                    c0.229-0.048,0.408-0.219,0.47-0.443S18.276,10.015,18.107,9.856z"/>
            </g>
            <g>
                <path d="M6.09,1.511H3.113c-0.276,0-0.5-0.224-0.5-0.5s0.224-0.5,0.5-0.5H6.09c0.276,0,0.5,0.224,0.5,0.5S6.366,1.511,6.09,1.511z
                    "/>
            </g>
            <g>
                <path d="M6.291,6.005H3.113c-0.276,0-0.5-0.224-0.5-0.5s0.224-0.5,0.5-0.5h3.178c0.276,0,0.5,0.224,0.5,0.5
                    S6.568,6.005,6.291,6.005z"/>
            </g>
            <g>
                <path d="M12.603,19.489H9.481c-0.276,0-0.5-0.224-0.5-0.5s0.224-0.5,0.5-0.5h3.122c0.276,0,0.5,0.224,0.5,0.5
                    S12.879,19.489,12.603,19.489z"/>
            </g>
            <g>
                <path d="M6.748,14.995H2.196c-0.276,0-0.5-0.224-0.5-0.5s0.224-0.5,0.5-0.5h4.552c0.276,0,0.5,0.224,0.5,0.5
                    S7.025,14.995,6.748,14.995z"/>
            </g>
            <g>
                <path d="M6.446,10.5h-4c-0.276,0-0.5-0.224-0.5-0.5s0.224-0.5,0.5-0.5h4c0.276,0,0.5,0.224,0.5,0.5S6.723,10.5,6.446,10.5z"/>
            </g>
        </g>
</svg>
