<!DOCTYPE svg PUBLIC "-//W3C//DTD SVG 1.1//EN" "http://www.w3.org/Graphics/SVG/1.1/DTD/svg11.dtd">
<svg version="1.1" xmlns="http://www.w3.org/2000/svg" xmlns:xlink="http://www.w3.org/1999/xlink" viewBox="0 0 30 30">
        <g id='sounds'>
            <path d="M18.888,0.205c-5.162,0-8.888,1.227-12.735,1.227v13.259c-0.542-0.139-1.36-0.169-2.495,0.267
                c-2.286,0.879-2.973,2.685-2.302,3.74c0.167,0.262,0.457,0.511,0.827,0.706c1.121,0.591,2.978,0.679,4.368-0.93
                c0.397-0.459,0.633-0.889,0.761-1.278l0,0c0,0,0.259-0.546,0.3-2.642c0.006-0.331,0-9.594,0-9.594
                c2.979-0.211,6.014-0.963,9.81-1.131v0.087v9.628c-0.541-0.142-1.364-0.177-2.508,0.263c-2.286,0.879-2.973,2.685-2.302,3.74
                c0.167,0.262,0.457,0.511,0.827,0.706c1.121,0.591,2.978,0.679,4.368-0.93c0.403-0.466,0.64-0.902,0.767-1.296l0.007,0.019
                c0,0,0.263-0.549,0.301-2.676C18.889,13.048,18.888,0.205,18.888,0.205z"/>
        </g>
</svg>
